<?xml version="1.0" encoding="utf-8"?>
<!-- Generator: Adobe Illustrator 16.0.0, SVG Export Plug-In . SVG Version: 6.00 Build 0)  -->
<!DOCTYPE svg PUBLIC "-//W3C//DTD SVG 1.1//EN" "http://www.w3.org/Graphics/SVG/1.1/DTD/svg11.dtd">
<svg version="1.1" xmlns="http://www.w3.org/2000/svg" xmlns:xlink="http://www.w3.org/1999/xlink" x="0px" y="0px" width="24px"
	 height="24px" viewBox="0 0 24 24" enable-background="new 0 0 24 24" xml:space="preserve">
<g id="Lager_1">
	<g>
		<path fill="#D34503" d="M12,1c6.066,0,11,4.935,11,11c0,6.066-4.935,11-11,11C5.935,23,1,18.066,1,12C1,5.935,5.935,1,12,1 M12,0
			C5.372,0,0,5.372,0,12c0,6.628,5.372,12,12,12c6.627,0,12-5.372,12-12C24,5.372,18.627,0,12,0L12,0z"/>
	</g>
</g>
<g id="Lager_2">
	<g display="none">
		
			<rect x="-366.607" y="-130.945" display="inline" fill="#006B35" stroke="#006B35" stroke-width="12" stroke-linecap="round" stroke-linejoin="round" stroke-miterlimit="10" width="61.099" height="28.427"/>
		
			<polygon display="inline" fill="#FFFFFF" stroke="#006B35" stroke-width="12" stroke-linecap="round" stroke-linejoin="round" stroke-miterlimit="10" points="
			-366.607,27.657 -366.607,-102.518 -305.508,-102.518 -305.508,27.657 -336.056,77.379 		"/>
		
			<line display="inline" fill="none" stroke="#006B35" stroke-width="12" stroke-linecap="round" stroke-linejoin="round" stroke-miterlimit="10" x1="-336.057" y1="23.771" x2="-336.057" y2="-102.518"/>
		
			<line display="inline" fill="none" stroke="#006B35" stroke-width="12" stroke-linecap="round" stroke-linejoin="round" stroke-miterlimit="10" x1="-366.607" y1="27.657" x2="-305.508" y2="27.657"/>
		<polygon display="inline" fill="#006B35" points="-323.274,55.039 -336.057,75.846 -348.841,55.039 		"/>
	</g>
	<g>
		<path fill="#D34503" d="M16.924,21.83c0.068,1.476-2.16,1.322-3.413,1.322l-4.019,0.104c0-2.297,0-9.704,0-9.704
			c0-1.128,0.647-1.913,1.901-1.913h3.166c1.253,0,1.851,0.677,2.364,1.886C16.924,13.526,16.825,19.689,16.924,21.83z"/>
		<path fill="#D34503" d="M7.312,5.906c-0.038-0.608-0.428-1.213-1.29-1.181c-0.772,0.028-1.1,0.761-1.123,1.448s0,0,0,0
			c0.012,0.072-0.238,2.601,0.657,4.422c1.266,2.576,2.781,3.281,5.672,4.234l0.723-3.189C6.774,11.64,7.349,6.514,7.312,5.906z"/>
		<g>
			<circle fill="#D34503" cx="13.835" cy="7.791" r="3.312"/>
		</g>
		<polygon fill="#FFFFFF" points="10.857,15.417 11.818,21.794 16.277,21.125 15.315,14.749 		"/>
		<g display="none">
			<path display="inline" fill="#245E3A" d="M15.194,20.596c-0.624,0-1.164-0.424-1.314-1.03c-0.086-0.352-0.029-0.715,0.157-1.023
				c0.188-0.309,0.484-0.526,0.835-0.612c0.853-0.208,1.737-0.528,2.628-0.95l0.277-0.131l0.66,2.682l-0.191,0.085
				c-0.908,0.402-1.826,0.72-2.729,0.942C15.413,20.583,15.304,20.596,15.194,20.596z"/>
			<path display="inline" fill="#FFFFFF" d="M17.607,17.206l0.537,2.182c-0.728,0.322-1.658,0.674-2.687,0.928
				c-0.088,0.021-0.177,0.031-0.264,0.031c-0.496,0-0.947-0.338-1.071-0.84c-0.145-0.592,0.217-1.188,0.809-1.333
				C15.996,17.913,16.943,17.52,17.607,17.206 M17.946,16.492l-0.553,0.262c-0.876,0.415-1.745,0.729-2.581,0.935
				c-0.857,0.209-1.385,1.078-1.175,1.937c0.178,0.72,0.817,1.222,1.557,1.222c0.13,0,0.259-0.016,0.383-0.046
				c0.917-0.226,1.849-0.548,2.77-0.956l0.384-0.17l-0.101-0.406l-0.537-2.182L17.946,16.492L17.946,16.492z"/>
		</g>
		<path fill="#D34503" d="M14.568,20.357c-0.494-0.045-0.912-0.424-0.989-0.935c-0.089-0.603,0.325-1.163,0.929-1.253
			c1.243-0.187,2.349-0.556,3.037-0.822c-0.114-0.614-0.283-1.31-0.479-1.703c-0.283-0.562-0.688-1.203-0.957-1.612l-1.446-0.134
			c-0.607-0.057-1.053-0.593-0.997-1.199c0.057-0.607,0.621-1.112,1.227-1.056l0.814,0.075c1.002,0.093,1.884,0.469,2.396,1.333
			c0.032,0.054,0.408,0.553,0.936,1.603c0.566,1.132,0.799,3.032,0.822,3.243c0.055,0.465-0.191,0.912-0.612,1.117
			c-0.079,0.041-2.013,0.977-4.413,1.336C14.744,20.364,14.655,20.366,14.568,20.357z"/>
	</g>
</g>
</svg>
