<?xml version="1.0" encoding="utf-8"?>
<!-- Generator: Adobe Illustrator 24.0.2, SVG Export Plug-In . SVG Version: 6.00 Build 0)  -->
<svg version="1.1" id="Lager_1" xmlns="http://www.w3.org/2000/svg" xmlns:xlink="http://www.w3.org/1999/xlink" x="0px" y="0px"
	 viewBox="0 0 540 235" style="enable-background:new 0 0 540 235;" xml:space="preserve">
<style type="text/css">
	.st0{fill:#CAE3CD;}
	.st1{fill:#434345;}
	.st2{fill:#A6D0AB;}
	.st3{fill:#5F9E6C;}
	.st4{fill:#FFFFFF;}
	.st5{fill:#116A3E;}
</style>
<g>
	<path class="st0" d="M528,215H12c-6.6,0-12-5.4-12-12V32c0-6.6,5.4-12,12-12h516c6.6,0,12,5.4,12,12v171
		C540,209.6,534.6,215,528,215z"/>
</g>
<g>
	<g>
		<path class="st1" d="M61.2,226.1c-0.8,0-1.5-0.7-1.5-1.5V33.5c0-0.8,0.7-1.5,1.5-1.5s1.5,0.7,1.5,1.5v191.1
			C62.7,225.4,62,226.1,61.2,226.1z"/>
	</g>
	<g>
		<path class="st1" d="M73.3,33.5H49.1c-0.5,0-1-0.3-1.3-0.7c-0.3-0.5-0.3-1,0-1.5L59.9,9c0.3-0.5,0.8-0.8,1.3-0.8s1.1,0.3,1.3,0.8
			l12.1,22.3c0.3,0.5,0.2,1,0,1.5C74.3,33.2,73.8,33.5,73.3,33.5z M51.6,30.5h19.1l-9.6-17.7L51.6,30.5z"/>
	</g>
</g>
<g>
	<g>
		<path class="st1" d="M325.5,140.8H62.2c-0.8,0-1.5-0.7-1.5-1.5s0.7-1.5,1.5-1.5h263.3c0.8,0,1.5,0.7,1.5,1.5
			S326.3,140.8,325.5,140.8z"/>
	</g>
	<g>
		<path class="st1" d="M327,152.9c-0.3,0-0.5-0.1-0.8-0.2c-0.5-0.3-0.7-0.8-0.7-1.3v-24.2c0-0.5,0.3-1,0.7-1.3c0.5-0.3,1-0.3,1.5,0
			L350,138c0.5,0.3,0.8,0.8,0.8,1.3s-0.3,1.1-0.8,1.3l-22.3,12.1C327.5,152.8,327.3,152.9,327,152.9z M328.5,129.7v19.1l17.7-9.6
			L328.5,129.7z"/>
	</g>
</g>
<g>
	<rect x="127.4" y="139.3" class="st2" width="23.7" height="51.7"/>
	<path class="st1" d="M151.1,192.5h-23.7c-0.8,0-1.5-0.7-1.5-1.5v-51.7c0-0.8,0.7-1.5,1.5-1.5h23.7c0.8,0,1.5,0.7,1.5,1.5V191
		C152.6,191.8,151.9,192.5,151.1,192.5z M128.9,189.5h20.7v-48.7h-20.7V189.5z"/>
</g>
<g>
	<rect x="89.5" y="139.3" class="st3" width="23.7" height="80.4"/>
	<path class="st1" d="M113.2,221.2H89.5c-0.8,0-1.5-0.7-1.5-1.5v-80.4c0-0.8,0.7-1.5,1.5-1.5h23.7c0.8,0,1.5,0.7,1.5,1.5v80.4
		C114.7,220.5,114.1,221.2,113.2,221.2z M91,218.2h20.7v-77.4H91V218.2z"/>
</g>
<g>
	<rect x="165.2" y="88.2" class="st4" width="23.7" height="51.1"/>
	<path class="st1" d="M188.9,140.8h-23.7c-0.8,0-1.5-0.7-1.5-1.5V88.2c0-0.8,0.7-1.5,1.5-1.5h23.7c0.8,0,1.5,0.7,1.5,1.5v51.1
		C190.4,140.1,189.8,140.8,188.9,140.8z M166.7,137.8h20.7V89.7h-20.7V137.8z"/>
</g>
<g>
	<rect x="240.9" y="47.6" class="st2" width="23.7" height="91.7"/>
	<path class="st1" d="M264.6,140.8h-23.7c-0.8,0-1.5-0.7-1.5-1.5V47.6c0-0.8,0.7-1.5,1.5-1.5h23.7c0.8,0,1.5,0.7,1.5,1.5v91.7
		C266.1,140.1,265.5,140.8,264.6,140.8z M242.4,137.8h20.7V49.1h-20.7V137.8z"/>
</g>
<g>
	<rect x="278.7" y="59.4" class="st4" width="23.7" height="79.9"/>
	<path class="st1" d="M302.5,140.8h-23.7c-0.8,0-1.5-0.7-1.5-1.5V59.4c0-0.8,0.7-1.5,1.5-1.5h23.7c0.8,0,1.5,0.7,1.5,1.5v79.9
		C304,140.1,303.3,140.8,302.5,140.8z M280.2,137.8H301V60.9h-20.7V137.8z"/>
</g>
<g>
	<rect x="203.1" y="41.8" class="st3" width="23.7" height="97.5"/>
	<path class="st1" d="M226.8,140.8h-23.7c-0.8,0-1.5-0.7-1.5-1.5V41.8c0-0.8,0.7-1.5,1.5-1.5h23.7c0.8,0,1.5,0.7,1.5,1.5v97.5
		C228.3,140.1,227.6,140.8,226.8,140.8z M204.6,137.8h20.7V43.3h-20.7V137.8z"/>
</g>
<g>
	<g>
		<circle class="st3" cx="349.1" cy="68.9" r="4.5"/>
	</g>
	<g>
		<circle class="st3" cx="385.5" cy="121.5" r="4.5"/>
	</g>
	<g>
		<path class="st3" d="M434.1,70.1c1.8,1.7,4.6,1.5,6.3-0.3c1.7-1.8,1.5-4.6-0.3-6.3c-1.8-1.7-4.6-1.5-6.3,0.3
			C432.1,65.6,432.2,68.4,434.1,70.1z"/>
	</g>
	<g>
		<path class="st3" d="M397.8,37.1c1.2,2.2,3.9,2.9,6,1.7c2.2-1.2,2.9-3.9,1.7-6c-1.2-2.2-3.9-2.9-6-1.7
			C397.4,32.3,396.6,35,397.8,37.1z"/>
	</g>
	<g>
		<path class="st3" d="M360.3,106.2c1.8-0.7,2.9-2.5,2.8-4.4c-0.1-1,0.4-2,1.2-2.6c1.5-1,3.2-1.6,4.6-2c1.7,1.9,3.5,3.5,5.6,4.9
			c0.1,0.9-0.1,2.2-0.5,3.3c-1.8-0.5-3.8,0.1-4.9,1.9c-0.9,1.5-0.9,3.5,0.1,4.9c1.7,2.4,5.1,2.5,6.9,0.5c1.7-1.8,1.5-4.6-0.3-6.3
			c-0.1-0.1-0.2-0.1-0.2-0.1c0.7-0.9,1.6-1.6,2.1-2c2,1.1,4.2,1.9,6.4,2.6c2,2.5,1.5,5.8,1,7.5c-0.1,0.4,0.1,0.7,0.5,0.8l1.9,0.4
			c0.4,0.1,0.8-0.2,0.8-0.6c0-4.9,1.8-6.2,2.9-6.9c2.2,0.1,4.4,0,6.7-0.4c2.1-0.6,5.2-1.3,6.7-1.9c1-0.4,2-0.9,3-1.4
			c2.9,0.1,5.1,3.1,6.1,4.9c-0.6,0.8-1,1.8-0.9,3c0.1,1.4,0.8,2.7,2,3.5c2.6,1.7,6.1,0.3,6.8-2.7c0.4-1.8-0.4-3.8-2-4.8
			c-1-0.6-2.2-0.8-3.3-0.6c-3.1-3.5-2.6-6.6-2.4-7.7c3.1-2.8,7.2-9.1,9-13.5c1.6-4.7,2.1-9.7,1.4-14.7c1.9-1.3,4.4-1.8,5.6-1.9
			c0.4,0,0.6-0.4,0.5-0.8l-0.4-1.7c-0.1-0.6-0.6-0.8-1-0.6c-2.3,1.1-4.2,1.2-5.6,1.1c-0.3-1.2-0.7-2.3-1.2-3.5
			c-1.5-3.6-3.5-6.8-6-9.5c0.1-1.2,0.9-2.9,1.8-4c0.2-0.2,0.4-0.3,0.6-0.4c2,1.1,4.5,0.7,5.8-1.4c1-1.5,1-3.5-0.1-4.9
			c-1.7-2.4-5.1-2.5-7-0.5c-1.5,1.6-1.5,4-0.2,5.7c-0.1,0.2-0.2,0.5-0.4,0.6c-1.2,1.1-2.8,1.8-3.6,2.1c-3.4-2.9-7.4-5.1-11.7-6.3
			c-0.1-1.6,0.1-3.1,0.3-3.9c0.1-0.4-0.2-0.7-0.6-0.8l-2-0.2c-0.4,0-0.7,0.3-0.7,0.7c0.1,1.3-0.6,3.4-0.9,3.3
			c-5.6-0.9-11.5-0.4-17.1,1.9c-1.6,0.7-3.1,1.4-4.6,2.3c-1.8-0.8-3.3-2.6-4.2-3.8c0.5-0.8,0.8-1.8,0.7-3c-0.2-1.4-1-2.6-2.2-3.3
			c-2.8-1.5-6.1,0.2-6.6,3.3c-0.3,1.9,0.7,3.8,2.4,4.6c1.1,0.5,2.3,0.6,3.3,0.3c1.7,1.6,2.5,3.3,2.9,4.6c-2.1,1.2-6.5,6.6-7.2,8.4
			c0,0,0,0,0,0c-1.5,2.6-2.9,5.9-3.6,8.8c-2.3,0.6-5.1-0.2-6.3-0.6c-0.4-0.1-0.7,0.1-0.8,0.5l-0.4,1.9c-0.1,0.4,0.2,0.8,0.6,0.8
			c3,0,5,1,6.2,1.9c-0.1,7,1.8,13.7,2.2,14.8c0.8,1.9,1.7,3.6,2.7,5.3c-0.9,1.5-2.1,3-3.3,4c-0.7,0.6-1.7,0.8-2.6,0.5
			c-1.2-0.4-2.5-0.3-3.7,0.5c-1.5,0.9-2.3,2.8-2,4.5C354.7,105.7,357.7,107.2,360.3,106.2z M402.3,86.2c-0.4,1.1-1.6,1.6-2.7,1.2
			c-1.1-0.4-1.6-1.6-1.2-2.7c0.4-1.1,1.6-1.6,2.7-1.2C402.1,83.9,402.7,85.1,402.3,86.2z M403.1,59.3c2.2-0.9,4.7,0.2,5.6,2.4
			s-0.2,4.7-2.4,5.6c-2.2,0.9-4.7-0.2-5.6-2.4C399.8,62.7,400.9,60.2,403.1,59.3z M391.2,62.3c-0.4-0.8,0-1.8,0.8-2.2s1.8,0,2.2,0.8
			c0.4,0.8,0,1.8-0.8,2.2C392.5,63.4,391.5,63.1,391.2,62.3z M395.5,68.3c0.4-1.1,1.6-1.6,2.7-1.2c1.1,0.4,1.6,1.6,1.2,2.7
			c-0.4,1.1-1.6,1.6-2.7,1.2C395.7,70.6,395.1,69.4,395.5,68.3z M389.8,73.3c-0.4-0.8,0-1.8,0.8-2.2c0.8-0.4,1.8,0,2.2,0.8
			c0.4,0.8,0,1.8-0.8,2.2C391.2,74.5,390.2,74.2,389.8,73.3z M397.9,77.7c-0.9-2.2,0.2-4.7,2.4-5.6c2.2-0.9,4.7,0.2,5.6,2.4
			c0.9,2.2-0.2,4.7-2.4,5.6C401.3,80.9,398.8,79.9,397.9,77.7z M382.7,72.6c0.4-1.1,1.6-1.6,2.7-1.2c1.1,0.4,1.6,1.6,1.2,2.7
			c-0.4,1.1-1.6,1.6-2.7,1.2C382.8,74.8,382.2,73.6,382.7,72.6z M388.8,79c0.4-1.1,1.6-1.6,2.7-1.2c1.1,0.4,1.6,1.6,1.2,2.7
			c-0.4,1.1-1.6,1.6-2.7,1.2C388.9,81.3,388.4,80.1,388.8,79z M402.8,91.2c-0.4-0.8,0-1.8,0.8-2.2c0.8-0.4,1.8,0,2.2,0.8
			c0.4,0.8,0,1.8-0.8,2.2C404.1,92.4,403.1,92.1,402.8,91.2z M392.9,89.7c-0.4-0.8,0-1.8,0.8-2.2c0.8-0.4,1.8,0,2.2,0.8
			c0.4,0.8,0,1.8-0.8,2.2C394.3,90.9,393.3,90.5,392.9,89.7z"/>
	</g>
</g>
<g>
	<g>
		<circle class="st5" cx="482.2" cy="124.4" r="3.4"/>
	</g>
	<g>
		<circle class="st5" cx="435.5" cy="108.3" r="3.4"/>
	</g>
	<g>
		<path class="st5" d="M428.9,162.4c-1.9-0.2-3.6,1.2-3.8,3c-0.2,1.9,1.2,3.6,3,3.8c1.9,0.2,3.6-1.2,3.8-3
			C432.1,164.3,430.7,162.6,428.9,162.4z"/>
	</g>
	<g>
		<path class="st5" d="M466.4,166.3c-1.7-0.8-3.8,0-4.6,1.7c-0.8,1.7,0,3.8,1.7,4.6c1.7,0.8,3.8,0,4.6-1.7
			C468.9,169.2,468.2,167.1,466.4,166.3z"/>
	</g>
	<g>
		<path class="st5" d="M458.2,106.3c-0.8,1.3-0.6,2.9,0.3,4c0.5,0.6,0.7,1.4,0.4,2.2c-0.5,1.3-1.2,2.4-1.9,3.3
			c-1.9-0.4-3.8-0.6-5.7-0.5c-0.5-0.5-0.9-1.4-1.2-2.2c1.3-0.5,2.3-1.8,2.2-3.4c-0.1-1.3-1-2.5-2.3-3c-2.2-0.7-4.3,0.8-4.5,2.9
			c-0.2,1.9,1.2,3.6,3,3.8c0.1,0,0.1,0,0.2,0c-0.1,0.9-0.2,1.7-0.4,2.3c-1.8,0.3-3.5,0.7-5.2,1.3c-2.4-0.6-3.6-2.9-4-4.2
			c-0.1-0.3-0.4-0.4-0.7-0.3L437,113c-0.3,0.1-0.4,0.5-0.2,0.7c2.2,3,1.7,4.6,1.4,5.6c-1.4,0.9-2.7,2-3.9,3.3
			c-1,1.3-2.7,3.2-3.3,4.2c-0.4,0.7-0.8,1.5-1.2,2.2c-1.9,1.3-4.5,0.4-6-0.3c0-0.8-0.2-1.5-0.8-2.3c-0.7-0.8-1.7-1.3-2.8-1.3
			c-2.4,0.1-3.9,2.6-3,4.8c0.6,1.3,2,2.2,3.4,2.1c0.9-0.1,1.7-0.5,2.3-1.1c3.5,0.8,4.7,2.9,5,3.7c-0.7,3.1-0.3,9,0.6,12.5
			c1.1,3.6,3.1,7,5.9,9.8c-0.6,1.7-1.9,3.1-2.6,3.8c-0.2,0.2-0.2,0.5,0,0.7l1,0.9c0.4,0.3,0.7,0.2,0.9,0c0.9-1.7,2-2.7,3-3.2
			c0.7,0.6,1.5,1.1,2.3,1.6c2.5,1.6,5.3,2.6,8,3.2c0.5,0.8,0.7,2.2,0.7,3.3c0,0.2-0.1,0.4-0.2,0.5c-1.7,0.2-3.1,1.6-3,3.5
			c0.1,1.4,1,2.6,2.3,3c2.2,0.7,4.3-0.7,4.5-2.9c0.2-1.7-0.9-3.2-2.5-3.6c-0.1-0.2-0.1-0.4,0-0.6c0.2-1.3,0.9-2.4,1.3-2.9
			c3.5,0.2,6.9-0.2,10.2-1.4c0.8,0.9,1.3,2,1.6,2.6c0.1,0.3,0.4,0.4,0.7,0.2l1.3-0.8c0.3-0.2,0.3-0.5,0.1-0.8
			c-0.7-0.8-1.2-2.4-1-2.4c3.9-2,7.3-5,9.8-9c0.7-1.1,1.3-2.3,1.8-3.5c1.5-0.3,3.2,0.1,4.3,0.5c0,0.7,0.3,1.5,1,2.2
			c0.7,0.8,1.8,1.2,2.9,1c2.4-0.3,3.7-2.9,2.6-5c-0.7-1.3-2.2-2-3.6-1.8c-0.9,0.2-1.7,0.7-2.2,1.3c-1.8-0.2-3.1-0.9-3.9-1.5
			c0.8-1.7,1-7,0.6-8.5c0,0,0,0,0,0c-0.3-2.3-0.9-5-1.8-7.1c1.2-1.4,3.2-2.2,4.2-2.5c0.3-0.1,0.4-0.4,0.3-0.7l-0.6-1.4
			c-0.1-0.3-0.5-0.4-0.7-0.2c-1.9,1.3-3.5,1.7-4.7,1.6c-3.1-4.4-7.3-7.7-8.1-8.2c-1.3-0.8-2.7-1.5-4.1-2c-0.1-1.3-0.1-2.8,0.2-4
			c0.2-0.7,0.7-1.2,1.4-1.5c0.9-0.3,1.7-1,2.1-2c0.5-1.3,0.2-2.8-0.8-3.7C461.9,104.1,459.3,104.5,458.2,106.3z M441.3,137.9
			c-0.2-0.8,0.3-1.7,1.1-2c0.8-0.2,1.7,0.3,2,1.1c0.2,0.8-0.3,1.7-1.1,2C442.4,139.2,441.5,138.7,441.3,137.9z M453,155
			c-1,1.6-3,2-4.6,1.1c-1.6-1-2-3-1.1-4.6c1-1.6,3-2,4.6-1.1C453.5,151.4,454,153.4,453,155z M459.1,147.7c0.6,0.3,0.8,1.1,0.5,1.7
			c-0.3,0.6-1.1,0.8-1.7,0.5c-0.6-0.3-0.8-1.1-0.5-1.7C457.7,147.6,458.5,147.4,459.1,147.7z M453.6,145.9c0.2,0.8-0.3,1.7-1.1,2
			c-0.8,0.2-1.7-0.3-2-1.1c-0.2-0.8,0.3-1.7,1.1-2C452.5,144.6,453.4,145.1,453.6,145.9z M454.8,140.2c0.6,0.3,0.8,1.1,0.5,1.7
			c-0.3,0.6-1.1,0.8-1.7,0.5c-0.6-0.3-0.8-1.1-0.5-1.7C453.5,140.1,454.2,139.9,454.8,140.2z M447.8,141.2c1.6,1,2,3,1.1,4.6
			s-3,2-4.6,1.1c-1.6-1-2-3-1.1-4.6C444.2,140.7,446.3,140.2,447.8,141.2z M459.7,137.4c0.2,0.8-0.3,1.7-1.1,2
			c-0.8,0.2-1.7-0.3-2-1.1c-0.2-0.8,0.3-1.7,1.1-2C458.5,136.1,459.4,136.6,459.7,137.4z M452.9,136.2c0.2,0.8-0.3,1.7-1.1,2
			c-0.8,0.2-1.7-0.3-2-1.1c-0.2-0.8,0.3-1.7,1.1-2C451.8,134.9,452.7,135.4,452.9,136.2z M438.6,135c0.6,0.3,0.8,1.1,0.5,1.7
			c-0.3,0.6-1.1,0.8-1.7,0.5c-0.6-0.3-0.8-1.1-0.5-1.7C437.3,134.9,438,134.6,438.6,135z M445.5,131.5c0.6,0.3,0.8,1.1,0.5,1.7
			c-0.3,0.6-1.1,0.8-1.7,0.5c-0.6-0.3-0.8-1.1-0.5-1.7C444.1,131.3,444.9,131.1,445.5,131.5z"/>
	</g>
</g>
</svg>
