<?xml version="1.0" encoding="utf-8"?>
<!-- Generator: Adobe Illustrator 24.0.2, SVG Export Plug-In . SVG Version: 6.00 Build 0)  -->
<svg version="1.1" xmlns="http://www.w3.org/2000/svg" xmlns:xlink="http://www.w3.org/1999/xlink" x="0px" y="0px"
	 viewBox="0 0 485 235" style="enable-background:new 0 0 485 235;" xml:space="preserve">
<style type="text/css">
	.st0{fill:#DBE0EC;}
	.st1{fill:#FFFFFF;}
	.st2{fill:#6F85B2;}
	.st3{fill:#E5D0A6;}
	.st4{fill:#D8B879;}
	.st5{fill:#434345;}
</style>
<g id="bakgrund">
	<g>
		<path class="st0" d="M473,215H12c-6.6,0-12-5.4-12-12V32c0-6.6,5.4-12,12-12h461c6.6,0,12,5.4,12,12v171
			C485,209.6,479.6,215,473,215z"/>
	</g>
</g>
<g id="illustration">
	<g>
		<path class="st1" d="M195.9,38c0,0-3.1,4.8-2.9,6.4c0.2,1.7,0,9.8,0,9.8v6.9v10.9l0.2,9l3.6,9.8l-5.7,3.4l-1.9,9.5
			c0,0-3.5,1.4-3.8,2.1c-0.2,0.7-4.8,3.1-4.8,6c0,2.9,0.2,6.7,0.2,6.7l-0.7,2.4c0,0-4.8,2.4-4.8,3.1c0,0.7-0.5,6.9-0.5,6.9l3.1,3.6
			l1.2,2.4l-6.4,1.7l-2.9,5.7l0.7,4.8c0,0,1.9,6,2.6,6s4.3,1.2,4.3,1.2l-5,7.6l13.6,7.4l15.7,16.7l9.3,6.9l6.2-11.9l6.9,5.7l8.3,4
			l26.2,22.9l9.3,9.1c0,0,12.3,2.9,21.9,1.9s25-9,25.6-9.5c10.7-8.1,26.7-18.1,19.1-23.1s-24.3-10.7-28.3-14
			c-4-3.3-12.4-8.1-12.4-8.1l-16.4-8.3c0,0-7.6-7.4-10-13.8c-2.4-6.4-8.6-20-8.6-20l-7.1-9.8l11.4-17.6l16.7-14l6.4-5.7l2.9-7.4
			l3.3-6.7c0,0-0.2-3.8-3.6-2.1c-3.3,1.7-6.9,6-6.9,6l-5.5,4.5l-11.4,8.1l-5,1.2c0,0-2.4-2.6,0.7-5.2c3.1-2.6,11.7-10,11.7-10
			l9.3-17.4l3.8-16.4c0,0-4.5-3.6-6.4-0.2s-5.7,13.1-5.7,13.1l-8.1,11.2l-5.2,6l-4.8,1.7c0,0-0.5-2.4,0.7-5.5s8.6-19.3,8.6-19.3
			l4-13.3c0,0,2.1-8.3,0.2-9s-5.5-0.5-6,0.7s-5.2,7.4-5.2,7.4l-5.5,14l-7.6,13.6c0,0-6,6.4-5.2-1.4s1.2-25.2,1.2-25.2l-0.7-16.2
			c0,0-3.3-3.6-5-2.4s-2.6,8.3-2.6,8.3l-2.4,15.9L226.4,53l-4.5,7.9l-5.2,5.5l-6.2,3.1c0,0-3.3-0.2-3.3-6.7S204.2,43,204.2,43
			l-4.5-4.8L195.9,38z"/>
	</g>
	<g>
		<path class="st2" d="M167.8,165.2l-9,12.4l-13.1,15l-8.3,10.5l-13.9,13.6c0,0-0.3,9.4,22.6,9.4c43,0,58,0,58,0
			c1.2-0.6,16.5-21.5,16.5-21.5s-0.4-4.1-3.2-5.8c-2.9-1.7-7.6-5.5-7.6-5.5s-7.1-2.4-12.4-9.8c-5.2-7.4-12.6-12.6-12.6-12.6
			l-13.6-6.7L167.8,165.2z"/>
	</g>
	<g>
		<path class="st3" d="M194.6,39.1c0,0-1.9,6.3-1.9,6.7c0,0.4,0,3.1,0.4,2.9s6.1-2.3,6.1-2.3s1.4-1.9,1.3-2.5
			c-0.1-0.6-1.8-5.8-1.8-5.8L194.6,39.1z"/>
	</g>
	<g>
		<path class="st3" d="M282.2,36.5c-0.4,0.1-2.3,3.1-2.3,3.1l-0.2,2.6l1.8,1.1l2.4-0.6l1.9-3.3l-0.8-2.3L282.2,36.5z"/>
	</g>
	<g>
		<path class="st3" d="M289.1,65.9l-1.9,3.1l0.2,2.9l2-0.2l1.7-3.5C291.1,68.2,290.3,65.9,289.1,65.9z"/>
	</g>
	<g>
		<path class="st4" d="M292.5,164.9l-4.1,23.7l-8.6,16.1c0,0-6.5,8.9-12,12.7c-5.5,3.8-13.7,5.1-13.7,5.1l3.9,3.4
			c0,0,46.6,1.3,103-3c13-1,20-5,20-5l-43.6-27.7L292.5,164.9z"/>
	</g>
	<g>
		<path class="st5" d="M284.9,165.9c0,0,7.1-3.8,7.9,1.7v2.1L284.9,165.9z"/>
	</g>
	<g>
		<path class="st5" d="M256.1,214.4c0,0-2.6,8-1.1,8.1c1.5,0.2,7.5-3.6,7.5-3.6L256.1,214.4z"/>
	</g>
	<g>
		<path class="st5" d="M250.6,121.5c-0.5,0-0.9-0.2-1.2-0.6l-6.7-9c-2.4-3.6-6.4-9.2-7.5-10.3c-0.4-0.3-0.7-0.7-1-1.1
			c-1-1.1-2-2.2-4.3-3.4c-1.3-0.6-13.3-2.8-16.2-3.2c-1.5-0.2-10.8-0.3-16.7-0.3c0,0,0,0,0,0c-0.7,0-1.3-0.5-1.5-1.1
			c0-0.1-2-7.5-3.1-10.6c-1.2-3.2-1.2-11-0.9-12.2l0,0c0.2-1,1.1-6.9,0.3-9.4c-1-3.4-0.9-10.3-0.9-10.5c0-0.1,0.2-3.9,0.6-7.3
			c0.4-4.2,3.6-5.5,4.1-5.6c2.9-1,5.8,0.1,8.2,3.1c0.9,1.1,1.5,2.3,1.9,3.7c0.7,2.5,1.9,7,2.1,8.8c0.1,1.4,0.2,3.1,0.3,4.7
			c0.2,3.7,0.4,9.3,1.2,10.3c0.8,1,1.3,1,1.5,0.9l4.9-3c1-0.9,3.5-3.2,4.5-4.4c1.1-1.5,4.6-8.8,5.4-11.4c0.8-2.6,3-15.7,3.3-20.6
			c0.3-6.1,3.1-14,3.4-14.9c0.7-1.8,2.2-3,4-3.1c1.9-0.1,3.8,0.9,4.7,2.6c0.4,0.8,0.8,2.5,0.8,9.4c0,0.7,0.1,3,0.2,5.3
			c0.1,2.8,0.3,5.7,0.3,6.9c0,1-0.2,3.9-0.5,7.6c-0.4,4.9-0.8,11-0.8,13.7c0,1.4,0.3,2,0.4,2.1c0.1,0,0.8-0.2,1.2-0.7
			c0.8-0.9,4.2-6.9,7-12.1c0.6-1,1.8-4,3-7.2c1.5-3.7,3.2-8,4.5-10.6c2.9-6.1,7.9-9.2,11.9-7.4c4.4,2,1.5,10,0.8,11.8
			c-5,15.9-5.1,16.1-5.2,16.3c-0.8,1.6-7.3,15.1-8.2,17.9c0,0.1-0.1,0.2-0.1,0.3l3.9-2.5l6.5-7.1c0.5-0.6,5-6.9,7.1-13.2
			c2.2-6.7,4.3-8.1,5.7-9c0.1-0.1,0.3-0.2,0.4-0.3c1.2-0.9,2.7-1.2,4.1-0.8c1.4,0.4,2.5,1.4,3,2.8c0.8,2.2-0.8,7.9-1.3,9.6l-1.7,6.2
			c-0.2,0.6-0.4,1.1-0.6,1.6l-4.2,8.7c0,0,0,0.1-0.1,0.1c-0.2,0.3-4.4,7.3-6.2,9.6c-1,1.3-3.7,3.7-6.6,6.3c-2.2,1.9-4.9,4.3-5.3,5
			c-0.1,0.1-0.2,0.3-0.2,0.3c0.3,0.1,0.7,0.1,0.9,0.1c0.6-0.1,3.2-1.7,5.4-3c2.6-2.2,7.1-5,9.7-6.7c0.8-0.5,1.7-1.1,2-1.3
			c0.1-0.1,0.3-0.3,0.5-0.6c1.1-1.1,3.2-3.3,4.7-5.5c1.3-2.1,3.5-3.3,5.7-3.1c1.6,0.1,3,0.9,3.7,2.3c1.2,2.4-0.5,4.6-1.6,6.1
			l-0.3,0.4c-0.5,0.7-0.9,2-1.4,3.4c-0.4,1.1-0.8,2.4-1.4,3.7c-1.4,3.2-4.7,5.8-6.9,7.6c-0.5,0.4-0.9,0.7-1.2,1
			c-0.5,0.5-1.7,1.4-2.9,2.5c-2.1,1.7-5.3,4.4-5.9,5.1c-0.4,0.5-1.2,1.1-2.5,2.1c-2.2,1.8-5.9,4.7-7,6.8
			c-1.8,3.5-9.9,15.4-10.3,15.9C251.6,121.3,251.1,121.5,250.6,121.5C250.7,121.5,250.6,121.5,250.6,121.5z M198.1,90.5
			c3.7,0,14.1,0,16,0.3c0.1,0,15.2,2.6,17.1,3.6c2.8,1.5,4.1,2.9,5.1,4.1c0.3,0.3,0.6,0.6,0.9,0.9c1.7,1.7,7.3,9.8,7.9,10.7l5.4,7.3
			c2.4-3.5,7.6-11.3,8.9-13.8c1.4-2.7,5.1-5.6,7.8-7.8c0.9-0.7,1.9-1.5,2.1-1.8c0.7-0.9,3.2-2.9,6.2-5.4c1.3-1,2.4-1.9,2.9-2.4
			c0.3-0.3,0.8-0.7,1.3-1.1c1.8-1.4,4.9-3.8,6-6.4c0.5-1.1,0.9-2.3,1.3-3.4c0.6-1.7,1.1-3.2,1.8-4.2l0.3-0.4c0.9-1.3,1.6-2.3,1.3-3
			c-0.3-0.5-0.8-0.6-1.2-0.7c-0.8,0-2.1,0.4-3,1.8c-1.6,2.5-4,4.9-5.1,6c-0.2,0.2-0.4,0.4-0.5,0.5c-0.2,0.2-0.5,0.4-2.5,1.7
			c-2.6,1.7-7,4.5-9.5,6.5c-0.1,0-0.1,0.1-0.2,0.1c-2.4,1.5-5.5,3.3-6.6,3.5c-0.8,0.1-3.1-0.1-3.8-1.2l-0.1-0.1
			c-0.7-1.2-0.9-2.1,0.3-3.8c0.6-0.9,2.6-2.7,5.8-5.5c2.5-2.3,5.4-4.8,6.3-5.9c1.7-2.1,5.6-8.5,6-9.2l4.2-8.6
			c0.2-0.4,0.3-0.7,0.4-1.1l1.7-6.2c1-3.4,1.7-6.9,1.4-7.7c-0.2-0.5-0.6-0.8-1-1c-0.5-0.1-1,0-1.5,0.3c-0.2,0.1-0.3,0.2-0.5,0.3
			c-1.1,0.7-2.6,1.8-4.5,7.5c-2.4,7.1-7.4,13.9-7.6,14.2c0,0-0.1,0.1-0.1,0.1l-6.7,7.3c-0.1,0.1-0.2,0.2-0.3,0.2l-4.4,2.9
			c-0.7,0.5-1.5,0.6-2.3,0.4c-0.7-0.2-1.3-0.6-1.6-1.2c-0.5-0.8-0.5-1.9-0.1-3.2c1-3.3,7.7-17.2,8.3-18.3c0.3-0.9,3.2-10,5-16
			c0,0,0-0.1,0-0.1c1.3-3.3,1.9-7.5,0.8-8c-2.3-1.1-5.8,1.6-7.9,6c-1.2,2.6-2.9,6.8-4.4,10.4c-1.4,3.4-2.5,6.3-3.2,7.5
			c-1,1.8-6,11.1-7.5,12.7c-1.1,1.2-2.9,2.1-4.6,1.4c-1.5-0.6-2.3-2.2-2.2-4.9c0-2.9,0.5-9,0.9-13.9c0.3-3.4,0.5-6.5,0.5-7.4
			c0-1.2-0.1-4.2-0.3-6.8c-0.1-2.5-0.2-4.6-0.2-5.4c0-6.5-0.4-7.8-0.5-8c-0.3-0.6-1-1-1.8-1c-0.5,0-1.1,0.3-1.4,1.1
			c-1.1,3-3,9.4-3.2,14c-0.3,5.2-2.6,18.5-3.4,21.3c-0.8,2.9-4.4,10.5-5.9,12.4c-1.3,1.8-4.8,4.8-5,4.9c-0.1,0.1-0.1,0.1-0.2,0.1
			l-5.1,3.1c0,0-0.1,0-0.1,0.1c-1,0.5-3.4,0.8-5.3-1.8c-1.2-1.6-1.5-5.6-1.8-11.9c-0.1-1.6-0.2-3.2-0.3-4.6c-0.1-1-0.8-4.2-2-8.2
			c-0.3-1-0.7-1.9-1.4-2.7c-1.6-2-3.2-2.7-4.8-2.1c0,0,0,0,0,0c-0.2,0.1-1.9,0.7-2.1,3.1c-0.3,3.4-0.5,7.1-0.6,7.2
			c0,1.8,0,7.1,0.7,9.5c1,3.3,0,9.5-0.3,10.9l0,0c-0.1,0.7-0.2,7.9,0.8,10.6C196.2,83.3,197.5,88.3,198.1,90.5z M260.7,84.4
			L260.7,84.4C260.7,84.4,260.7,84.4,260.7,84.4z M196.1,38L196.1,38L196.1,38z"/>
	</g>
	<g>
		<g>
			<path class="st5" d="M194.1,49c-0.7,0-1.2-0.4-1.4-0.5c0,0,0.1,0.1,0.4,0.1v-2c0.4,0,0.7,0.2,0.9,0.4c0,0,0.1,0.1,0.1,0.1
				c0,0,0.1,0,0.3-0.1c1.1-0.5,3.9-1.4,4.5-1.5c0.5-0.3,1.1-0.8,1.1-1.2c0-0.4-0.3-1.7-1.2-4c-0.2-0.5-0.5-1-0.9-1.3
				c-0.3,0.1-0.9,0.3-1.2,0.5c-0.6,0.3-0.9,0.4-1.2,0.4l-0.3-2c0.1,0,0.4-0.1,0.6-0.3c1.3-0.6,2.1-0.9,2.8-0.5
				c0.9,0.5,1.6,1.4,2,2.4c0.9,2.3,1.3,3.9,1.3,4.7c0,1.8-2.1,2.9-2.3,3l-0.2,0.1c-0.9,0.3-3.4,1-4.3,1.4
				C194.8,48.9,194.4,49,194.1,49z M198,38.8L198,38.8L198,38.8z"/>
		</g>
		<g>
			<path class="st3" d="M240.1,16.6c0,1.7-0.5,2.3-1.2,2.6c-0.7,0.2-3.3-0.2-4-1.3c-0.7-1.2-0.3-4.8-0.3-4.8s1.1-1.9,3.1-1.4
				C241.4,12.6,240.1,16.6,240.1,16.6z"/>
			<path class="st5" d="M238.2,20.2c-1.4,0-3.4-0.6-4.2-1.9c-0.8-1.4-0.5-4.7-0.5-5.4l0-0.2l0.1-0.2c0.5-0.9,2-2.4,4.2-1.9
				c1.4,0.3,2.3,1,2.9,2.1c0.8,1.6,0.4,3.4,0.3,4c0,0.8-0.1,2.8-1.9,3.4C238.9,20.2,238.6,20.2,238.2,20.2z M235.5,13.4
				c-0.1,1.5-0.1,3.4,0.2,3.9c0.4,0.7,2.3,1,2.8,0.9c0.2-0.1,0.5-0.2,0.5-1.6v-0.2l0.1-0.2c0,0,0.5-1.5-0.1-2.5
				c-0.3-0.5-0.8-0.9-1.6-1.1C236.4,12.4,235.7,13.1,235.5,13.4z"/>
		</g>
		<g>
			<path class="st3" d="M266.1,21.2c-0.3,0-1,0.5-1.3,0.7c-0.8,0.8-1.3,2.4-1.5,4.4c-0.1,1.3,1.7,1.8,2.6,2.2c0.5,0.2,1.1,0.2,1.6,0
				c0.4-0.2,0.7-0.6,1-1.2c0.3-0.9,0.7-2.2,0.9-3.2c0.2-0.6,0.4-1-0.6-1.9L266.1,21.2z"/>
			<path class="st5" d="M266.9,29.6c-0.4,0-0.8-0.1-1.2-0.3l-0.3-0.1c-1.1-0.5-3.1-1.2-2.9-3.1c0.2-2.3,0.8-4.1,1.8-5
				c0,0,1.2-1.1,2.1-1l0.2,0l3.1,1l0.2,0.2c1.2,1.2,1.1,1.9,0.9,2.8l0,0.1c-0.2,1-0.6,2.3-0.9,3.3c-0.3,0.9-0.8,1.5-1.5,1.8
				C267.7,29.5,267.3,29.6,266.9,29.6z M266.1,22.2c-0.2,0.1-0.4,0.3-0.5,0.4c-0.5,0.4-1,1.7-1.2,3.7c0,0.4,1.1,0.9,1.7,1.1l0.4,0.1
				c0.3,0.1,0.6,0.1,0.8,0c0.2-0.1,0.3-0.3,0.5-0.7c0.3-0.9,0.7-2.2,0.9-3.1l0-0.2c0-0.1,0.1-0.2,0.1-0.3l0,0c0,0,0-0.1-0.3-0.4
				L266.1,22.2z M266.2,22.1L266.2,22.1z"/>
		</g>
		<g>
			<path class="st5" d="M282.7,43.4c-0.8,0-1.7-0.3-2.3-0.8c-0.6-0.5-1-1.1-1.2-1.8c-0.5-1.7,0.6-3.7,1.7-5c0.8-1,2-1.5,3.2-1.2l0,0
				C286.4,35,287,37,287,38l0,0.1l-0.6,2.3c-0.3,1.3-1.3,2.3-2.5,2.7C283.5,43.3,283.1,43.4,282.7,43.4z M283.5,36.4
				c-0.4,0-0.7,0.2-1,0.5c-1,1.3-1.5,2.6-1.3,3.3c0.1,0.3,0.2,0.5,0.5,0.8c0.4,0.4,1,0.5,1.6,0.3c0.6-0.2,1.1-0.7,1.2-1.3L285,38
				c0-0.3-0.3-1.3-1.3-1.5l0,0C283.6,36.4,283.6,36.4,283.5,36.4z"/>
		</g>
		<g>
			<path class="st5" d="M289.2,72.5c-0.5,0-1-0.1-1.4-0.5c-0.1-0.1-0.3-0.3-0.4-0.5c-0.5-1-0.6-2.3,0-3.4c0.5-1,0.6-1.1,0.6-1.2
				c0.8-1.2,2.9-2,3.5-2c0,0,0,0,0,0l0.6,0l0.5,1.1l-0.3,0.5l-0.8-0.6l0.1,1c-0.4,0.1-1.6,0.6-1.9,1.1c-0.1,0.1-0.3,0.6-0.5,1
				c-0.2,0.5-0.2,1.1,0,1.5c0.2,0,0.4,0,0.5-0.1l0.3,0.7l0.9,0.9C290.6,72.3,289.9,72.5,289.2,72.5z M290.6,65.4l0.8,0.6L290.6,65.4
				z"/>
		</g>
	</g>
	<g>
		<path class="st5" d="M190.3,105.8c-0.6,0-1.2-0.4-1.4-1l-1-3c-0.4-1.1-0.2-2.2,0-3c0.1-0.4,0.1-0.7,0.2-1l0-0.1
			c0.1-1.6,0.3-2.8,2.4-4.9c1.2-1.2,3.9-1.9,6.1-2.3c0.1,0,0.2,0,0.3,0c0.8-0.2,1.6,0.2,1.8,1c0.3,0.8-0.2,1.6-1,1.9
			c-0.1,0-0.3,0.1-0.6,0.1c-3.4,0.6-4.3,1.2-4.5,1.4c-1.4,1.4-1.5,2-1.5,3l0,0.1c0,0.5-0.1,1-0.2,1.4c-0.1,0.7-0.2,1.1-0.1,1.4
			l0.6,1.8l2.9-0.5c0.5-0.1,1-0.1,1.6-0.1l7.3-0.1l7.4,0.3l5.7,0.1c0.8,0,1.5,0.7,1.5,1.5c0,0.8-0.7,1.5-1.5,1.5l-5.7-0.1l-7.3-0.3
			l-7.3,0.1c-0.4,0-0.7,0-1.1,0.1l-4.2,0.7C190.5,105.8,190.4,105.8,190.3,105.8z"/>
	</g>
	<g>
		<path class="st5" d="M181.2,122.3c-0.3,0-0.6-0.1-0.9-0.3c-0.4-0.3-0.6-0.7-0.6-1.1l-0.2-2.7c0-0.2-0.2-3.9-0.2-5.9
			c0.1-2.3,1.4-3.9,2.2-4.8l0.2-0.3c0.5-0.7,3.8-3.2,5.1-3.4l0,0c0.2,0,1.4-0.3,2.2-0.5c2.1-0.5,2.4-0.6,2.7-0.6
			c0.8,0,1.5,0.7,1.5,1.5c0,0.8-0.6,1.4-1.4,1.5c-0.3,0.1-1.4,0.3-2.1,0.5c-1.5,0.4-2.1,0.5-2.4,0.6c-0.7,0.3-2.9,1.8-3.3,2.3
			l-0.3,0.3c-0.7,0.8-1.5,1.7-1.5,3c-0.1,1.9,0.2,5.5,0.2,5.6l0.1,0.9c0.2,0,0.3-0.1,0.4-0.1c2.2-0.5,4.2-1.1,5.1-1.3l0.4-0.1
			c0.6-0.2,2-0.3,4.7-0.5c1.1-0.1,2.6-0.2,3-0.3c0.1,0,0.3-0.1,0.5-0.2c0.6-0.2,1.4-0.4,2.4-1c0.7-0.4,1.6-0.2,2,0.5
			c0.4,0.7,0.2,1.6-0.5,2c-1.2,0.7-2.4,1.1-3,1.2c-0.1,0-0.2,0.1-0.3,0.1c-0.3,0.2-0.5,0.2-3.8,0.5c-1.4,0.1-3.8,0.3-4.2,0.4
			l-0.4,0.1c-0.9,0.2-3,0.8-5.1,1.3c-0.2,0.1-2,0.5-2,0.5C181.5,122.3,181.3,122.3,181.2,122.3z M187.1,106.8
			C187.1,106.8,187.1,106.8,187.1,106.8C187.1,106.8,187.1,106.8,187.1,106.8z"/>
	</g>
	<g>
		<path class="st5" d="M262.8,220.7c-0.4,0-0.7-0.1-1-0.4l-19.2-16.8c0,0,0,0,0,0c0,0-11.5-9.3-12.8-10.4c-0.5-0.4-2.4-1.5-8.8-4.6
			c-0.4-0.2-0.6-0.3-0.7-0.3c-0.3-0.2-0.7-0.4-6.1-5.8c-0.9-0.9-1.8-1.7-2.8-2.3c-3.8-2.7-13-9.1-15.2-11c-2.1-1.8-3.8-4.3-4.7-5.7
			c-0.2-0.3-0.4-0.5-0.7-0.6c-1.3-0.6-2.3-1.4-3-2.3c-0.2-0.3-0.5-0.5-0.9-0.6c-0.5-0.2-1-0.4-1.5-0.6c-0.5-0.2-1-0.4-1.6-0.6
			c-1.5-0.5-5.4-0.7-6.8-0.6c-2,0.1-5.2-1.6-6.6-4.3c-1-1.8-1.2-3.3-1.4-4.9c-0.1-0.6-0.2-1.3-0.4-2c-0.8-3.9,1.6-7.1,2.6-8.4
			c1.2-1.4,3.6-2.1,5.7-2.5c-0.8-0.6-1.5-1.3-2.3-2.1c-1.5-1.6-1.5-5.6-0.7-8.6c1-3.5,6.6-5.8,7.2-6.1c0.8-0.3,1.6,0.1,1.9,0.8
			c0.3,0.8-0.1,1.6-0.8,2c-2,0.8-5.1,2.6-5.5,4.1c-0.8,2.9-0.4,5.3,0,5.7c2.4,2.6,4.1,3,5.1,2.9c1.4-0.1,3.2-0.1,5-0.1
			c1.7,0,3.5,0,4.1-0.1c0.3-0.1,1-0.6,1.4-0.9c0.7-0.5,1.2-0.9,1.8-0.9c1.2,0,1.6,0.8,1.7,1.1c0.4,1.2-0.6,2.1-1.2,2.6
			c-0.2,0.2-0.4,0.3-0.6,0.5c-0.9,0.8-1.7,1.5-2.9,1.5c-0.7,0-11.1,0.2-11.2,0.2c-2.1,0.1-5.8,0.8-6.8,1.9c-0.8,0.9-2.5,3.2-2,5.8
			c0.2,0.8,0.3,1.5,0.4,2.1c0.2,1.5,0.4,2.6,1.1,4c1,1.9,3,2.7,3.7,2.7c1.4-0.1,5.8,0.1,7.8,0.8c0.7,0.2,1.3,0.5,1.9,0.7
			c0.5,0.2,0.8,0.4,1.2,0.5c1,0.3,1.8,0.9,2.4,1.7c0.3,0.4,0.8,0.9,1.9,1.4c0.8,0.4,1.5,1,2,1.8c0.8,1.2,2.3,3.5,4.1,5
			c2.2,1.9,12,8.8,15,10.8c1.1,0.8,2.2,1.7,3.2,2.7c4.2,4.2,5.2,5.1,5.4,5.3c0.1,0.1,0.3,0.2,0.6,0.3c5.7,2.7,8.5,4.2,9.4,4.9
			c1.3,1.1,12.8,10.5,12.8,10.5l19.2,16.8c0.6,0.5,0.7,1.5,0.1,2.1C263.7,220.6,263.2,220.7,262.8,220.7z M221.7,185.6
			C221.7,185.6,221.7,185.6,221.7,185.6C221.7,185.6,221.7,185.6,221.7,185.6z M194.8,135.5L194.8,135.5L194.8,135.5z M193.3,133.7
			L193.3,133.7L193.3,133.7z"/>
	</g>
	<g>
		<path class="st4" d="M180.9,117.2c0,0,2.5,2.1,7.3,1.7l-5.4,1.5c0,0-2.1,1.2-1.9-1C181,117.9,180.9,117.2,180.9,117.2z"/>
		<path class="st5" d="M181.7,122.2c-0.4,0-0.8-0.1-1.2-0.3c-0.5-0.3-1.2-1.1-1.1-2.5c0.1-1.3,0-1.9,0-1.9c-0.1-0.6,0.2-1.2,0.8-1.5
			c0.5-0.3,1.2-0.2,1.7,0.2c0.1,0.1,2.2,1.7,6.2,1.3c0.8-0.1,1.5,0.5,1.6,1.2c0.1,0.8-0.3,1.5-1.1,1.7l-5.2,1.5
			C183,121.9,182.4,122.2,181.7,122.2z"/>
	</g>
	<g>
		<path class="st5" d="M292.2,172c-2.4-1.2-5-2.4-7.5-3.5c-4.5-2.1-7.4-3.4-8.5-4.5c-2.8-2.7-6.8-6.8-9-10.8
			c-1.7-3.2-3-6.5-4.9-11.5c-0.5-1.3-1.1-2.8-1.7-4.5c-2.9-7.5-11-16.1-11-16.2l2.2-2.1c0.3,0.4,8.6,9.1,11.7,17.2
			c0.6,1.7,1.2,3.1,1.7,4.5c1.9,5.1,3.1,8.1,4.7,11.1c2.2,4,6.9,8.5,8.5,10c0.8,0.8,4.3,2.4,7.7,3.9c2.4,1.1,5.2,2.4,7.7,3.6
			L292.2,172z"/>
	</g>
	<g>
		<path class="st5" d="M211.2,196.2c-1.2,0-2.6-1-4.9-2.7l-0.3-0.3c-1.3-1-3.3-2.6-4.4-3.8c-3.5-4.2-14.2-14.9-17.2-17.1
			c-3-2.2-13-6.5-13.1-6.5c-0.4-0.2-0.7-0.5-0.9-1c-0.1-0.4,0-0.9,0.2-1.3l5.7-7.9c0.5-0.7,1.4-0.8,2.1-0.3c0.7,0.5,0.8,1.4,0.3,2.1
			l-4.6,6.4c3.1,1.4,9.6,4.2,12.1,6.1c3.4,2.5,14.3,13.5,17.7,17.6c0.8,1,2.8,2.5,3.9,3.4l0.4,0.3c1.3,1,2.2,1.7,2.8,2
			c0.1-0.3,0.3-0.7,0.4-1l0.2-0.6c0,0,0-0.1,0.1-0.1l4.2-8.5c0.4-0.7,1.3-1.1,2-0.7c0.7,0.4,1.1,1.3,0.7,2l-4.1,8.4l-0.2,0.6
			c-0.5,1.4-1,2.7-2.3,3C211.7,196.2,211.5,196.2,211.2,196.2z"/>
	</g>
	<g>
		<path class="st5" d="M204.5,228c-0.3,0-0.6-0.1-0.8-0.3c-0.7-0.5-0.9-1.4-0.4-2.1c0.1-0.1,9.7-14.3,11.8-17.2
			c0.6-0.9,1.3-1.7,1.8-2.4c1.1-1.4,2-2.5,1.9-3.3c-0.1-0.8-1.1-2-3.1-3.4l-5.1-3.1c-0.7-0.4-0.9-1.4-0.5-2.1
			c0.4-0.7,1.4-0.9,2.1-0.5l5.1,3.2c0,0,0.1,0,0.1,0.1c2.8,2.1,4.1,3.7,4.3,5.5c0.3,2.1-1,3.7-2.5,5.6c-0.5,0.7-1.1,1.4-1.7,2.2
			c-2,2.9-11.7,17-11.8,17.2C205.5,227.8,205,228,204.5,228z"/>
	</g>
	<g>
		<path class="st5" d="M122,220c-0.4,0-0.8-0.2-1.1-0.5c-0.6-0.6-0.5-1.6,0.1-2.1c3.4-3.2,6.9-6.3,10.3-9.3
			c8.5-7.5,31.9-37.3,33.4-39.2c0.6-1.1,2.3-4,3.1-4.9c1.2-1.2,3.5-1.2,4.2-1.1c0.8,0,1.5,0.7,1.4,1.6c0,0.8-0.7,1.5-1.6,1.4l0,0
			c-0.8,0-1.7,0.1-2,0.3c-0.4,0.4-1.7,2.5-2.7,4.3c0,0.1-0.1,0.1-0.1,0.2c-1,1.3-24.9,31.8-33.8,39.7c-3.4,3-6.9,6.1-10.2,9.3
			C122.7,219.9,122.4,220,122,220z"/>
	</g>
	<g>
		<path class="st5" d="M255.8,224.2c-0.8,0-1.5-0.2-2.1-0.7c-0.9-0.8-1.1-2.1-0.5-3.9c1.8-5.2,2.7-5.8,3-6c0.7-0.5,1.6-0.3,2.1,0.4
			c0.4,0.6,0.3,1.4-0.2,1.9c-0.1,0.2-0.8,1.1-2,4.6c-0.1,0.3-0.1,0.5-0.2,0.6c1.5,0,5.9-2.1,7.6-3c24.3-11.7,28.7-48.7,27.8-52.6
			c-0.1-0.2-0.1-0.3-0.2-0.3c-1-0.4-4,0.7-6.1,1.9c-0.7,0.4-1.6,0.2-2.1-0.5c-0.4-0.7-0.2-1.6,0.5-2.1c1-0.6,5.9-3.4,8.8-2.1
			c1,0.4,1.7,1.2,2,2.3c1.1,4.3-3.1,43.3-29.4,56C260.9,222.9,257.9,224.2,255.8,224.2z M257.9,216.1
			C257.9,216.1,257.9,216.1,257.9,216.1C257.9,216.1,257.9,216.1,257.9,216.1z M257.9,216.1C257.9,216.1,257.9,216.1,257.9,216.1
			S257.9,216.1,257.9,216.1z M257.9,216.1L257.9,216.1L257.9,216.1z"/>
	</g>
	<g>
		<path class="st5" d="M381.8,220c-0.3,0-0.5-0.1-0.8-0.2l-89-54.2c-0.7-0.4-0.9-1.4-0.5-2.1c0.4-0.7,1.4-0.9,2.1-0.5l89,54.2
			c0.7,0.4,0.9,1.4,0.5,2.1C382.8,219.7,382.3,220,381.8,220z"/>
	</g>
	<g>
		<path class="st5" d="M257.1,227.3c-0.4,0-0.9-0.2-1.2-0.5l-2.7-3.3c-0.5-0.6-0.4-1.6,0.2-2.1c0.6-0.5,1.6-0.4,2.1,0.2l2.7,3.3
			c0.5,0.6,0.4,1.6-0.2,2.1C257.7,227.2,257.4,227.3,257.1,227.3z"/>
	</g>
</g>
</svg>
