<?xml version="1.0" encoding="utf-8"?>
<!-- Generator: Adobe Illustrator 23.1.0, SVG Export Plug-In . SVG Version: 6.00 Build 0)  -->
<svg version="1.1" id="Lager_4" xmlns="http://www.w3.org/2000/svg" xmlns:xlink="http://www.w3.org/1999/xlink" x="0px" y="0px"
	 viewBox="0 0 485 235" style="enable-background:new 0 0 485 235;" xml:space="preserve">
<style type="text/css">
	.st0{opacity:0.5;}
	.st1{fill:#A6D0AB;}
	.st2{fill:#5F9E6C;}
	.st3{fill:#FFFFFF;}
	.st4{fill:#E6E6E6;}
	.st5{fill:#434345;}
	.st6{fill:none;stroke:#434345;stroke-width:2;stroke-linecap:round;stroke-linejoin:round;stroke-miterlimit:10;}
	.st7{fill:#F2F2F2;}
</style>
<g class="st0">
	<path class="st1" d="M473,215H12c-6.6,0-12-5.4-12-12V32c0-6.6,5.4-12,12-12h461c6.6,0,12,5.4,12,12v171
		C485,209.6,479.6,215,473,215z"/>
</g>
<g>
	<g>
		<path class="st2" d="M275.7,109.4c0,0,1,3.8,0.9,6.4s0.2,5.4,0.5,8.2c0.5,4.4,0.6,5.8,0.8,7s0.5,5.8,0.5,5.8s-6-3.6-6.5-5.4
			c-0.5-1.8-1.6-5.3-1.4-6c0.3-0.8,0.5-9.5,0.5-9.5L275.7,109.4z"/>
	</g>
	<g>
		<path class="st2" d="M221.8,102.3l-0.6,7.9l-0.8,8.4c0,0,0.4,3,0.8,2.5c0.4-0.5,2.8-4,2.8-4l0.4-10L221.8,102.3z"/>
	</g>
	<g>
		<path class="st2" d="M224,20.1c-0.4,0.3-5.8,8.7-6.2,9.4s-2.9,6.3-2.9,6.9s-1,9.2-1,9.5s-0.1,11.6-0.1,11.6l1,10.7l-0.1,7.9
			c0,0-1.4,5.8-1,6c0.4,0.3,1.1,4.1,1.1,4.1s0.6-6.2,2.3-8.9c1.6-2.8,9-10.7,10.4-11.8c1.4-1.1,9.5-6.7,9.5-6.7l7.2-5.7l8.5-12.8
			l2.3-3.1c0,0,11.1-5.1,12.6-5.4c1.5-0.3,7.5,0.1,12.1,4.9s7.2,13.2,6.9,17c-0.3,3.8-1.5,13.4-1.5,13.4l0.5,1.3l3-5.1
			c0,0,1.8-6,1.9-6.5c0.1-0.5,0.3-13.1,0.5-13.4c0.3-0.4-1.4-9-1.4-9.5s-2.8-8.2-2.8-8.2l-9-10c0,0-6.2-4.8-8.2-5.1
			s-12.6-0.9-12.7-1.4c-0.1-0.5-11.7-1-11.7-1l-10.8,3.1l-5.8,4L224,20.1z"/>
	</g>
</g>
<g>
	<path class="st3" d="M267.4,31.6c-0.5,0.2-11.4,5.1-11.4,5.1s-3.8,5.1-3.9,5.5c-0.1,0.4-4.9,7.5-4.9,7.5l-8.3,7.2l-8.2,5.9
		l-11.3,10.4l-2.5,5.3l-0.9,3.5l2.8,3.8l1.4,8.4l3.8,9.2l1.8,2.9l-1.1,8.8l-6.5,7.7l-7,10.6l-3.8,12.9l-4.8,8.2l1.1,11.6l4.6,13.6
		c0,0,5.3,9,5.7,9c0.4,0,5.9,4,5.9,4s9.4,2.3,15.2,2.9c5.8,0.6,26.3,0,26.3,0l6.9-1.1l4.1-4l7.5-13.1l4.3-10.8l2.8-14.7
		c0,0,1.6-9.3,1.4-9.8c-0.3-0.5-1.3-2-1.3-2h-3.4l-5.9-3l-5.3-5.9l-1.5-4.3l-0.1-11.7l7.3-8.8c0,0,3.1-5.5,3.4-5.9
		c0.3-0.4,4.5-12.8,4.5-12.8l1-4l2-1.4l4.5-14.1l0.3-3.5c0,0-1.3-2.5-2.4-1.6s-2.4,0.4-2.4,0.4l-2.5-1.1V50l-3.1-9.5
		c0,0-4.3-6.2-6.3-6.5C275.1,33.5,269.4,30.6,267.4,31.6z"/>
</g>
<g>
	<path class="st3" d="M213.8,61.3c0,0-5.1-0.9-4.9,2c0.3,2.9,1.6,7.5,1.6,7.5l3,7.2l0.9-6.7V61.1"/>
	<path class="st4" d="M213.8,79.9l-3.7-8.9c-0.1-0.2-1.4-4.8-1.7-7.7c-0.1-0.7,0.2-1.4,0.7-1.8c1.4-1.3,4.5-0.8,4.8-0.7l-0.2,1
		c-0.8-0.1-3.1-0.3-4,0.5c-0.3,0.2-0.4,0.6-0.3,1c0.2,2.8,1.6,7.4,1.6,7.4l2.3,5.4l0.6-4.8l0-10.1h1v10.2L213.8,79.9z"/>
</g>
<g>
	<path class="st5" d="M251.2,124.6c-5.3,0-10-1.3-10.3-1.4c-0.1,0-0.1,0-0.2-0.1c-12-5.9-19.6-20.8-19.7-20.9
		c-1.1-2.2-3.1-9.6-3.4-11.7c-0.2-1.2-0.3-2.3-0.4-3c-2.2-1.1-3.5-3.2-3.4-4.5c-0.1-0.5-0.9-2.2-1.2-2.6c-0.6-0.8-1.9-3.5-2-4.5
		c-0.1-0.5-1.3-4.6-2.1-7.4c0-0.1,0-0.1,0-0.2c-0.1-0.8-0.5-5.1,0-6.9c0.2-0.7,1-2,3.7-1.7l-0.3-2.9c0,0,0-0.1,0-0.1v-4.4l1.1-14.7
		c0-0.1,0-0.2,0.1-0.3c1-3.1,2.7-8.3,3-8.8c0.4-0.7,5.2-7.5,5.3-7.6c0.4-0.5,3.3-3.4,4.5-4.5c2.6-2.2,6.8-5.9,7.2-6.2
		c0.8-0.5,12.6-3.3,12.7-3.3c0.9-0.1,6.8,0.4,9.3,0.6l6,0.7c0.9,0,7.6,0.1,11.8,2.4c4.4,2.4,11.8,10.3,12.2,10.9
		c0.5,0.7,1,1.4,1.5,2c0.9,1.2,1.2,1.6,1.4,2l0.1,0.4c1.6,4.8,1.8,5.5,1.8,5.8c0.1,0.4,0.6,1.9,0.9,3c1,3.1,1.2,3.8,1.2,4.3
		c0,0.5,0.2,7.5,0.3,11.1c0,0.1,0,0.1,0,0.2l-1.4,9.8c0,0.1,0,0.2-0.1,0.3l-0.8,2.2c0.8-0.4,1.7-0.7,2.5-0.2
		c2.4,1.5,1.8,4.2,1.4,6.2c-0.1,0.4-0.2,0.8-0.2,1.1c-0.3,2-4.1,12.9-5.2,14.2c-0.3,0.4-0.7,0.7-1.1,0.9c-0.8,0.5-1.1,0.8-1.1,1.4
		c0,1.4-3.2,12.4-4.2,14.9c-1.2,2.9-7.8,11.2-8.6,12.1c0,0,0,0.1-0.1,0.1c-0.3,0.3-6.9,7.1-14.2,10.1
		C256.7,124.2,253.9,124.6,251.2,124.6z M241.8,120.7c1,0.3,10.2,2.7,16.5,0.1c6.6-2.6,12.8-8.9,13.3-9.5c2-2.5,7.3-9.3,8.2-11.4
		c1.1-2.8,4-12.9,4.1-14c0-1.9,1.3-2.8,2.2-3.4c0.3-0.2,0.5-0.4,0.6-0.5c0.7-1,4.3-10.8,4.6-13c0.1-0.4,0.2-0.8,0.2-1.2
		c0.4-1.9,0.5-2.8-0.1-3.4c-0.2,0.1-0.5,0.2-0.6,0.3l-0.1,0.1c-0.8,0.4-1.8,0.3-2.5-0.4c-0.7-0.6-0.9-1.6-0.6-2.5l0.9-2.5l1.3-9.6
		c0-1.2-0.2-10.5-0.2-11.1c-0.1-0.3-0.7-2.2-1.1-3.5c-0.8-2.6-1-3.2-1-3.6c-0.1-0.3-0.3-1.3-1.7-5.2l-0.1-0.4
		c-0.1-0.1-0.5-0.7-1-1.3c-0.4-0.6-1-1.3-1.5-2c-0.5-0.6-7.5-8.1-11.4-10.2c-3.8-2.1-10.6-2.1-10.7-2.1c-0.1,0-0.1,0-0.2,0l-6-0.8
		c-3.8-0.3-8.1-0.7-8.7-0.6c-0.7,0.1-10.4,2.5-11.7,3c-0.7,0.5-4.5,3.8-6.8,5.9c-1.8,1.8-4,3.9-4.2,4.2c-0.4,0.6-4.7,6.6-5,7.2
		c-0.2,0.4-1.8,5.3-2.8,8.3l-1.1,14.4l0,4.2l0.4,4c0.1,0.5-0.1,1.1-0.5,1.4c-0.4,0.4-0.9,0.5-1.5,0.4c-1.1-0.3-1.7-0.2-1.9-0.1
		c-0.3,1-0.1,3.9,0.1,5.7c0.4,1.4,2,6.8,2.1,7.6c0.1,0.5,1.1,2.9,1.5,3.3c0,0,0,0,0,0c0.3,0.3,1.9,3,1.8,4.4
		c0.1,0.4,0.9,1.8,2.4,2.3c0.4,0.1,0.8,0.5,0.8,1c0,0,0.3,1.8,0.5,3.8c0.3,2,2.2,9.1,3.1,10.9C225.3,105,232.4,116.1,241.8,120.7z
		 M216.4,83.3C216.4,83.3,216.4,83.3,216.4,83.3C216.4,83.3,216.4,83.3,216.4,83.3z M216.4,83.3C216.4,83.3,216.4,83.3,216.4,83.3
		C216.4,83.3,216.4,83.3,216.4,83.3z M216.4,83.3C216.4,83.3,216.4,83.3,216.4,83.3S216.4,83.3,216.4,83.3z M216.4,83L216.4,83
		L216.4,83z M214,82.7C214,82.7,214,82.7,214,82.7C214,82.7,214,82.7,214,82.7z M212.4,60.7C212.4,60.7,212.4,60.7,212.4,60.7
		L212.4,60.7z"/>
</g>
<g>
	<path class="st5" d="M218.6,88c-0.5,0-1-0.4-1-1l-0.4-11.7c0-0.6,0.4-1,1-1c0.5,0,1,0.4,1,1l0.4,11.7C219.7,87.5,219.2,88,218.6,88
		C218.7,88,218.7,88,218.6,88z"/>
</g>
<g>
	<path class="st5" d="M285.6,86.2c-0.7,0-1.2-0.5-1.2-1.2l-0.6-13.6c-0.1-1.4-0.1-2.9,0-4.4c0.1-1.4,0.3-2.7,0.5-4
		c0.1-1,0.3-2,0.4-3c0.4-4-0.2-8-1.1-12.8c-0.7-3.4-2.1-5.7-4.5-8.8c-2.9-3.6-7.6-5.6-12.2-5.1c-0.7,0.1-1.3-0.4-1.4-1.1
		c-0.1-0.7,0.4-1.3,1.1-1.4c5.4-0.7,11.1,1.7,14.4,6c2.6,3.3,4.3,6,5,9.9c0.8,4.3,1.5,9,1.1,13.5c-0.1,1.1-0.3,2.1-0.4,3.2
		c-0.2,1.3-0.4,2.6-0.4,3.8c-0.1,1.4,0,2.8,0,4.1l0.6,13.6C286.9,85.6,286.4,86.1,285.6,86.2C285.7,86.2,285.7,86.2,285.6,86.2z"/>
</g>
<g>
	<path class="st5" d="M215.3,91.7c-0.1,0-0.2,0-0.4-0.1c-0.5-0.1-2.7-1-3-5.9c-0.1-2.2,0.3-6,1.2-11.1c0.5-3.7,0.4-7.5-0.3-11.3
		l-0.4-2.5c-0.1-0.7,0.3-1.3,1-1.5c0.7-0.1,1.3,0.3,1.5,1l0.4,2.5c0.7,4,0.8,8.1,0.3,12.1c-0.3,1.5-0.5,2.9-0.7,4.2
		c0.9-2.4,2.2-4.8,3.9-7.1c3.9-5.2,9.2-9,14.3-12.7l6.7-4.9c1.4-1,2.9-2.1,4.1-3.4c1-1.1,1.8-2.4,2.5-3.6l4.7-7.6
		c0.6-0.9,1.2-1.9,2-2.7c1.2-1.2,2.6-1.9,4-2.7c3.3-1.6,4.5-2,6.6-2.8c0.8-0.3,1.8-0.6,3.2-1.1c0.6-0.2,1.4,0.1,1.6,0.8
		s-0.1,1.4-0.8,1.6c-1.4,0.5-2.4,0.8-3.3,1.1c-2.1,0.7-3.2,1.1-6.3,2.6c-1.3,0.7-2.5,1.3-3.4,2.2c-0.6,0.6-1.2,1.5-1.7,2.3l-4.7,7.6
		c-0.8,1.3-1.7,2.7-2.8,3.9c-1.3,1.5-2.9,2.6-4.5,3.7l-6.7,4.9c-5,3.6-10.1,7.3-13.8,12.2c-4.1,5.3-5.6,11.4-4.4,16.6
		c0.1,0.4,0,0.9-0.3,1.2C215.9,91.6,215.6,91.7,215.3,91.7z"/>
</g>
<g>
	<path class="st5" d="M219.3,122c-0.4,0-0.9-0.2-1.1-0.7c-0.3-0.6-0.1-1.4,0.5-1.7c1.6-0.8,2.6-2.4,3.3-3.5c0.3-0.6,0.7-2.2,0.7-3
		l0.6-7.9c0.1-0.7,0.6-1.2,1.3-1.1c0.7,0.1,1.2,0.7,1.1,1.3l-0.6,7.8c0,0.9-0.5,3-1,4c-0.8,1.5-2.2,3.4-4.3,4.5
		C219.7,122,219.5,122,219.3,122z"/>
</g>
<g>
	<path class="st5" d="M278.6,138.1c-0.3,0-0.6-0.1-0.8-0.4c-0.6-0.8-0.8-2.6-1-6.2c-0.1-1.6-0.2-3.2-0.3-3.8
		c-0.4-1.5-0.6-3.6-0.7-5.1c0-0.4-0.1-0.7-0.1-1c-0.1-1.4-0.3-4.3,0-6.4c0.2-1.5-0.3-5.4-0.4-6.7c-0.1-0.5,0.3-1.1,0.9-1.1
		c0.5-0.1,1.1,0.3,1.1,0.9c0,0.2,0.7,5.1,0.4,7.3c-0.2,1.8-0.1,4.6,0,5.9c0,0.3,0.1,0.6,0.1,1c0.1,1.4,0.3,3.4,0.6,4.7
		c0.2,0.8,0.3,2.4,0.4,4.2c0.1,1.7,0.2,4.6,0.6,5.1c0.3,0.4,0.3,1.1-0.2,1.4C279,138,278.8,138.1,278.6,138.1z"/>
</g>
<g>
	<path class="st5" d="M220.4,120.3c-0.6,0-1-0.4-1-1v-4c0,0,0-0.1,0-0.1l1-7.2c0,0,0.4-3,0-7.8c0-0.6,0.4-1,0.9-1.1
		c0.6,0,1,0.4,1.1,0.9c0.5,5.1,0,8.2,0,8.3l-1,7.1v3.9C221.4,119.9,220.9,120.3,220.4,120.3z"/>
</g>
<g>
	<path class="st5" d="M285.3,141.6c-0.1,0-0.2,0-0.3,0c-10.6-2.4-14.6-10.3-15.3-11.9c-0.7-1.7-0.7-6.6-0.5-13.6
		c0-0.7,0.1-1.5,0-1.7c-0.1-0.6,0.2-1.1,0.8-1.3c0.6-0.2,1.4,0.1,1.6,0.7c0.1,0.3,0.1,0.3,0,2.4c-0.1,2.7-0.4,11,0.3,12.5
		c0.6,1.4,4.1,8.3,13.6,10.5c0.7,0.2,1.1,0.8,0.9,1.5C286.4,141.2,285.9,141.6,285.3,141.6z"/>
</g>
<g>
	<path class="st6" d="M152.9,126.6"/>
</g>
<g>
	<path class="st5" d="M235.7,97.6c0.2,0.2,2.7,3.4,4,4.1c0.8,0.4,2.8,1.4,4,2c0.6,0.3,1.3,0.5,1.9,0.7c2.3,0.5,7.7,1.5,9.9,1.2
		c1.8-0.2,3.4-0.8,4.4-1.2c0.6-0.2,1.2-0.6,1.7-1l4-3.2l2.7-0.9c0,0-3.8,5.2-4.2,5.7c-0.3,0.5-5,5-12.2,4.5
		c-6.8-0.4-11.3-2-14.3-6.4c-2.4-3.5-3.4-6.1-3.4-6.1L235.7,97.6z"/>
	<path class="st5" d="M252.9,110.6c-0.4,0-0.7,0-1.1,0c-7.7-0.5-12.1-2.5-15.1-6.8c-2.4-3.6-3.4-6.2-3.5-6.3
		c-0.1-0.4-0.1-0.8,0.2-1.1c0.3-0.3,0.7-0.4,1.1-0.2l1.5,0.6c0.1,0,0.2,0.1,0.3,0.2c0.1,0.1,0.2,0.2,0.4,0.5
		c0.6,0.7,2.4,2.9,3.3,3.4c0.8,0.4,3,1.5,4,2c0.5,0.3,1.1,0.5,1.7,0.6c4.5,0.9,8.1,1.3,9.6,1.2c1.6-0.2,3.2-0.7,4.2-1.1
		c0.5-0.2,1-0.5,1.5-0.9l4-3.2c0.1-0.1,0.2-0.1,0.3-0.2l2.7-0.9c0.4-0.1,0.9,0,1.1,0.4c0.3,0.4,0.3,0.8,0,1.2c0,0-3.9,5.3-4.2,5.7
		C264.3,106.4,259.8,110.6,252.9,110.6z M237.5,101.2c0.3,0.4,0.6,0.9,0.9,1.3c2.6,3.8,6.4,5.5,13.6,6c7,0.4,11.3-4.1,11.4-4.2
		c0.2-0.2,1-1.3,1.9-2.5l-2.9,2.3c-0.6,0.5-1.3,0.9-2,1.2c-1.1,0.4-2.8,1-4.7,1.2c-2.3,0.3-7.4-0.6-10.2-1.2
		c-0.8-0.2-1.5-0.4-2.2-0.7c-0.9-0.5-3.2-1.6-4-2C238.7,102.3,238.1,101.8,237.5,101.2z"/>
</g>
<g>
	<path class="st5" d="M234.1,96.7c0.5,0,2.8-0.7,6.3-0.5c1,0.1,12,1.6,12,1.6l8.7,0.2l7.8,0.3l-0.9,0.7c0,0-6.5,1-8.9,1
		s-10.4-0.1-12.4-0.6c-2-0.5-7.1-1.5-7.2-1.7c-0.1-0.2-1.4-0.3-2.1-0.6S234.1,96.7,234.1,96.7z"/>
	<path class="st5" d="M259.1,101.2c-0.1,0-10.1,0-12.6-0.6c-0.5-0.1-1.3-0.3-2.2-0.5c-4.2-0.9-5.1-1.2-5.5-1.5
		c-0.2,0-0.4-0.1-0.6-0.1c-0.4-0.1-0.8-0.2-1.1-0.3c-0.4-0.1-2.1-0.4-3.2-0.5c-0.5-0.1-0.9-0.5-0.9-1.1c0-0.5,0.5-0.9,1-0.9
		c0.1,0,0.3,0,0.5-0.1c1-0.2,3.1-0.6,5.9-0.4c1,0.1,10.7,1.4,12,1.6l8.7,0.2l7.8,0.4c0.4,0,0.8,0.3,0.9,0.7c0.1,0.4,0,0.8-0.4,1.1
		l-0.9,0.7c-0.1,0.1-0.3,0.2-0.4,0.2C267.9,100.2,261.5,101.2,259.1,101.2z M241.2,97.3c1,0.3,2.5,0.6,3.6,0.8
		c0.9,0.2,1.7,0.4,2.2,0.5c1.8,0.4,9.5,0.6,12.1,0.6c0.4,0,1,0,1.7-0.1l-8.5-0.2c0,0-0.1,0-0.1,0C249.7,98.5,243.6,97.6,241.2,97.3z
		 M239,98.7L239,98.7L239,98.7z"/>
</g>
<g>
	<g>
		<path class="st5" d="M252.4,93.3c-0.6,0-1.2-0.1-1.5-0.1c-0.9-0.2-1.5-0.5-1.8-0.9c-0.2-0.2-1-0.6-2.3-1.1
			c-0.2-0.1-0.4-0.1-0.5-0.2c-0.1,0-0.2-0.1-0.5-0.1c-0.5,0-1.1-0.1-2.3-0.5c-1.2-0.5-1.9-1.4-2.3-2.2c-0.3-0.6,0.1-1.4,0.8-1.4h0.6
			c0,0,0,0,0-0.1c0,0.2,0.4,1.4,1.5,1.8c0.9,0.3,1.3,0.4,1.8,0.4c0.3,0,0.6,0.1,1,0.2c0.1,0,0.3,0.1,0.4,0.2
			c1.3,0.4,2.5,0.9,3.1,1.6c0.1,0.1,0.3,0.2,0.5,0.3c0.2,0.1,0.6,0.1,1.1,0.1c0.5,0,1,0,1.2,0c0.1,0,0.3-0.1,0.4-0.2
			c0.6-0.4,2.2-1.4,3.4-1.4c0.1,0,0.3,0,0.5,0c0.8,0,2.2,0.1,3.1-0.6c0.3-0.2,0.8-0.2,1.1,0v0c0.5,0.4,0.5,1.2,0,1.5
			c-1.4,1-3.3,0.9-4.3,0.9c-0.2,0-0.3,0-0.4,0c-0.5,0-1.8,0.7-2.4,1.2C254.1,93.2,253.2,93.3,252.4,93.3z M253.4,91.4
			C253.4,91.4,253.4,91.4,253.4,91.4C253.4,91.4,253.4,91.4,253.4,91.4z M253.5,91.3L253.5,91.3L253.5,91.3z M250.6,91.3
			C250.6,91.3,250.6,91.3,250.6,91.3C250.6,91.3,250.6,91.3,250.6,91.3z"/>
	</g>
</g>
<g>
	<g>
		<path class="st5" d="M240,66.8c-1.8-0.5-1.9-0.5-2-0.5c0,0,0,0,0,0c0,0-0.1,0-0.2,0c-1.3,0-1.8,0-2.2,0c-0.6,0.1-1,0.4-1.2,0.5
			c-0.3,0.2-0.5,0.7-0.6,1.1c-0.4,1.4-0.1,2.6,0.9,3.3c0.2,0.1,1.1,0.7,3,0.7c0.4,0,0.8,0,1.3-0.1c0.5-0.1,1-0.3,1.4-0.8
			c0.8-1.1,1.1-2.2,0.7-3.3C240.8,67.2,240.5,66.9,240,66.8z"/>
	</g>
</g>
<g>
	<g>
		<path class="st5" d="M243.3,71.2c-1.2-1.1-3.1-2.6-3.5-2.9c-0.2-0.1-1.4-0.6-3.6-0.6c-2.4,0-3.2,0.4-3.7,0.8c0,0-1.8,0.8-1.8,0.8
			l-0.4,0.1c-1,0.2-1.5-1.3-0.6-1.7c0,0,0,0,0,0c0.5-0.2,1-0.4,1.3-0.5c2-0.8,3.8-1.2,5.1-1.2c3.1,0,4.5,0.8,4.6,0.9l0.1,0l0,0
			c0.1,0.1,2.2,1.7,3.6,3c0.4,0.4,0.4,1,0,1.4l0,0C244.3,71.5,243.7,71.5,243.3,71.2z"/>
	</g>
</g>
<g>
	<g>
		<path class="st5" d="M244.9,62.3c-2.1-0.6-2.6-0.7-2.8-0.7c-0.4-0.1-2.7-0.8-4.3-1.3c-2.6-0.8-2.6-0.8-2.8-0.8h-0.2l-3.1,1.8
			l-2.5,1.7l0.7,1.2c0.4-0.2,1-0.5,1.2-0.6c0.4,0,1.5-0.1,2.2-0.1l3.4,0.9l8.2,1.8c0.5,0.1,1.4,0.3,1.6,0.3c0.8,0,1.2-0.9,1.2-1.6
			c0-0.3-0.1-0.6-0.5-0.9C246.7,63.1,245.8,62.6,244.9,62.3z"/>
	</g>
</g>
<g>
	<g>
		<path class="st5" d="M276.5,71.4c-0.2,0.5-0.8,0.6-1.3,0.4l-4.3-2.3c-0.2-0.1-0.5-0.2-0.7-0.2c-0.8,0-2.9,0.1-4.1,0.2
			c-0.5,0.1-1.3,0.5-2,1.1c-0.7,0.6-1.2,1.2-1.3,1.3c0,0,0-0.1,0-0.1l-0.2-0.1c-0.8-0.4-1-1.5-0.3-2.1c0.9-0.9,2.3-1.9,3.5-2.1
			c1.3-0.2,3.3-0.2,4.4-0.3c0.6,0,1.1,0.1,1.7,0.4l4.3,2.3C276.5,70.4,276.7,71,276.5,71.4L276.5,71.4z"/>
	</g>
</g>
<g>
	<path class="st5" d="M271.3,67.9l-0.3-0.3l-4.6,0.1c-0.8,0-1.5,0.6-1.7,1.4c0,0,0,0.1,0,0.1c-0.2,0.9,0,1.8,0.6,2.6
		c0.6,0.7,1.4,1.2,2.3,1.2c0.3,0,0.6,0,0.9,0c1.7,0,2.7-0.3,3.2-1C272.3,71.4,272.9,69.5,271.3,67.9z"/>
</g>
<g>
	<path class="st5" d="M282.3,64.6l0-0.1l-0.1-0.1c-0.2-0.4-1.5-2.4-2.2-2.9c-0.4-0.3-1.3-0.8-2.7-1.4c-0.4-0.2-0.8-0.3-1.3-0.2
		l-3.5,0.2c-0.4,0-0.7,0.1-1,0.2l-6.5,2l0,0c-1.3,0.4-3.4,1.2-3.8,1.5c-0.2,0.2-2,2.1-2,2.1c-0.2,0.2-0.3,0.6-0.1,0.9
		c0.1,0.3,0.4,0.5,0.8,0.5h1.5l3-0.6l3.6-1.1l4.6-1.3c0,0,1.9-0.5,3.4-0.7c0.6-0.1,1.9,0.2,4.6,2l0.1,0c0.5,0.3,1,0.4,1.3,0.2
		C282.3,65.4,282.4,64.9,282.3,64.6z"/>
</g>
<g>
	<path class="st3" d="M368,216l-33.4-56.8l-14.2-12.6c0,0-8.8-4.2-14.2-4.5s-10-0.8-10-0.8l0.3,15.3l1.3,16.2l2.4,10.8l4.4,11.9
		l3.6,6.3c0,0,3.1,1.4,3.8,0.8s4.9,1.2,4.9,1.2L324,217"/>
</g>
<g>
	<line class="st3" x1="335.9" y1="158.2" x2="337.1" y2="159.6"/>
</g>
<g>
	<path class="st5" d="M367.5,216.8c-0.4,0-0.8-0.2-1.1-0.6c-8.3-14-37.1-61.2-40.1-63.7c-9.1-7.6-13.1-8.7-20.2-9.3
		c-2.5-0.2-4.7-0.2-6.8-0.2l-0.2,0c-0.7,0-1.2-0.6-1.2-1.3c0-0.7,0.6-1.2,1.3-1.2c0,0,0,0,0,0l0.2,0c2.2,0,4.4,0,7,0.2
		c7.4,0.6,11.9,1.8,21.5,9.8c4.1,3.4,40.3,63.7,40.6,64.3c0.4,0.6,0.2,1.4-0.4,1.7C367.9,216.7,367.7,216.8,367.5,216.8z"/>
</g>
<g>
	<path class="st5" d="M324,218c-0.4,0-0.7-0.2-0.9-0.6c-0.1-0.2-0.3-0.6-0.5-1c-3.9-8.7-5.4-10.9-6-11.3c-1.9-1.1-4.5-1.1-6.6-1
		c-0.6,0-1-0.4-1-1s0.4-1,1-1c2.3-0.1,5.3-0.1,7.7,1.3c1.2,0.7,3.1,4.2,6.8,12.2c0.2,0.4,0.4,0.8,0.5,1c0.2,0.5,0,1.1-0.5,1.3
		C324.3,218,324.1,218,324,218z"/>
</g>
<g>
	<path class="st1" d="M200.4,157.7l-2.6,4.8c-0.1,0.2-0.3,0.5-0.5,0.6l-3.8,3.6l-2.5,2.5c-0.3,0.3-0.5,0.6-0.6,1l-1.8,6.1
		c0,0,0,0.1,0,0.1l-1.9,8.4c0,0.1-0.1,0.3-0.1,0.4c-0.1,1.3-0.6,30.4-0.8,31.7c-0.3,1.5,7.9,4.9,21.4,8.2
		c14.9,3.7,43.4,3.6,43.4,3.6s22.4-0.9,42.3-5.5l16.5-7.5c0.1,0,0-1.5,0.1-1.5c1.1-0.3,0-4.4,0.1-5.6l0.1-1.2c0-0.3,0-0.6-0.1-0.9
		l-3.8-12.6c0-0.1,0-0.1-0.1-0.2c-0.5-1.3-6.4-16.6-6.4-24.5c0-8.3-0.4-22.1-0.4-22.1s0.1-6.4-0.9-7.2c-0.9-0.7-5.5-1.2-6.7-1.3
		c-0.2,0-0.4,0-0.6,0l-2.2,0.3c-1.3,0.2-2.3,1.4-2.1,2.7l0.4,3.3c0,0.2,0,0.4,0,0.6c-0.3,2.3-2,17.5-3.6,21.6
		c-1.6,4-4.7,11.5-5.2,12.8c0,0.1-0.1,0.2-0.2,0.3c-0.7,1.2-5.2,8.6-6.1,9.6c-0.9,1.1-2.6,3.9-4.4,4.3c-1.8,0.4-10.3,1.8-12.7,2
		c-2.4,0.3-21.6-0.5-28.5-1.9c-6.9-1.4-9.3-1.4-12.3-5.9c-3-4.5-8-10-9.4-16.2c-1.1-4.9-2.7-11.8-3.3-14.4
		C201.1,157.5,200.6,157.4,200.4,157.7z"/>
</g>
<g>
	<path class="st5" d="M309.8,217c-0.5,0-1-0.4-1-1l-0.1-11.8l-1.1-3.9l-2.5-5.1c-8.9-14.9-7.8-48.8-7.6-51.9l-0.7-2.1
		c0-0.1-0.1-0.1-0.2-0.2l-0.7-0.1c0,0-0.1,0-0.1,0c-2.5-0.8-4.8-0.9-7.5-0.9l-0.8,0c1.1,2.4,0.5,5.7-0.3,10.1
		c-0.5,2.6-1,5.6-1.4,9.2c-1.3,11.5-9.1,26.6-15.7,34c-6.7,7.5-41.9,4-49.5,1.7c-7-2.2-11.2-9.7-13.7-14.3c-0.4-0.7-0.7-1.3-1.1-1.9
		c-1.5-2.5-3.2-9.6-5.3-21.7c-0.1-0.5-0.2-0.9-0.2-1c-0.1-0.5,0.2-1.1,0.7-1.2c0.5-0.1,1.1,0.2,1.2,0.7c0,0.1,0.1,0.5,0.2,1.1
		c2.6,14.6,4.2,19.5,5.1,21c0.3,0.6,0.7,1.2,1.1,1.9c2.5,4.5,6.3,11.4,12.5,13.3c7.9,2.5,41.9,5.2,47.4-1.1
		c6.4-7.2,14-22.1,15.2-32.9c0.4-3.7,1-6.8,1.4-9.3c1.1-5.8,1.4-8.4-0.5-10c-0.3-0.3-0.4-0.7-0.3-1.1s0.5-0.6,1-0.6l2.8,0.1
		c2.8,0,5.3,0.1,8.1,1l0.6,0.1c0.8,0.1,1.5,0.7,1.7,1.5l0.8,2.3c0,0.1,0.1,0.2,0,0.4c0,0.4-1.5,36.2,7.4,51.1l2.6,5.2
		c0,0.1,0,0.1,0.1,0.2l1.1,4.1c0,0.1,0,0.2,0,0.3l0.1,12C310.8,216.5,310.4,217,309.8,217C309.8,217,309.8,217,309.8,217z"/>
</g>
<g>
	<path class="st3" d="M156.5,133.9c-0.6,0.5-11.6,7.9-12.4,14.2s-0.1,31.5-0.1,31.5l0,37.4h18l-1-35.9c0,0,3.2-8,3.7-9.9
		c0.5-2,0-7.1,0-7.1l-3.4-17l-3.3-11.1L156.5,133.9z"/>
</g>
<g>
	<path class="st5" d="M143.5,216.8C143.5,216.8,143.5,216.8,143.5,216.8c-0.7,0-1.3-0.6-1.3-1.3l0.2-43.6c0-0.1-0.5-11.3,0.4-22.6
		c0.9-12.1,13.2-15.4,13.4-15.4c0.7-0.2,1.3,0.2,1.5,0.9c0.2,0.7-0.2,1.4-0.9,1.5c-0.5,0.1-10.7,3-11.5,13.2
		c-0.9,11.1-0.4,22.2-0.4,22.3l-0.2,43.7C144.7,216.2,144.2,216.8,143.5,216.8z"/>
</g>
<g>
	<path class="st1" d="M197.7,129.6l-7,0.4l-3.4,2.4l0.8,2.6l3.8,2l6.7,0.9l-1.4-3.7C197.2,134.3,196.7,130.7,197.7,129.6z"/>
</g>
<g>
	<path class="st5" d="M191.8,130.9c-0.2,0-0.4,0-0.5,0c-0.6,0-1-0.5-1-1c0-0.6,0.5-1,1-1c2.4,0.1,7.9-0.8,9.1-1.1
		c0.2-0.1,0.5-0.2,0.8-0.1c0.5,0.1,0.9,0.6,0.8,1.1c-0.1,0.7-0.1,0.9-4.6,1.6C196,130.6,193.6,130.9,191.8,130.9z"/>
</g>
<g>
	<path class="st3" d="M204.2,124.9l-4,5.8l-1.5,5.8l-1.6,1.6l-5.3-0.5l-4.6-2.3l0.4-3.5l8-6.2l-43.2,0.9l3.9,7.3c0,0,5.4,17,6,17.7
		s1.9,11.3,2.3,12.4c0.4,1.1,0.8,4.9,0.4,6c-0.4,1.1-2.9,6.7-2.9,6.7l-0.9,7l0.9,11.6l0,21.7l24.2,1.1l0.3-33.6l1.9-8.4l1.9-5.5
		l6-4.9c0,0,3.3-7.4,3.8-8s4.9-8.4,4.9-8.4l2.3-8.4l4.2-9.6l3.4-5.5l-4.5-0.5L204.2,124.9z"/>
</g>
<g>
	<path class="st5" d="M185.5,218.4C185.5,218.4,185.5,218.4,185.5,218.4c-0.6,0-1-0.5-1-1c0-1.2,1.2-30.1,1.5-33.7
		c0.3-3,1.4-6.6,2.2-9.4c0.2-0.7,0.4-1.4,0.6-2c0.7-2.7,2-3.6,3.8-5.1c0.6-0.5,1.3-1,2.1-1.8c2.9-2.6,5.3-9,5.5-9.7l0,0
		c0.3-1.3,4-6.7,4.2-7c0.9-1.3,1.1-2.1,1.7-4.7c0.3-1.1,0.6-2.6,1.1-4.4c1.6-6.1,5.2-11.2,5.6-11.8l0.7-1.4l-8.7-0.3
		c-0.4,0.3-1.1,1.1-1.6,1.9c-0.6,1-2.6,5.9-3.3,7.8c-0.3,0.6-0.4,1.1-0.5,1.1c-0.2,0.3-0.5,0.6-0.9,0.6c-0.7,0-0.9-0.2-2.4-3.8
		c-0.6-1.5,0-3.3,1.5-4l3.2-1.5c0.3-0.6,0.5-1,0.7-1.3c1-1.5,2.3-2.6,2.4-2.6c0.2-0.1,0.4-0.2,0.7-0.2l10.3,0.4c0.4,0,0.8,0.2,1,0.6
		c0.2,0.4,0.2,0.8,0,1.2l-1.3,2.5c0,0-0.1,0.1-0.1,0.1c0,0.1-3.8,5.2-5.4,11.2c-0.5,1.9-0.8,3.3-1.1,4.4c-0.6,2.7-0.9,3.8-2,5.3
		c-1.5,2.2-3.7,5.7-3.9,6.2c0,0,0-0.1,0-0.2c0,0.7-2.6,8-6.1,11c-0.8,0.7-1.6,1.3-2.2,1.8c-1.8,1.4-2.6,2.1-3.2,4.1
		c-0.2,0.6-0.4,1.3-0.6,2.1c-0.8,2.8-1.8,6.3-2.1,9.1c-0.4,3.6-1.5,33.3-1.5,33.6C186.5,217.9,186,218.4,185.5,218.4z M199.3,135.7
		L199.3,135.7L199.3,135.7z M199.7,130.8l-1.2,0.5c-0.5,0.2-0.8,0.8-0.5,1.4c0.2,0.4,0.3,0.8,0.5,1.1
		C198.9,132.8,199.3,131.7,199.7,130.8z M214.1,125.2C214.1,125.2,214.1,125.2,214.1,125.2L214.1,125.2z"/>
</g>
<g>
	<path class="st5" d="M162,218c-0.5,0-1-0.4-1-1c-0.5-13.5-0.4-21.7-0.4-26.5c0-2.8,0-4.7-0.1-6c-0.3-3.8-0.1-4.3,0.5-6.9l0.1-0.3
		c0.2-1,0.8-2.1,1.3-3.1c0.5-1,1-2,1.2-2.8l0-0.2c0.4-1.8,0.9-4.5,0.2-7.2c-0.8-3-1.7-9-1.8-9.3c0,0-2.4-9.7-4.2-14.8
		c-1.1-3-2.6-6.1-3.7-8.4c-0.8-1.7-1.4-2.9-1.6-3.5c-0.1-0.5-0.2-0.8-0.3-0.9c-0.2-0.2-0.4-0.5-0.4-0.8c0-0.5,0.4-1,1-1l43.8-1.4
		c0.4,0,0.8,0.3,1,0.7c0.1,0.4,0,0.9-0.3,1.1l-4.8,3.8c-1.4,1-3.5,2.6-3.8,2.9c-0.2,0.2-0.4,1.3,0,2.1c0.5,0.8,1.4,1.4,2.7,1.6
		c0.4,0.1,0.8,0.1,1.2,0.2c1.2,0.3,2.6,0.6,4,0.4c1.1-0.1,1.1-1.4,1.1-1.6c0-0.5,0.4-1,1-1c0.6,0,1,0.4,1,0.9
		c0.1,1.1-0.5,3.4-2.9,3.7c-1.8,0.2-3.4-0.1-4.7-0.4c-0.4-0.1-0.8-0.2-1.1-0.2c-1.8-0.3-3.3-1.3-4.1-2.6c-0.8-1.5-0.5-3.6,0.3-4.5
		c0.5-0.5,3.4-2.7,4-3.1l2.4-1.9l-39.3,1.2c0,0.1,0,0.1,0,0.2c0.1,0.5,0.7,1.7,1.5,3.2c1.1,2.3,2.7,5.4,3.8,8.5
		c1.9,5.1,4.2,14.7,4.3,15.1c0,0.1,1,6.2,1.8,9.2c0.8,3.1,0.2,6.1-0.2,8l0,0.2c-0.2,1.1-0.8,2.2-1.4,3.3c-0.5,0.9-1,1.8-1.1,2.6
		l-0.1,0.3c-0.6,2.5-0.7,2.9-0.4,6.3c0.1,1.4,0.1,3.3,0.1,6.1c0,4.8-0.1,13,0.4,26.4C163,217.5,162.6,218,162,218
		C162,218,162,218,162,218z M152.9,127.6C152.9,127.6,152.9,127.6,152.9,127.6C152.9,127.6,152.9,127.6,152.9,127.6z M152.9,127.6
		C152.9,127.6,152.9,127.6,152.9,127.6C152.9,127.6,152.9,127.6,152.9,127.6z M152.9,127.6C152.9,127.6,152.9,127.6,152.9,127.6
		C152.9,127.6,152.9,127.6,152.9,127.6z M152.8,127.6C152.8,127.6,152.8,127.6,152.8,127.6C152.8,127.6,152.8,127.6,152.8,127.6z"/>
</g>
<g>
	<polygon class="st3" points="160.9,113.5 151.5,120.3 152.6,122.8 160.9,121.7 165.2,121.8 170,122 172.1,119.9 171.7,117.8 
		164.4,114.3 	"/>
</g>
<g>
	<path class="st3" d="M165.4,113.6c0.1-0.5,1.1-5.1,1.1-5.1s0.3-2,3.3-1.8c3,0.3,9.4,1.8,9.4,1.8l5.9,2.1l2,3.3l-2.8,2.5l3.6,4.4
		h3.1l-2.9,1.9c0,0-4.5-0.9-4.6-1.4s-2.5-3.6-2.5-3.6l-2.3-1.3l-3.6-0.3l-0.8,4.8l-1.6-1.6l-3.6-2.6l-4-2.5"/>
</g>
<g>
	<path class="st3" d="M186.4,111l3.3,0.3l11.3,1.9l2.9-0.8l3.5,0.4l0.5,1.1l5.8,4.6l-3,1.5l-2.1,3.3c0,0-4.8,1.6-5.3,1
		c-0.5-0.6-6.5-4.4-6.5-4.4s-4.8,0.6-4.8,0s-3.6-5.3-3.6-5.3L186.4,111z"/>
</g>
<g>
	<polygon class="st3" points="177.9,115.3 174.6,115.9 174.8,119.5 178.9,115.9 	"/>
</g>
<g>
	<path class="st5" d="M151.9,124.4c-0.4,0-0.7-0.2-0.9-0.6c-0.5-1.1-1.1-3.3,0.5-4.7c1.4-1.3,6.5-5.1,6.7-5.2
		c0.4-0.3,3.4-2.2,5.6-0.9c1.4,0.8,3.9,1.9,5.5,2.6l1.1,0.5c0.6,0.3,2.4,1.2,2.9,2.9c0.2,0.6,0.2,1.6-0.6,2.8
		c-0.3,0.4-0.8,0.8-1.3,0.9c-0.7,0.2-4.1,0.9-7.8-0.7c0,0-0.1,0-0.1,0c-0.1,0.3-0.4,0.5-0.7,0.6l-10.7,1.9
		C152,124.4,151.9,124.4,151.9,124.4z M162.1,114.6c-0.9,0-2.2,0.6-2.7,1c0,0-5.2,3.9-6.5,5.1c-0.5,0.4-0.4,1.1-0.3,1.6l8-1.4
		c-0.2-0.3-0.3-0.7-0.1-1.1c0.2-0.4,0.7-0.6,1.1-0.5l0.7,0.2c0.8,0.2,1.5,0.4,2.2,0.7c3.2,1.4,6.1,0.7,6.5,0.6
		c0.1,0,0.1-0.1,0.2-0.1c0.4-0.6,0.3-1,0.3-1.1c-0.2-0.7-1.1-1.3-1.8-1.6l-1.1-0.5c-1.7-0.8-4.2-1.9-5.7-2.7
		C162.6,114.6,162.4,114.6,162.1,114.6z"/>
</g>
<g>
	<path class="st5" d="M187.8,123.4c-2.3,0-5-0.8-5.8-2.5c-0.5-0.9-2.1-2.8-3-3.7c0,0-0.1-0.1-0.1-0.1l-2.9-0.3
		c-0.1,0.5-0.2,1.2-0.3,1.5l-0.1,1.6l-0.1,1c-0.1,0.4-0.4,0.8-0.8,0.9l-1.8,0.3c-0.3,0.1-0.5,0-0.8-0.2c-0.2-0.2-0.4-0.4-0.4-0.7
		l-0.1-0.5c-0.3-1.7-1.5-3.1-3.1-3.6l-0.2-0.1c-2.6-0.7-3.9-2.1-4-2.2c-0.2-0.2-0.3-0.5-0.2-0.8l0.7-5.2c0.1-0.6,0.3-1.1,0.6-1.6
		c0.7-1.1,1.9-2.3,3.5-2.3c1.8,0,7.6,1,7.8,1c2.1,0.5,6.9,1.7,8,2.6c1.1,0.9,2.3,2.9,2.5,3.1c0.1,0.2,0.2,0.3,0.2,0.5c0,0,0,0,0,0
		c0,0,0.1,0.8,1.2,1.9c1.6,1.6,3.6,4.7,3.7,4.8c0.2,0.3,0.2,0.6,0.1,0.8c0,0.1-1.2,3.4-4.1,3.5C188,123.4,187.9,123.4,187.8,123.4z
		 M175.9,114.8C175.9,114.8,175.9,114.8,175.9,114.8l3.2,0.3c0.5,0,1,0.2,1.4,0.6c0.8,0.8,2.7,2.9,3.4,4.2c0.3,0.6,2.1,1.5,4.3,1.4
		c1.1,0,1.8-1.1,2.1-1.7c-0.6-0.9-2-3-3.1-4c-1.3-1.3-1.7-2.4-1.8-3c-0.4-0.6-1.3-1.9-2-2.5c-0.6-0.5-4.1-1.5-7.1-2.2
		c-1.6-0.3-6.1-1-7.4-1c-0.5,0-1.2,0.5-1.8,1.4c-0.1,0.2-0.2,0.5-0.3,0.7l-0.6,4.7c0.4,0.4,1.3,0.9,2.7,1.3l0.3,0.1
		c2.2,0.7,3.9,2.5,4.4,4.7l0.1,0l0-0.3l0.1-1.5c0-0.6,0.3-1.9,0.4-2.2c0-0.1,0.1-0.2,0.1-0.3C174.6,115.1,175.2,114.8,175.9,114.8z
		 M165.1,114.3L165.1,114.3L165.1,114.3z"/>
</g>
<g>
	<path class="st5" d="M174.9,120.9c-0.3,0-0.6-0.1-0.8-0.4c-0.3-0.4-0.3-1.1,0.2-1.4l4.4-3.5c0.4-0.3,1.1-0.3,1.4,0.2
		c0.3,0.4,0.3,1.1-0.2,1.4l-4.4,3.5C175.3,120.8,175.1,120.9,174.9,120.9z"/>
</g>
<g>
	<path class="st5" d="M204.2,125.3c-1.1,0-2.2-0.3-3.2-1.1c-1.9-1.6-4-2.8-4.6-3.1c-0.5-0.1-2.7-0.1-4.6-0.1c-0.3,0-0.6-0.2-0.8-0.4
		l-3.5-4.9l-2-2c-0.2-0.2-0.3-0.4-0.3-0.6l-0.1-1.3c0-0.3,0.1-0.6,0.4-0.8c0.7-0.6,3.1-0.7,4.3-0.4c0.9,0.2,6.6,1,8.8,1.4
		c0.5,0,3.7,0.3,5.7,2c1.8,1.6,5.7,3.9,5.8,3.9c0.1,0.1,0.2,0.1,0.2,0.2l1.5,1.8c0.3,0.4,0.3,0.9,0,1.2c-0.8,1.2-2.4,3.1-3.6,3.4
		c-0.1,0-0.3,0.1-0.5,0.2C206.9,124.8,205.6,125.3,204.2,125.3z M192.4,119c4.4,0.1,4.6,0.2,4.8,0.3c0.3,0.1,2.8,1.5,5.1,3.4
		c1.4,1.1,3.6,0.4,4.8,0c0.3-0.1,0.5-0.2,0.7-0.2c0.3-0.1,1.2-1,2-2l-0.9-1c-0.7-0.4-4.2-2.5-5.9-4c-1.6-1.4-4.5-1.5-4.5-1.5
		c0,0-0.1,0-0.1,0c-0.3,0-7.8-1.1-9-1.4c-0.6-0.1-1.5-0.1-2.1,0l0,0l1.8,1.8c0,0,0.1,0.1,0.1,0.1L192.4,119z M186.6,112.6
		L186.6,112.6L186.6,112.6z"/>
</g>
<g>
	<path class="st2" d="M186.3,113c0,0-2.1,1.6-2,2.4c0.1,1.3,3.5,5,3.5,5c0.3,0,2.9-0.1,3.5-0.9"/>
	<path class="st5" d="M187.8,121.4c-0.3,0-0.6-0.1-0.7-0.3c-1.1-1.2-3.6-4.2-3.8-5.6c-0.1-1.1,1.2-2.4,2.4-3.3
		c0.4-0.3,1.1-0.3,1.4,0.2c0.3,0.4,0.3,1.1-0.2,1.4c-0.7,0.5-1.4,1.3-1.6,1.6c0.2,0.6,1.5,2.4,2.9,4c0.9-0.1,2.1-0.3,2.3-0.5
		c0.4-0.4,1-0.5,1.4-0.1c0.4,0.4,0.5,1,0.1,1.4C191.1,121.4,187.8,121.4,187.8,121.4z M185.3,115.4L185.3,115.4L185.3,115.4z"/>
</g>
<g>
	<path class="st2" d="M171.4,118.1l-1.8,1.2c0,0-3.9-1.2-4.1-2.3c-0.2-0.8,2.1-1.1,2.1-1.1L171.4,118.1z"/>
	<path class="st5" d="M169.6,120.3c-0.1,0-0.2,0-0.3,0c-2-0.6-4.5-1.7-4.8-3c-0.1-0.4,0-0.8,0.2-1.1c0.6-0.8,2.1-1.1,2.7-1.1
		c0.2,0,0.4,0,0.6,0.1l3.8,2.1c0.3,0.2,0.5,0.5,0.5,0.8c0,0.3-0.1,0.7-0.4,0.9l-1.8,1.2C170,120.2,169.8,120.3,169.6,120.3z
		 M166.9,117.1c0.6,0.3,1.5,0.8,2.5,1.1l0,0l-2.1-1.2C167.2,117,167,117,166.9,117.1z M166.4,116.7L166.4,116.7z"/>
</g>
<g>
	<path class="st2" d="M205.4,116.2c0,0-1.7,0.4-1.8,0.9c-0.1,0.5,0.5,1.9,1.9,2.9c0.5,0.4,0.9,0.6,1.2,0.8c0.6,0.4,1.3,0.4,2,0.1
		l1.8-0.8"/>
	<path class="st5" d="M207.8,122.2c-0.6,0-1.1-0.2-1.6-0.5c-0.4-0.2-0.8-0.5-1.3-0.9c-1.5-1.1-2.5-2.9-2.3-3.9
		c0.1-0.3,0.3-1.1,2.5-1.6c0.5-0.1,1.1,0.2,1.2,0.7c0.1,0.5-0.2,1.1-0.7,1.2c-0.3,0.1-0.7,0.2-1,0.3c0.2,0.4,0.6,1.1,1.4,1.7
		c0.5,0.3,0.9,0.6,1.2,0.8c0.3,0.2,0.7,0.2,1,0.1l1.8-0.8c0.5-0.2,1.1,0,1.3,0.5c0.2,0.5,0,1.1-0.5,1.3l-1.8,0.8
		C208.7,122.1,208.3,122.2,207.8,122.2z"/>
</g>
<g>
	<path class="st5" d="M211.3,121c-0.1,0-0.3,0-0.4,0c-0.5-0.1-0.9-0.6-0.8-1.1s0.6-0.9,1.1-0.8c0.5,0.1,1.1-0.4,1.3-0.6
		c0-0.1,0.1-0.1,0.2-0.2c-0.1-0.2-0.3-0.4-0.5-0.6c-0.5-0.6-1.1-1-1.7-1.4l-3.1-1.5c-1-0.5-2-1-2.3-1c-0.9,0-2.6,0.1-3.5,0.4
		c-0.5,0.2-1.1-0.1-1.3-0.6c-0.2-0.5,0.1-1.1,0.6-1.3c1.4-0.5,3.7-0.5,4.1-0.5c0.9,0,2.6,0.9,3.3,1.3l3.1,1.4
		c0.9,0.4,1.8,1.1,2.4,1.9c1.1,1.3,1.3,1.9,1.3,2.3c0,0.5-0.2,0.9-0.6,1.2c-0.3,0.2-0.6,0.3-0.8,0.3
		C213.1,120.5,212.3,121,211.3,121z"/>
</g>
<g>
	<path class="st2" d="M208.1,114.2c0,0-1.2,0.5-0.8,0.9c0.4,0.5,1.2,1.3,2.2,2.1c0.8,0.6,1.8,0.9,2.8,0.8l0.8-0.1"/>
	<path class="st5" d="M211.8,119c-1.1,0-2.1-0.3-3-1c-1.1-0.8-2-1.7-2.4-2.3c-0.2-0.3-0.3-0.7-0.2-1.1c0.2-0.7,1-1.2,1.5-1.3
		c0.5-0.2,1.1,0,1.3,0.5c0.2,0.5,0,1-0.5,1.3c0.4,0.4,0.9,0.9,1.5,1.3c0.6,0.5,1.3,0.7,2.1,0.6l0.8-0.1c0.6-0.1,1,0.3,1.1,0.9
		c0.1,0.5-0.3,1-0.9,1.1l-0.8,0.1C212.1,119,212,119,211.8,119z"/>
</g>
<g>
	<path class="st1" d="M166.3,121.9c-0.7-0.2-1.4-0.2-2.2-0.1l-10.3,1.3c-1,0.1-2.2,0.5-2.4,1.4c-0.2,0.8,0.3,1.9,1.4,2
		c2.3,0.3,52.9-1.8,52.9-1.8s10.2,0.3,12.7,0.4s13.1,1.8,13.1,1.8s8.7,1.8,11.1,2c2.2,0.2,12.5-0.8,13.9-0.9c0.1,0,0.2,0,0.3-0.1
		l0,0c0.8-0.6,1.3-1.5,1.2-2.5c0-0.8-0.1-1.7-0.2-1.8c-0.3-0.4-1.9,0.4-2.1,0.4c-0.3,0-11.9,0.8-11.9,0.8l-2.3-0.4
		c0,0-1.3-0.1-3.1-0.2s-10.5-1.9-13.8-2.6c-2.3-0.5-8.1-0.8-9.4-0.9c-1.3-0.1-2.8-0.1-2.8-0.1l-1.5-0.1c0,0-1.8,5-8.5,3.4
		c-0.4-0.1-0.7-0.2-1-0.4l-4.3-2.9c-0.3-0.2-0.6-0.3-0.9-0.3c-0.8,0.1-2.5,0.1-4-0.2c-0.7-0.1-1.3,0.1-1.8,0.6c-0.7,0.9-2.3,2-5,1.5
		c-0.4-0.1-0.8-0.2-1.1-0.4l-1.9-1.1l-10.6,0.7C172,121.3,169.4,122.7,166.3,121.9z"/>
	<path class="st5" d="M243.6,130.1c-0.4,0-0.8,0-1,0c-2.4-0.3-10.8-2-11.1-2c-0.1,0-10.5-1.7-13-1.8c-2.5-0.1-12.6-0.4-12.7-0.4
		c-5.1,0.2-50.7,2-53,1.8c-0.7-0.1-1.4-0.5-1.8-1.1c-0.4-0.6-0.6-1.5-0.4-2.2c0.2-0.8,0.9-1.9,3.3-2.2l10.3-1.3
		c0.9-0.1,1.7-0.1,2.5,0.1l0,0c2.6,0.6,4.9-0.5,5-0.6c0.1-0.1,0.3-0.1,0.4-0.1l10.6-0.7c0.2,0,0.4,0,0.6,0.1l1.9,1.1
		c0.3,0.2,0.5,0.3,0.8,0.3c2.2,0.4,3.4-0.4,4-1.2c0.7-0.8,1.7-1.2,2.7-0.9c1.4,0.3,3.1,0.2,3.7,0.2c0.6,0,1.1,0.1,1.6,0.4l4.3,2.9
		c0.2,0.1,0.4,0.2,0.7,0.3c5.7,1.3,7.2-2.6,7.3-2.8c0.2-0.4,0.6-0.7,1-0.7l1.5,0.1c0,0,1.5,0,2.8,0.1c0.3,0,0.9,0.1,1.6,0.1
		c2.3,0.2,6.1,0.5,7.9,0.8l0.4,0.1c3.2,0.7,11.6,2.4,13.3,2.5c1.7,0.1,3,0.2,3.1,0.2c0,0,0.1,0,0.1,0l2.2,0.4
		c4.1-0.3,10.7-0.8,11.7-0.8c0.1,0,0.2-0.1,0.3-0.1c1-0.3,2.2-0.7,2.8,0.2c0.2,0.3,0.3,0.8,0.4,2.4c0,1.3-0.6,2.6-1.7,3.3
		c-0.2,0.2-0.5,0.3-0.8,0.3c-0.2,0-0.7,0.1-1.3,0.1C250.7,129.7,246,130.1,243.6,130.1z M209.4,123.9c3.2,0.1,7.6,0.2,9.1,0.3
		c2.5,0.1,12.8,1.8,13.2,1.8c0.1,0,8.7,1.8,11,2c1.8,0.2,9.5-0.5,12.4-0.8c0.6,0,1-0.1,1.2-0.1c0.5-0.4,0.8-1,0.7-1.6
		c0-0.4,0-0.6,0-0.8c-0.2,0.1-0.3,0.1-0.4,0.1c-0.4,0.1-0.6,0.2-0.8,0.2c-0.3,0-7.2,0.5-11.8,0.8c-0.1,0-0.2,0-0.3,0l-2.3-0.4
		c-0.3,0-1.5-0.1-3-0.2c-1.5-0.1-7.7-1.4-13.5-2.6l-0.4-0.1c-1.7-0.4-5.4-0.6-7.6-0.8c-0.7-0.1-1.3-0.1-1.6-0.1
		c-1.2-0.1-2.6-0.1-2.7-0.1l-0.9-0.1C211.2,122.1,210.5,123.1,209.4,123.9z M165,122.8c-0.2,0-0.4,0-0.7,0l-10.3,1.3
		c-0.9,0.1-1.5,0.4-1.6,0.7c0,0.1,0,0.4,0.1,0.5c0.1,0.1,0.2,0.2,0.4,0.2c1.5,0.2,27.7-0.8,47.7-1.6l-4-2.7
		c-0.1-0.1-0.2-0.1-0.3-0.1c-0.9,0.1-2.7,0.1-4.3-0.2c-0.3-0.1-0.6,0-0.8,0.3c-0.8,0.9-2.6,2.5-5.9,1.9c-0.5-0.1-1-0.3-1.4-0.5
		l-1.6-1l-10.1,0.7c-0.7,0.3-3.2,1.3-6.1,0.6C165.7,122.8,165.4,122.8,165,122.8z"/>
</g>
<g>
	<path class="st7" d="M241.9,123.5c-0.1-0.5-0.3-5-0.3-5l3.3,0.1c0,0,6.7-0.1,6.9-0.3c0.3-0.1,5.5-0.8,5.5-0.8l0.3,4.6
		c0.1,0.9-0.6,1.7-1.5,1.8l-10.8,1c-0.8,0.1-2.7,0-3.3-0.6L241.9,123.5z"/>
	<path class="st5" d="M244.6,126c-1,0-2.6-0.1-3.4-1c-0.1-0.1-0.2-0.3-0.2-0.5l-0.1-0.9c-0.1-0.7-0.2-3.5-0.3-5.2
		c0-0.3,0.1-0.5,0.3-0.7c0.2-0.2,0.5-0.3,0.7-0.3l3.3,0.1c2.9-0.1,6.1-0.2,6.6-0.2c0.4-0.1,1.5-0.3,5.7-0.8c0.3,0,0.5,0,0.8,0.2
		s0.3,0.4,0.4,0.7l0.3,4.6c0.1,1.5-1,2.7-2.4,2.9l-10.8,1C245.3,126,245,126,244.6,126z M242.9,123.8c0.4,0.2,1.4,0.3,2.2,0.2
		l10.8-1c0.4,0,0.6-0.4,0.6-0.7l-0.2-3.6c-2,0.2-3.9,0.5-4.3,0.6c-0.3,0.1-1.3,0.2-7.2,0.3l-2.3-0.1c0.1,1.8,0.1,3.5,0.2,3.8
		c0,0,0,0.1,0,0.1L242.9,123.8z"/>
</g>
<g>
	<g>
		<path class="st3" d="M259.4,104.9l-0.3-0.3l0.4,1.6c0,0.1,0.1,0.5,0.1,1l-0.3-1l-0.1,0.3c0,0-0.1,0.3-0.4,0.7l0-1.4l-0.2,0
			c0,1.1-3.2,2.3-4.5,2.7c-0.4,0-7.2,0.1-11.1,0.1c-1.1,0-2.1,0.4-2.8,1.1c-1.3,1.4-1.3,3.5-1.3,3.6l0.1,1.1c0,0.1,0,0.2,0.1,0.2
			c0,0,0,0,0.1,0c0,0,0.1,0,0.1,0c-0.2,0.5-0.2,0.8-0.2,0.8l0,0.1l1.3,1.5l0,0l0.1,0l0.2,0.2l0-0.1c0.6,0.2,2.5,0.9,6.1,0.9
			c0.2,0,0.5,0,0.7,0c4.8-0.1,8.4-0.3,8.5-0.3c0.1,0,5.5-1.3,5.6-7C261.6,106.9,259.4,104.9,259.4,104.9z M250.7,111.5
			c0,0-0.1,0-0.2,0c0.7,0,1.4,0,2.1-0.1C251.5,111.5,250.7,111.5,250.7,111.5z M243.3,114.8c-0.6,0.2-1.2,0.4-1.6,0.7
			C242.1,115.2,242.7,115,243.3,114.8z"/>
	</g>
	<g>
		<path class="st5" d="M247.2,118.9c-2.4,0-3.6-0.1-3.7-0.1h0c-1.6,0-4.9-0.9-5.3-4.4c0-0.3-0.5-3.4,1.2-5.3c0.9-1,2.1-1.5,3.7-1.5
			c6.4,0.1,11.1-0.3,11.2-0.3c0.4,0,3.5-0.3,3.4-3.1c0-0.4,0.2-0.7,0.5-0.9c0.3-0.2,0.7-0.2,1,0c0.1,0.1,3.3,2.2,3.4,6.2
			c0.1,4.4-2.4,9-7.6,9.1C251.6,118.9,249,118.9,247.2,118.9z M243,109.8c-0.9,0-1.6,0.3-2,0.8c-0.9,1-0.8,3-0.7,3.7c0,0,0,0,0,0
			c0.3,2.6,3.2,2.6,3.4,2.6c0.1,0,3.7,0.2,11.3-0.1c4-0.1,5.7-3.8,5.6-7.1c0-1.5-0.6-2.7-1.2-3.4c-0.9,2.3-3.4,3.1-4.9,3.1
			C254.4,109.4,249.5,109.9,243,109.8C243,109.8,243,109.8,243,109.8z"/>
	</g>
</g>
</svg>
