<?xml version="1.0" encoding="utf-8"?>
<!-- Generator: Adobe Illustrator 25.2.1, SVG Export Plug-In . SVG Version: 6.00 Build 0)  -->
<svg version="1.1" id="Lager_1" xmlns="http://www.w3.org/2000/svg" xmlns:xlink="http://www.w3.org/1999/xlink" x="0px" y="0px"
	 viewBox="0 0 485 235" style="enable-background:new 0 0 485 235;" xml:space="preserve">
<style type="text/css">
	.st0{fill:#CAE3CD;}
	.st1{fill:#FFFFFF;}
	.st2{fill:#434345;}
	.st3{fill:#116A3E;}
	.st4{fill:#5F9E6C;}
</style>
<g>
	<path class="st0" d="M473,215H12c-6.6,0-12-5.4-12-12V32c0-6.6,5.4-12,12-12h461c6.6,0,12,5.4,12,12v171
		C485,209.6,479.6,215,473,215z"/>
</g>
<g>
	<path class="st1" d="M188.3,31.8c-1,1-1.3,2.6-0.8,3.9c0.4,1,0.8,2.8,0.8,6c0,1.4,7.1-3,7.1,2.8v74.6c0,2,1.6,3.6,3.6,3.6
		l120.2,39.9c1.9,0,5-42.8,5-44.8V44.5c0-2,1.6-3.6,3.6-3.6l0,0c2,0,3.6-1.6,3.6-3.6v-2.2c0-0.9-0.3-1.7-0.9-2.3l-16.5-19.1
		c-0.7-0.8-1.7-1.2-2.7-1.2l-103.6,1.4c-0.9,0-1.8,0.4-2.5,1L188.3,31.8z"/>
	<path class="st1" d="M319.1,163.2l-0.1,0L199,123.4c-1.1,0-2.1-0.4-2.9-1.2c-0.8-0.8-1.3-1.9-1.3-3V44.5c0-1-0.2-1.7-0.7-2.1
		c-0.9-0.7-2.6-0.3-3.8-0.1c-1.1,0.2-1.8,0.4-2.3,0c-0.2-0.2-0.3-0.4-0.3-0.7c0-2.6-0.3-4.5-0.8-5.7c-0.7-1.6-0.3-3.4,0.9-4.6
		l16.8-16.8c0.8-0.8,1.8-1.2,2.9-1.2l103.6-1.4c0,0,0,0,0.1,0c1.2,0,2.4,0.5,3.2,1.5L331,32.4c0.7,0.8,1,1.8,1,2.8v2.2
		c0,2.3-1.9,4.2-4.2,4.2c-1.6,0-2.9,1.3-2.9,2.9v73.3c0,1.1-0.8,12.5-1.8,23.2c-2,22.3-3,22.3-3.9,22.3L319.1,163.2z M199.2,122
		l0.1,0L319,161.8c1.7-3.9,4.5-40.4,4.5-44V44.5c0-2.3,1.9-4.2,4.2-4.2c1.6,0,2.9-1.3,2.9-2.9v-2.2c0-0.7-0.3-1.4-0.7-1.9
		l-16.5-19.1c-0.6-0.6-1.4-1-2.2-1l-103.6,1.4c-0.8,0-1.5,0.3-2,0.8l-16.8,16.8c-0.8,0.8-1.1,2.1-0.6,3.1c0.6,1.3,0.9,3.3,0.9,5.9
		c0.3,0,0.7-0.1,1-0.2c1.5-0.3,3.6-0.8,4.9,0.3c0.8,0.6,1.2,1.7,1.2,3.1v74.6c0,0.8,0.3,1.5,0.9,2c0.6,0.5,1.3,0.8,2.1,0.8
		L199.2,122z"/>
</g>
<g>
	<g>
		
			<rect x="225.9" y="80.8" transform="matrix(3.580706e-03 -1 1 3.580706e-03 203.0969 368.9717)" class="st2" width="121.6" height="3.6"/>
	</g>
</g>
<g>
	<g>
		<path class="st2" d="M323.4,130.9c-1,0-1.8-0.8-1.8-1.8V41.8c0-1,0.8-1.8,1.8-1.8s1.8,0.8,1.8,1.8v87.4
			C325.2,130.1,324.4,130.9,323.4,130.9z"/>
	</g>
</g>
<g>
	<g>
		<path class="st2" d="M195.4,122.4c-1,0-1.8-0.8-1.8-1.8V41.8c0-1,0.8-1.8,1.8-1.8s1.8,0.8,1.8,1.8v78.8
			C197.2,121.6,196.4,122.4,195.4,122.4z"/>
	</g>
</g>
<g>
	<g>
		<g>
			<path class="st2" d="M323.4,42.6c-1,0-1.8-0.8-1.8-1.8v-2.9c-1.5-1.8-8-9.1-12.4-14c-8.5-0.2-91.7-0.2-100.3,0
				c-4.3,4.8-10.9,12.2-12.4,14v2.9c0,1-0.8,1.8-1.8,1.8s-1.8-0.8-1.8-1.8v-3.5c0-0.9,0-1,13.8-16.4c0.7-0.7,0.7-0.7,17.3-0.7
				c19.1-0.1,50.9-0.1,70,0c16.7,0.1,16.7,0.1,17.3,0.7c13.9,15.5,13.9,15.6,13.9,16.5v3.5C325.2,41.8,324.4,42.6,323.4,42.6z"/>
		</g>
	</g>
	<g>
		<g>
			<path class="st2" d="M329.6,42.3h-5.6c-1,0-1.8-0.8-1.8-1.8s0.8-1.8,1.8-1.8h5v-4.5c-1.9-2.2-11.2-12.2-17.3-18.7
				c-4-0.1-26,0-40.8,0c-23.8-0.1-59.2-0.1-64.5,0c-6.1,6.5-15.4,16.5-17.3,18.7v4.5h5c1,0,1.8,0.8,1.8,1.8s-0.8,1.8-1.8,1.8h-5.6
				c-1.7,0-3.1-1.4-3.1-3.1v-5.7c0-1,0-1.1,18.8-21.1c0.8-0.7,0.8-0.7,34-0.7c16.3,0,32.6,0.1,32.6,0.1c42.1-0.2,42.1-0.2,42.9,0.5
				c18.9,20.1,18.9,20.2,18.9,21.2v5.7C332.7,41,331.3,42.3,329.6,42.3z"/>
		</g>
	</g>
</g>
<g>
	<g>
		<g>
			<path class="st3" d="M224.2,88.1h9.6V81h-9.6V88.1z"/>
		</g>
	</g>
	<g>
		<rect x="263.2" y="79.8" class="st4" width="12.5" height="10"/>
	</g>
</g>
<g>
	<g>
		<rect x="200.4" y="96.4" class="st4" width="12.5" height="10"/>
	</g>
</g>
<g>
	<g>
		<rect x="267.6" y="113.1" class="st2" width="12.5" height="10"/>
		<path class="st2" d="M280.1,123.8h-12.5c-0.4,0-0.7-0.3-0.7-0.7v-10c0-0.4,0.3-0.7,0.7-0.7h12.5c0.4,0,0.7,0.3,0.7,0.7v10
			C280.8,123.5,280.5,123.8,280.1,123.8z M268.3,122.4h11.1v-8.6h-11.1V122.4z"/>
	</g>
</g>
<g>
	<g>
		<g>
			<path class="st3" d="M246.6,54.6h9.6v-7.1h-9.6V54.6z"/>
		</g>
	</g>
	<g>
		<rect x="200.4" y="46.1" class="st4" width="12.5" height="10"/>
	</g>
</g>
<g>
	<rect x="297.8" y="49" class="st4" width="8.7" height="6.2"/>
</g>
<g>
	<rect x="297.8" y="85.4" class="st2" width="8.7" height="6.2"/>
	<path class="st2" d="M307.2,92.3h-10.1v-7.6h10.1V92.3z M298.5,91h7.4v-4.9h-7.4V91z"/>
</g>
<g>
	<path class="st1" d="M317.9,155.3l-65.1-23.7l-41.2-13.9l-92,29.7l1.2,23.3c0,0,36.7,16.2,43.9,18.2c7.2,1.9,40.9,18.2,40.9,18.2
		s56.5,23,57.9,22c1.4-1,42.2-17.2,42.2-17.2l16.4-4.8L317.9,155.3z"/>
</g>
<g>
	<g>
		<path class="st2" d="M263,229.7C263,229.7,263,229.7,263,229.7c-1,0-1.8-0.8-1.8-1.9l0.5-25.9l-61.2-21.2
			c-0.9-0.3-1.4-1.4-1.1-2.3c0.3-0.9,1.4-1.4,2.3-1.1l62.5,21.6c0.7,0.3,1.2,1,1.2,1.8l-0.6,27.2C264.8,228.9,264,229.7,263,229.7z"
			/>
	</g>
</g>
<g>
	<g>
		<path class="st2" d="M263.7,201.8c-0.6,0-1.2-0.3-1.5-0.8c-0.6-0.8-0.3-2,0.5-2.5c1.4-0.9,54.3-21.4,81.7-32L272.9,142l-62.3-22.1
			l-84.4,25.3l41.1,17.3c0.9,0.4,1.4,1.5,1,2.4c-0.4,0.9-1.4,1.4-2.4,1l-45.8-19.2c-0.7-0.3-1.2-1-1.1-1.8s0.6-1.4,1.3-1.6
			l89.8-26.9c0.4-0.1,0.8-0.1,1.1,0l62.8,22.3l76.2,26.1c0.7,0.2,1.2,0.9,1.2,1.7c0,0.8-0.5,1.5-1.2,1.7
			c-33.2,12.8-83.3,32.2-85.7,33.5C264.4,201.8,264.1,201.8,263.7,201.8z"/>
	</g>
</g>
<g>
	<g>
		<path class="st2" d="M263,230.7c-0.2,0-0.5,0-0.7-0.1L210,209.6c-3.4-1.4-83.8-33.6-90.7-37.7c-0.6-0.3-0.9-0.9-0.9-1.6l0.3-25
			c0-1,0.8-1.8,1.8-1.8c0,0,0,0,0,0c1,0,1.8,0.8,1.8,1.8l-0.3,23.9c8.9,4.5,61.6,25.9,89.3,37l51.6,20.6l84.1-32.3v-28.9
			c0-1,0.8-1.8,1.8-1.8s1.8,0.8,1.8,1.8v30.2c0,0.8-0.5,1.4-1.2,1.7l-86,33C263.5,230.6,263.2,230.7,263,230.7z"/>
	</g>
</g>
<g>
	<g>
		<path class="st4" d="M253,133.1l-86.6,30.2l-0.5,27l36.6,14.8l-0.3-26.3l89.2-33.5l-34.6-12.2C255.6,132.6,254.3,132.6,253,133.1z
			"/>
	</g>
	<g>
		<path class="st2" d="M202.5,206.9c-0.2,0-0.5,0-0.7-0.1L165.2,192c-0.7-0.3-1.1-1-1.1-1.7l0.5-27c0-0.8,0.5-1.4,1.2-1.7l86.6-30.2
			l0,0c1.6-0.6,3.4-0.6,5,0l34.6,12.2c0.7,0.3,1.2,0.9,1.2,1.7s-0.5,1.4-1.2,1.7l-88,33.1l0.2,25c0,0.6-0.3,1.2-0.8,1.5
			C203.2,206.8,202.8,206.9,202.5,206.9z M167.7,189.1l32.9,13.3l-0.2-23.5c0-0.8,0.5-1.4,1.2-1.7l84.5-31.8l-29.9-10.6
			c-0.8-0.3-1.8-0.3-2.6,0l-85.5,29.8L167.7,189.1z"/>
	</g>
</g>
<g>
	<g>
		<path class="st1" d="M379.5,128.4c0,2-13.3,3.7-29.8,3.7c-16.4,0-29.8-1.7-29.8-3.7c0-0.7,1.4-1.3,4-1.8
			c5.1-1.1,14.8-1.9,25.8-1.9C366.1,124.7,379.5,126.4,379.5,128.4z"/>
	</g>
	<g>
		<path class="st1" d="M318.5,127.6l1.1,14.1l-4.5,3.5l-0.3,9.3l2.3,3.9l-3.2,3.5l0.3,11.3l-12.2,3.5l0.3,15.1l13.5,1.6l0.3,13.5
			c0,0,16.1,5.8,38.6,3.9c22.5-1.9,23.5-7.7,23.5-7.7v-9c0,0-1.9-5.2-15.5-5.5l-0.3-10.3c0,0,0.6-2.3,4.5-2.3c3.9,0,9.3-2.3,9.3-2.3
			l-0.3-11.3l-6.1-3.5l6.8-2.6l0.6-12.2l-6.4-1.3l9.3-3.5l-0.7-8.7c-0.2-2.3-12.7-7.1-35.2-6.4L318.5,127.6z"/>
	</g>
	<g>
		<g>
			<g>
				<path class="st2" d="M348.2,133.8c-8,0-15.5-0.4-21.2-1.2c-8.3-1.1-10-2.5-10-4.3c0-1.8,1.7-3.2,10-4.3
					c5.7-0.8,13.2-1.2,21.2-1.2c8,0,16,0.4,21.9,1.1c8.9,1.1,10.7,2.4,10.7,4.3c0,1.8-1.8,3.2-10.7,4.4
					C364.1,133.4,356.1,133.8,348.2,133.8z M320.8,128.3c3.2,1.2,13.1,2.5,27.3,2.5c14,0,24.8-1.3,28.5-2.5
					c-3.6-1.1-14-2.4-28.5-2.4C333.9,125.8,324.1,127.1,320.8,128.3z M377.9,128.8L377.9,128.8L377.9,128.8z"/>
			</g>
		</g>
		<g>
			<g>
				<path class="st2" d="M345,151.3c-8,0-15.5-0.4-21.2-1.2c-8.3-1.1-10-2.5-10-4.3c0-1.6,1.2-3.8,11.7-4.5c0.8-0.1,1.6,0.6,1.6,1.4
					c0.1,0.8-0.6,1.6-1.4,1.6c-4.8,0.4-7.1,1-8.2,1.4c3.1,1.2,13,2.5,27.5,2.5c13.5,0,24-1.2,28.1-2.3c-1.9-0.4-4.6-0.8-6.9-1.1
					l-0.2,0c-0.8-0.1-1.4-0.9-1.3-1.7c0.1-0.8,0.9-1.4,1.7-1.3l0.2,0c7.6,1,11.1,1.5,11.1,3.9c0,1.8-1.8,3.2-10.8,4.3
					C360.9,150.9,352.9,151.3,345,151.3z M375,146.5L375,146.5L375,146.5z"/>
			</g>
		</g>
		<g>
			<g>
				<path class="st2" d="M344.6,167.5c-8,0-15.5-0.4-21.2-1c-8.4-1-10-2.2-10-4c0-3.3,9.3-3.9,9.4-3.9c0.8-0.1,1.6,0.6,1.6,1.4
					c0.1,0.8-0.6,1.6-1.4,1.6c-2.2,0.1-3.9,0.5-5.1,0.9c3.8,1,13.3,2,26.8,2c13.2,0,23-1,27.5-1.9c-1.4-0.3-3.4-0.6-6.6-1
					c-0.8-0.1-1.4-0.8-1.3-1.7c0.1-0.8,0.9-1.4,1.7-1.3c9.9,1.1,11.5,2.1,11.5,3.9c0,1.8-1.8,3-10.8,4
					C360.5,167.1,352.5,167.5,344.6,167.5z M374.5,163.3L374.5,163.3L374.5,163.3z"/>
			</g>
		</g>
		<g>
			<g>
				<path class="st2" d="M332.3,183.1c-8,0-15.5-0.4-21.2-1c-8.4-1-10-2.2-10-4c0-1.6,1-3.2,13.5-4.3c0.8-0.1,1.6,0.5,1.6,1.4
					c0.1,0.8-0.5,1.6-1.4,1.6c-4.9,0.4-7.6,0.9-9.2,1.3c3.9,1,13.4,1.9,26.6,1.9c16,0,26.5-1.4,28.3-2.5c0.2-0.5,0.8-0.9,1.4-0.9
					c0.8,0,1.5,0.7,1.5,1.5c0,1.8-1.6,3-10,4C347.8,182.7,340.3,183.1,332.3,183.1z"/>
			</g>
		</g>
		<g>
			<g>
				<path class="st2" d="M347.6,200.1c-13,0-25.8-0.3-31.1-2.5c-0.8-0.3-1.1-1.2-0.8-2c0.3-0.8,1.2-1.1,2-0.8c5.5,2.3,22,2.3,30,2.3
					c14.8,0,25-1.6,27.7-3c-1.3-0.6-5-1.7-12.9-2.4c-0.8-0.1-1.4-0.8-1.4-1.6c0.1-0.8,0.8-1.5,1.6-1.4c16.1,1.4,16.1,4.2,16.1,5.4
					c0,1.6-1.2,3.3-10,4.7C363.1,199.6,355.6,200.1,347.6,200.1z M375.9,194.5L375.9,194.5L375.9,194.5z"/>
			</g>
		</g>
		<g>
			<g>
				<path class="st2" d="M347.4,145.7c-14.8,0-27.8-1.7-30.1-4c-0.5-0.5-0.8-0.8-0.6-12.9c0-0.8,0.7-1.5,1.5-1.5c0,0,0,0,0,0
					c0.8,0,1.5,0.7,1.5,1.5c-0.1,4.4-0.1,9.3,0,10.9c2,1,11.5,3,27.6,3c16.1,0,28.4-2.3,30.5-3.6v-10.7c0-0.8,0.7-1.5,1.5-1.5
					s1.5,0.7,1.5,1.5v11.1c0,1.4-0.9,3.1-11.2,4.7C363.4,145.1,355.2,145.7,347.4,145.7z M319.9,140.1L319.9,140.1L319.9,140.1z"/>
			</g>
		</g>
		<g>
			<g>
				<path class="st2" d="M344.6,162.9c-14.7,0-28-1.8-30.4-4.1c-0.5-0.5-0.8-0.8-0.6-12.3c0-0.8,0.7-1.5,1.5-1.5c0,0,0,0,0,0
					c0.8,0,1.5,0.7,1.5,1.5c-0.1,4.1-0.1,8.8,0,10.3c2,1,11.6,3,27.9,3c15.8,0,28-2.3,30.1-3.6v-10.7c0-0.8,0.7-1.5,1.5-1.5
					s1.5,0.7,1.5,1.5v11.1c0,1.4-0.8,3.1-10.9,4.7C360.4,162.3,352.4,162.9,344.6,162.9z M316.8,157.2L316.8,157.2L316.8,157.2z"/>
			</g>
		</g>
		<g>
			<g>
				<path class="st2" d="M344,179.9c-14.5,0-27.8-1.9-30.2-4.3c-0.5-0.5-0.8-0.8-0.6-12.3c0-0.8,0.7-1.5,1.5-1.5c0,0,0,0,0,0
					c0.8,0,1.5,0.7,1.5,1.5c-0.1,4.2-0.1,8.8,0,10.3c2.1,1.1,11.8,3.2,27.8,3.2c15.8,0,28-2.3,30.1-3.6v-10.7c0-0.8,0.7-1.5,1.5-1.5
					c0.8,0,1.5,0.7,1.5,1.5v11.1c0,1.4-0.8,3.1-10.9,4.7C359.8,179.3,351.8,179.9,344,179.9z M316.3,174.1L316.3,174.1L316.3,174.1z
					"/>
			</g>
		</g>
		<g>
			<g>
				<path class="st2" d="M330,196.2c-10.1,0-18.2-1-23.2-1.7c-1.1-0.1-2.1-0.3-2.9-0.4c-1.6-0.2-2.8-1.6-2.8-3.4v-12.6
					c0-0.8,0.7-1.5,1.5-1.5s1.5,0.7,1.5,1.5v12.6c0,0.2,0.1,0.4,0.2,0.4c0.8,0.1,1.8,0.2,2.9,0.3c9.4,1.2,28.9,3.7,53-1.6l0.4-0.1
					c0.5-0.1,0.9-0.6,0.9-1.1v-10.5c0-0.8,0.7-1.5,1.5-1.5s1.5,0.7,1.5,1.5v10.5c0,1.9-1.3,3.6-3.1,4l-0.5,0.1
					C349.3,195.4,338.8,196.2,330,196.2z"/>
			</g>
		</g>
		<g>
			<g>
				<path class="st2" d="M345,213.5c-10.9,0-21.7-1.1-27.2-3.2c-1.6-0.6-2.6-2.2-2.6-4.2v-10.7c0-0.8,0.7-1.5,1.5-1.5
					s1.5,0.7,1.5,1.5v10.7c0,0.6,0.3,1.2,0.6,1.4c12.4,4.7,48,3.8,56.1-1.4c0.7-0.5,1.2-1,1.2-1.3l0-10.8c0-0.8,0.7-1.5,1.5-1.5
					s1.5,0.7,1.5,1.5v10.9c-0.1,1.5-1,2.7-2.6,3.8C371.4,211.9,358,213.5,345,213.5z"/>
			</g>
		</g>
	</g>
	<g>
		<g>
			<g>
				<path class="st2" d="M342,142.1c-0.7,0-1.2-0.5-1.2-1.2v-5.4c0-0.7,0.5-1.2,1.2-1.2s1.2,0.5,1.2,1.2v5.4
					C343.2,141.5,342.6,142.1,342,142.1z"/>
			</g>
		</g>
		<g>
			<g>
				<path class="st2" d="M337.2,141.8c-0.7,0-1.2-0.5-1.2-1.2v-5.4c0-0.7,0.5-1.2,1.2-1.2s1.2,0.5,1.2,1.2v5.4
					C338.4,141.3,337.8,141.8,337.2,141.8z"/>
			</g>
		</g>
		<g>
			<g>
				<path class="st2" d="M332.3,141.4c-0.7,0-1.2-0.5-1.2-1.2v-5.4c0-0.7,0.5-1.2,1.2-1.2s1.2,0.5,1.2,1.2v5.4
					C333.5,140.8,332.9,141.4,332.3,141.4z"/>
			</g>
		</g>
		<g>
			<g>
				<path class="st2" d="M362.8,158.4c-0.6,0-1.1-0.5-1.1-1.1v-5.4c0-0.6,0.5-1.1,1.1-1.1s1.1,0.5,1.1,1.1v5.4
					C363.9,157.9,363.4,158.4,362.8,158.4z"/>
			</g>
		</g>
		<g>
			<g>
				<path class="st2" d="M367.5,157.9c-0.6,0-1.1-0.5-1.1-1.1v-5.4c0-0.6,0.5-1.1,1.1-1.1s1.1,0.5,1.1,1.1v5.4
					C368.6,157.4,368.1,157.9,367.5,157.9z"/>
			</g>
		</g>
		<g>
			<g>
				<path class="st2" d="M372,157.1c-0.6,0-1.1-0.5-1.1-1.1v-5.4c0-0.6,0.5-1.1,1.1-1.1c0.6,0,1.1,0.5,1.1,1.1v5.4
					C373.1,156.6,372.6,157.1,372,157.1z"/>
			</g>
		</g>
		<g>
			<g>
				<path class="st2" d="M324.3,174.9c-0.6,0-1.1-0.5-1.1-1.1v-5.4c0-0.6,0.5-1.1,1.1-1.1c0.6,0,1.1,0.5,1.1,1.1v5.4
					C325.4,174.4,324.9,174.9,324.3,174.9z"/>
			</g>
		</g>
		<g>
			<g>
				<path class="st2" d="M329.7,175.4c-0.6,0-1.1-0.5-1.1-1.1v-5.4c0-0.6,0.5-1.1,1.1-1.1c0.6,0,1.1,0.5,1.1,1.1v5.4
					C330.8,174.9,330.3,175.4,329.7,175.4z"/>
			</g>
		</g>
		<g>
			<g>
				<path class="st2" d="M334.9,175.8c-0.6,0-1.1-0.5-1.1-1.1v-5.4c0-0.6,0.5-1.1,1.1-1.1s1.1,0.5,1.1,1.1v5.4
					C336,175.3,335.5,175.8,334.9,175.8z"/>
			</g>
		</g>
		<g>
			<g>
				<path class="st2" d="M311.4,190.7c-0.7,0-1.2-0.5-1.2-1.2v-5.4c0-0.7,0.5-1.2,1.2-1.2s1.2,0.5,1.2,1.2v5.4
					C312.6,190.2,312.1,190.7,311.4,190.7z"/>
			</g>
		</g>
		<g>
			<g>
				<path class="st2" d="M316.9,191.2c-0.7,0-1.2-0.5-1.2-1.2v-5.4c0-0.7,0.5-1.2,1.2-1.2c0.7,0,1.2,0.5,1.2,1.2v5.4
					C318.1,190.7,317.6,191.2,316.9,191.2z"/>
			</g>
		</g>
		<g>
			<g>
				<path class="st2" d="M322.4,191.6c-0.7,0-1.2-0.5-1.2-1.2V185c0-0.7,0.5-1.2,1.2-1.2s1.2,0.5,1.2,1.2v5.4
					C323.6,191.1,323.1,191.6,322.4,191.6z"/>
			</g>
		</g>
		<g>
			<g>
				<path class="st2" d="M322.2,207.8c-0.7,0-1.2-0.5-1.2-1.2v-5.4c0-0.7,0.5-1.2,1.2-1.2s1.2,0.5,1.2,1.2v5.4
					C323.4,207.3,322.9,207.8,322.2,207.8z"/>
			</g>
		</g>
		<g>
			<g>
				<path class="st2" d="M327.4,208.6c-0.7,0-1.2-0.5-1.2-1.2V202c0-0.7,0.5-1.2,1.2-1.2s1.2,0.5,1.2,1.2v5.4
					C328.6,208,328.1,208.6,327.4,208.6z"/>
			</g>
		</g>
		<g>
			<g>
				<path class="st2" d="M332.4,209.1c-0.7,0-1.2-0.5-1.2-1.2v-5.4c0-0.7,0.5-1.2,1.2-1.2c0.7,0,1.2,0.5,1.2,1.2v5.4
					C333.6,208.6,333,209.1,332.4,209.1z"/>
			</g>
		</g>
	</g>
</g>
</svg>
