<svg xmlns="http://www.w3.org/2000/svg" viewBox="0 0 485 236"><defs><style>.cls-1,.cls-12,.cls-4{fill:#fff;}.cls-10,.cls-2,.cls-8{fill:#a6d0ab;}.cls-2{opacity:0.6;}.cls-3,.cls-9{fill:#116a3e;}.cls-12,.cls-4{stroke:#fff;stroke-miterlimit:10;}.cls-4{stroke-width:1.22px;}.cls-11,.cls-5{fill:#5f9e6c;}.cls-6{opacity:0.16;}.cls-7{fill:#434345;}.cls-9{stroke:#116a3e;}.cls-10,.cls-11,.cls-13,.cls-14,.cls-9{stroke-linecap:round;}.cls-10,.cls-11,.cls-13,.cls-14,.cls-15,.cls-9{stroke-linejoin:round;}.cls-10,.cls-11,.cls-9{stroke-width:0.52px;}.cls-10{stroke:#a6d0ab;}.cls-11{stroke:#5f9e6c;}.cls-12{stroke-width:0.85px;}.cls-13,.cls-14,.cls-15{stroke:#434345;}.cls-13{stroke-width:2.07px;}.cls-14,.cls-17{fill:none;}.cls-14,.cls-15{stroke-width:2.54px;}.cls-16{fill:#cae3cd;}</style></defs><title>Banner flaggor gro?na</title><g id="BG"><rect class="cls-1" y="20.5" width="485" height="195" rx="12"/><rect class="cls-2" y="20.5" width="485" height="195" rx="12"/></g><g id="Flags"><polygon class="cls-3" points="271.2 63 258.9 61 244.6 64.1 244.8 14.9 270.6 20.6 271.2 63"/><polygon class="cls-4" points="297.5 70.5 284.7 66.3 270.3 61 271.2 19.7 282.8 21.2 297.8 20.6 297.5 70.5"/><polygon class="cls-5" points="321.1 78.8 312.2 76.3 297.8 70.8 298.1 21.6 310.4 22.8 323.5 29.2 323 43.6 317.1 56.1 322.3 63.8 321.1 78.8"/><g class="cls-6"><path d="M323.3,63h-.1c-.4-.2-32.2-16.6-38-19.2L275.9,39l-.2.7.2.2c.9,1.2,9.5,12.4,19.4,16.9s28.1,12.5,28.3,12.6l.4.2Z"/><path d="M324.3,46.1c-3.7.3-7.1-2.9-10.3-4.2s-7.3-2.1-10.9-3.5a22.8,22.8,0,0,1-9.6-6.5c-2.6-3.2-5.9-8.3-10-9.3-2.4-.7-5.3-.5-7.7-.8s-6.1-1-9.2-1.2c.6,2.9,5.7,6.3,7.5,8.3,3.5,3.8,6.8,7.5,11.5,9.9a77.5,77.5,0,0,0,9.4,3.9c3.2,1.2,6.3,2.9,9.6,4s9.1,3.5,13.6,4.8c2.2.5,2.5.6,3.7-1.2s2.2-3,2.2-4.7"/><path d="M246.2,14.7a12.9,12.9,0,0,0,3.6,8.9c1.2,1.3,2.4,2.7,3.7,4s3.2,2.3,4.2,3.9c-3.2,1.3-6.3-5.1-9.8-4.8-1.6,4.6,2.4,8.9,4.4,12.6a46.6,46.6,0,0,0,2.5,5,7.4,7.4,0,0,1,1.6,2.7c-1.9-.6-8.2-10.4-9.6-5.2-.8,3,.3,6.6,1.5,9.5s2.5,6.3,4,8.6c-.2-.4-7.3,3.2-7.5,2.7l.4-48.6Z"/><path d="M245.7,60.3A26.9,26.9,0,0,1,264,55.7c3.8.4,7,1.7,10.6,3s5.7,1.1,8.4,2.2,4.1,2.2,6.4,2.7,3.6.4,5.4.8l4.2,1.4c2.5.7,5.1,1.1,7.5,1.9s7,.8,10.4,1.8,6.4,1.6,7.2,4.2-1,4.9-1.8,6.2S274.6,60.7,265,60.7l-19.9,5Z"/></g><path class="cls-7" d="M321.5,81h-.4c-.4-.2-31.7-12.6-48.1-17.2a38.2,38.2,0,0,0-28.3,3.2,1.5,1.5,0,0,1-1.3,0,1.3,1.3,0,0,1-.6-1.1l.3-52.1a1.8,1.8,0,0,1,1-1.6,1.9,1.9,0,0,1,1.9.2c6.6,5.2,33,8.9,47.9,7.8a51.2,51.2,0,0,1,30.4,8,1.1,1.1,0,0,1,.6,1V42.7c.1.6-.1,3.9-4.3,10.7-2.3,3.7-1.8,4-.5,5a8.5,8.5,0,0,1,3.7,6.2,52.4,52.4,0,0,1-.9,15.4,1.8,1.8,0,0,1-.7.8ZM262.7,59.7a40.6,40.6,0,0,1,11,1.6c14.5,4.1,40.5,14.2,46.9,16.7a49.8,49.8,0,0,0,.6-13.1,5.5,5.5,0,0,0-2.7-4.4c-2.5-1.9-3.2-3.7-.2-8.4,4-6.4,4-9.2,4-9.3v-13c-2.7-1.6-14.2-8.1-28.3-7.1-16.6,1.1-40.4-2.7-48.5-7.6l-.3,48.6A40.2,40.2,0,0,1,262.7,59.7Zm-18.4-46h0Z"/><path class="cls-8" d="M425.9,102.3l-25.5-9.8-28.4-9a8.5,8.5,0,0,0-3.2-.3l-19.6,2.7V70l17.9.4h.9l38.6,3.8,15.7,6.9,4.8,5.5Z"/><path class="cls-5" d="M421.3,80.6l-14-5.1a15.5,15.5,0,0,0-3.1-.4l-17-.9L369,70.7l-3.1-.4-17.6-.4V54l78.4,7.3,1,4.8-2.2,5.5Z"/><polygon class="cls-3" points="426.9 62.8 412.2 61.8 394.1 59 369.3 56.5 348.6 54.4 348.2 36.3 368.9 42.4 390.6 44.2 409.2 43.8 427.1 52.1 426.9 62.8"/><g class="cls-6"><path d="M425.8,85.2h-.1c-.3-.2-32.2-16.6-37.9-19.3l-9.3-4.7-.2.8a.3.3,0,0,1,.1.2c.9,1.2,9.5,12.3,19.4,16.9s28.1,12.5,28.3,12.5l.4.2Z"/><path d="M427.7,68c-3.7.2-7.1-3-10.3-4.3s-7.3-2.1-10.9-3.4a24,24,0,0,1-9.6-6.6c-2.6-3.1-5.9-8.2-10-9.3-2.4-.6-5.3-.5-7.7-.7s-6.1-1.1-9.1-1.3c.5,2.9,5.6,6.3,7.4,8.3,3.5,3.9,6.8,7.5,11.5,10a76.9,76.9,0,0,0,9.4,3.8c3.2,1.3,6.3,2.9,9.6,4s9.1,3.5,13.6,4.8c2.2.6,2.5.6,3.7-1.2s2.2-2.9,2.2-4.7"/><path d="M349.8,37.6a12.8,12.8,0,0,0,3.5,8.9l3.7,4c1.3,1.3,3.3,2.4,4.3,3.9-3.2,1.3-6.3-5.1-9.8-4.7-1.6,4.5,2.4,8.9,4.3,12.5.9,1.7,1.6,3.4,2.6,5a7.4,7.4,0,0,1,1.6,2.7c-1.9-.6-8.2-10.4-9.6-5.2-.8,3,.3,6.6,1.5,9.5s2.4,6.3,4,8.6c-.3-.4-7.4,3.2-7.6,2.8l.5-48.7Z"/><path d="M348.2,82.6A27.2,27.2,0,0,1,366.5,78c3.8.3,7,1.7,10.6,2.9s5.7,1.1,8.4,2.2,4.1,2.2,6.4,2.8,3.6.3,5.4.8,2.8,1,4.2,1.4,5.1,1.1,7.5,1.9,7,.8,10.4,1.8,6.4,1.6,7.2,4.1-1,4.9-1.8,6.3S377.2,83,367.6,83l-19.9,5Z"/></g><path class="cls-7" d="M425.4,103.6H425c-.3-.1-31.8-12.6-48.3-17.2a38,38,0,0,0-28.4,3.1,1.2,1.2,0,0,1-1.3.1,1.4,1.4,0,0,1-.6-1.2l.2-52.3h0a1.7,1.7,0,0,1,1.1-1.6,1.9,1.9,0,0,1,1.9.2c6.6,5.3,33.1,9,48.1,7.9,16.9-1.2,30,7.6,30.6,8a1.2,1.2,0,0,1,.5,1V65c.3,1.2.1,4.1-4.4,10.9-2.4,3.6-1.9,4-.5,5a8.2,8.2,0,0,1,3.7,6.3,48.8,48.8,0,0,1-.9,15.4,1,1,0,0,1-.7.8Zm-59-21.3a40.3,40.3,0,0,1,11,1.5c14.6,4.1,40.8,14.3,47.1,16.8a49.8,49.8,0,0,0,.6-13.1,5.7,5.7,0,0,0-2.8-4.5c-2.5-1.9-3.1-3.7,0-8.5,4.2-6.4,4-8.6,4-8.8s-.1-.3-.1-.5v-13C423.7,50.6,412,44,397.9,45c-16.7,1.2-40.6-2.6-48.7-7.6l-.3,48.8A40.2,40.2,0,0,1,366.4,82.3Zm60-16.4Zm0,0Zm0,0Zm0,0Zm-.1-.2Z"/><path class="cls-5" d="M133.1,86.2l-1,14.1L113,93,77.2,81.9a5.6,5.6,0,0,0-3.4-.1L53.9,86.6l1.7-50.7,25.3,5.8,34.7,1,18.1,6.9.8,15.3-6.7,12Z"/><polygon class="cls-1" points="93.2 54.7 95.5 61.4 102.5 61.5 97 65.8 98.9 72.4 93.2 68.4 87.4 72.3 89.6 65.7 83.9 61.4 91 61.4 93.2 54.7"/><g class="cls-6"><path d="M132.5,83.6h-.1c-.4-.1-32.2-16.5-38-19.2l-9.3-4.7-.2.7c.1.1.1.2.2.2s9.5,12.4,19.4,17S132.6,89.9,132.8,90l.4.2Z"/><path d="M134.3,66.3c-3.6.3-7.1-2.9-10.3-4.3s-7.3-2-10.9-3.4a24.1,24.1,0,0,1-9.6-6.5c-2.5-3.2-5.8-8.3-9.9-9.3-2.4-.7-5.3-.5-7.8-.8s-6.1-1-9.1-1.2c.5,2.9,5.7,6.3,7.5,8.3,3.5,3.8,6.7,7.5,11.4,9.9a77.5,77.5,0,0,0,9.4,3.9c3.3,1.2,6.4,2.9,9.7,4s9,3.5,13.6,4.8c2.1.5,2.5.6,3.7-1.2s2.1-3,2.1-4.7"/><path d="M56.5,36A13,13,0,0,0,60,44.9c1.3,1.3,2.5,2.7,3.7,4S67,51.2,68,52.8c-3.2,1.2-6.3-5.1-9.8-4.8-1.6,4.6,2.4,8.9,4.3,12.6.9,1.6,1.6,3.4,2.6,5s1.4,1.6,1.5,2.7c-1.8-.6-8.1-10.4-9.5-5.2-.8,3,.3,6.6,1.5,9.5s2.4,6.3,4,8.6c-.3-.4-7.4,3.2-7.6,2.7l.5-48.7Z"/><path d="M54.9,80.9a27.4,27.4,0,0,1,18.3-4.5c3.8.3,7,1.7,10.6,2.9s5.7,1.1,8.4,2.2,4.1,2.2,6.4,2.7,3.6.4,5.4.8l4.2,1.5c2.5.7,5,1,7.5,1.9s7,.7,10.4,1.8,6.4,1.6,7.1,4.1-.9,4.9-1.7,6.3S83.8,81.4,74.2,81.3L54.3,86.4Z"/></g><path class="cls-7" d="M131.8,101.8h-.5c-.3-.1-31.6-12.5-48-17.1A37.7,37.7,0,0,0,55,87.7a1.1,1.1,0,0,1-1.3,0,1.1,1.1,0,0,1-.6-1.1l.2-52a1.8,1.8,0,0,1,1.1-1.7,1.9,1.9,0,0,1,1.9.2c6.5,5.2,32.9,8.9,47.9,7.9,16.9-1.2,29.9,7.6,30.4,7.9a1.4,1.4,0,0,1,.6,1.1V63.4c.3,1.2.1,4.1-4.4,10.9-2.3,3.6-1.8,3.9-.5,4.9a8.2,8.2,0,0,1,3.7,6.3,48.3,48.3,0,0,1-.9,15.3,1.5,1.5,0,0,1-.6.9ZM73,80.6a40.8,40.8,0,0,1,11,1.5c14.5,4.1,40.5,14.2,46.8,16.7a45.3,45.3,0,0,0,.6-13,5.6,5.6,0,0,0-2.7-4.5c-2.5-1.9-3.2-3.7-.1-8.4,4.2-6.4,4.1-8.6,4-8.8V50.7c-2.6-1.6-14.2-8.2-28.3-7.2-16.5,1.2-40.4-2.6-48.4-7.6l-.3,48.6A40,40,0,0,1,73,80.6Zm59.7-16.4Zm0,0Zm0,0Zm-.1-.1Zm-78-29.5Z"/><rect class="cls-7" x="-15.3" y="155.6" width="141.7" height="2.54" transform="translate(-101.4 212.2) rotate(-89.9)"/><rect class="cls-7" x="137.1" y="120.4" width="212.2" height="2.54" transform="translate(121.2 364.7) rotate(-89.9)"/><path class="cls-9" d="M222.2,40.2,142.8,59.6s-1.7,8.1,1.7,6.7c6.8-3,11.7-2.7,20.9-4.1,5.6-.8,19.6,6.2,25.7,8.1A305.9,305.9,0,0,1,220.9,81c.1-3.1,2.4-10.8.9-15.9-1-3.5-6.4-4.5-4.7-7.6C221.8,48.4,220.7,41.2,222.2,40.2Z"/><path class="cls-10" d="M143.6,17.1c-.4.3,76.8,34.4,76.8,34.4l-10.7,1.2-14.5,2.4-25.8-1-26.1,4.8S143.8,16.9,143.6,17.1Z"/><polygon class="cls-1" points="165.6 29.7 166.1 37.7 173.5 40.2 165.9 43 165.9 51.1 160.9 44.8 153.3 46.9 157.7 40.6 153.5 33.8 160.8 36 165.6 29.7"/><path class="cls-11" d="M222.5,30.1a35.9,35.9,0,0,0-22.1-7.9l-20.2.3c-5.6-.1-13.8-2.2-18.4-2.7-8.8-.9-13.6-3.3-18.1-3.5v.9l16.7,7.9,17.4,7.6,14,6.2c4.9.8,12.4,6,17.2,7.6l10.9,5,2.9-6.4Z"/><g class="cls-6"><path d="M221.2,63.8h-.1c-.3-.1-32.2-16.5-37.9-19.2l-9.3-4.7-.2.8v.2c.9,1.1,9.5,12.3,19.4,16.9s28.1,12.4,28.3,12.5l.4.2Z"/><path d="M223.1,46.6c-3.7.2-7.1-3-10.3-4.3s-7.3-2.1-10.9-3.4a24,24,0,0,1-9.6-6.6c-2.5-3.2-5.9-8.3-10-9.3-2.3-.6-5.2-.5-7.7-.7s-6.1-1.1-9.1-1.3c.5,2.9,5.6,6.3,7.5,8.3,3.4,3.9,6.7,7.5,11.4,9.9a77.5,77.5,0,0,0,9.4,3.9c3.2,1.3,6.4,2.9,9.6,4s9.1,3.5,13.7,4.8c2.1.6,2.4.6,3.6-1.2s2.2-2.9,2.2-4.7"/><path d="M145.3,16.2a12.8,12.8,0,0,0,3.5,8.9c1.2,1.3,2.4,2.7,3.7,4s3.2,2.3,4.2,3.9c-3.1,1.3-6.2-5.1-9.7-4.8-1.7,4.6,2.4,8.9,4.3,12.6.9,1.7,1.6,3.4,2.6,5s1.3,1.6,1.5,2.7c-1.8-.6-8.1-10.4-9.5-5.2-.9,3,.2,6.6,1.5,9.5s2.4,6.3,3.9,8.6c-.2-.4-7.3,3.2-7.5,2.7l.5-48.6Z"/><path d="M143.6,61.2a27.2,27.2,0,0,1,18.3-4.6c3.8.3,7.1,1.7,10.6,2.9s5.7,1.1,8.4,2.2,4.1,2.2,6.4,2.8,3.7.3,5.4.8,2.8,1,4.2,1.4,5.1,1,7.6,1.9,6.9.8,10.3,1.8,6.4,1.6,7.2,4.1-1,4.9-1.8,6.3S172.6,61.6,163,61.5l-19.9,5.1Z"/></g><path class="cls-7" d="M220.6,82h-.5c-.3-.1-31.7-12.5-48-17.1a37.7,37.7,0,0,0-28.3,3.1,1.2,1.2,0,0,1-1.3.1,1.5,1.5,0,0,1-.7-1.2l.3-52a1.8,1.8,0,0,1,1-1.6,1.7,1.7,0,0,1,2,.2c6.5,5.2,32.9,8.8,47.8,7.8,16.9-1.2,29.9,7.6,30.5,8a1.2,1.2,0,0,1,.5,1V43.8c0,.6-.1,3.9-4.4,10.7-2.3,3.6-1.8,4-.4,5a8.2,8.2,0,0,1,3.6,6.2,48.3,48.3,0,0,1-.9,15.3,1.3,1.3,0,0,1-.7.9ZM161.7,60.8a40.3,40.3,0,0,1,11,1.5c14.5,4.1,40.6,14.2,46.9,16.7a45.1,45.1,0,0,0,.6-13,5.6,5.6,0,0,0-2.7-4.5c-2.5-1.9-3.1-3.6-.1-8.4,4-6.3,3.9-9.2,3.9-9.2v-13c-2.6-1.6-14.2-8.2-28.3-7.2-16.6,1.2-40.4-2.6-48.5-7.5l-.2,48.5A41,41,0,0,1,161.7,60.8Zm-18.3-46Z"/><line x1="144.4" y1="66.3" x2="144.2" y2="120.5"/><rect class="cls-7" x="117.2" y="92.1" width="54.2" height="2.54" transform="matrix(0, -1, 1, 0, 50.29, 237.24)"/><polygon class="cls-1" points="180.9 111.4 173.5 125 180.2 135.6 165.3 127.9 138.7 120.9 119.2 116.5 104.4 119.1 84.9 116.5 84.9 97.3 103.5 97.5 118.8 100 133.6 101.6 150.9 101.8 170.8 104.5 180.9 104.7 180.9 111.4"/><polygon class="cls-3" points="180.3 135.9 178.6 153.6 155.9 144.6 132 135.9 115 131.2 98.6 132 86.2 135.9 86.2 116.6 96.4 117.2 104.3 117.7 114 115.7 126.3 116.1 143 120.2 165.5 127.1 180.3 135.9"/><path class="cls-5" d="M180.3,110.8l-12.1-4.7a13.7,13.7,0,0,0-2.9-.7l-22.2-3.2-17.5-1.7-14.5-1.9-14.5-.9-10.4-1,.3-21.6,18.1,5.4,21.2,2.4,26.5-.2,16.8,4.1L181,92.2Z"/><g class="cls-6"><path d="M179.4,132.8h-.2c-.4-.2-38.8-19.7-45.7-22.9l-11.2-5.5-.2.8c0,.1.1.2.1.3s11.5,14.8,23.5,20.2,33.8,14.8,34,14.9l.5.2Z"/><path d="M181.5,112c-4.4.4-8.6-3.5-12.4-5.1s-8.8-2.4-13.1-4a27.1,27.1,0,0,1-11.6-7.8c-3.1-3.8-7.1-9.9-12.1-11.2-2.8-.7-6.3-.5-9.2-.8s-7.4-1.2-11-1.4c.6,3.5,6.8,7.5,9,9.9,4.2,4.6,8.2,9,13.8,11.9a121.6,121.6,0,0,0,11.3,4.6c3.9,1.5,7.7,3.4,11.6,4.7s11,4.2,16.5,5.7c2.5.6,2.9.7,4.4-1.5s2.5-3.5,2.5-5.6"/><path d="M87.8,76a15.1,15.1,0,0,0,4.3,10.7l4.4,4.8c1.6,1.5,3.9,2.8,5.1,4.7-3.8,1.5-7.5-6.1-11.7-5.7-1.9,5.5,2.9,10.7,5.3,15.1,1,1.9,1.9,4.1,3.1,6s1.7,1.9,1.9,3.2c-2.2-.8-9.9-12.4-11.5-6.2-1,3.6.3,8,1.8,11.4s3,7.6,4.9,10.3c-.3-.4-8.9,3.9-9.1,3.4l.3-58.5Z"/><path d="M86.1,130.1a32.2,32.2,0,0,1,21.9-5.6c4.6.3,8.5,1.9,12.8,3.4s6.8,1.3,10.1,2.6,4.9,2.6,7.7,3.3,4.4.4,6.5.9,3.3,1.2,5.1,1.7,6.1,1.2,9,2.2,8.4.9,12.5,2.1,7.7,1.9,8.6,4.9-1.1,5.9-2.1,7.6c0,0-57.3-22.8-68.9-22.8l-23.8,6.2Z"/></g><path class="cls-7" d="M178.6,154.3h-.4c-.4-.1-38.1-14.9-57.8-20.3a46.1,46.1,0,0,0-34.3,4,1.3,1.3,0,0,1-1.2,0,1.3,1.3,0,0,1-.6-1V74.4a1.8,1.8,0,0,1,1.1-1.7,1.9,1.9,0,0,1,1.9.2c7.5,5.9,37.7,10.7,57.8,9.2s35.7,8.9,36.4,9.3a1.2,1.2,0,0,1,.5,1v16.1c.3,1.2.3,4.5-5.1,12.9-3,4.6-2.3,5.1-.5,6.5a9.6,9.6,0,0,1,4.4,7.2c1.1,9.1-1,17.9-1,18.3a1.1,1.1,0,0,1-.6.7Zm-70.5-24.4a47.6,47.6,0,0,1,12.9,1.8c17.7,4.9,50,17.2,56.8,19.8a57.1,57.1,0,0,0,.7-16.1,7.2,7.2,0,0,0-3.5-5.7c-2.5-1.9-3.9-3.6,0-9.6,5.2-8.1,4.8-10.7,4.8-10.9a.7.7,0,0,1-.1-.5V93c-2.8-1.7-17.1-9.9-34.4-8.6-19.9,1.5-49.7-3.2-58.7-9.1v59.6A48.8,48.8,0,0,1,108.1,129.9Zm71.7-20.6h0Zm0,0Zm0,0Z"/><rect class="cls-7" x="85.9" y="146.6" width="2.3" height="81.17"/><polygon class="cls-7" points="197.8 227.7 195.5 227.7 195.5 119.3 197.8 126 197.8 227.7"/><polygon class="cls-5" points="434.9 138.6 420.9 135.4 399.5 132.9 376.2 131.9 350.6 127.6 351.3 112.8 372.4 119.2 394.1 120.8 416.7 121.4 428.2 124.3 435.2 130 434.9 138.6"/><polygon class="cls-12" points="429.2 160.6 417.7 157.8 397.6 153.6 367.6 153 350.7 149.8 350.6 127.6 364.4 128.7 383.2 132.6 406.8 133.5 435.8 138.3 429.2 160.6"/><path class="cls-5" d="M433.3,183.3l-20.1-8.9-15-5.5-25.8-6-21.6,3V149.5l15-.9a10.5,10.5,0,0,1,2.5.1l24.3,3.7,17.9,2.3,2.4.5,18.9,6.7,2.2,4.2Z"/><g class="cls-6"><path d="M433.7,164.9h-.1c-.4-.2-34.7-17.9-40.9-20.7L382.6,139l-.2.8.2.2c.9,1.3,10.2,13.3,20.9,18.3s30.3,13.4,30.5,13.5l.5.2Z"/><path d="M435.7,146.3c-3.9.2-7.6-3.3-11.1-4.7s-7.9-2.2-11.7-3.6a26.1,26.1,0,0,1-10.4-7.1c-2.7-3.4-6.3-8.9-10.8-10.1-2.5-.6-5.6-.4-8.3-.7s-6.6-1.1-9.8-1.4c.6,3.1,6.1,6.8,8.1,9,3.7,4.1,7.2,8.1,12.3,10.7a89.5,89.5,0,0,0,10.1,4.2c3.5,1.3,6.9,3.1,10.4,4.3s9.8,3.7,14.7,5.1c2.3.6,2.7.6,4-1.3s2.3-3.1,2.3-5"/><path d="M351.8,113.5a13.5,13.5,0,0,0,3.8,9.6c1.3,1.5,2.6,2.9,4,4.3s3.5,2.6,4.5,4.3c-3.4,1.3-6.7-5.6-10.5-5.2-1.7,4.9,2.6,9.6,4.7,13.6.9,1.7,1.7,3.7,2.8,5.4s1.5,1.7,1.6,2.8c-1.9-.6-8.8-11.1-10.3-5.6-.9,3.3.3,7.2,1.7,10.3s2.6,6.8,4.2,9.2c-.2-.3-7.9,3.5-8.1,3l.5-52.5Z"/><path d="M350,162a28.8,28.8,0,0,1,19.7-4.9c4.2.3,7.6,1.8,11.5,3.1s6.1,1.2,9.1,2.4,4.4,2.4,6.8,3,4,.4,5.9.8l4.5,1.5c2.7.8,5.5,1.2,8.1,2.1s7.6.8,11.2,2,6.9,1.7,7.7,4.4-1,5.3-1.9,6.8-51.3-20.7-61.7-20.8l-21.5,5.5Z"/></g><path class="cls-7" d="M433,184.4h-.5c-.3-.1-34.1-13.5-51.8-18.5a41.3,41.3,0,0,0-30.6,3.4,1.2,1.2,0,0,1-1.3.1,1.4,1.4,0,0,1-.6-1.2l.3-56.1h0a1.9,1.9,0,0,1,1-1.7,1.8,1.8,0,0,1,2,.3c6.5,5.2,34.1,9.7,51.7,8.4s32.2,8.2,32.8,8.6a1.2,1.2,0,0,1,.5,1v14.7c.1.6,0,4.1-4.6,11.4-2.5,4.1-2,4.5-.5,5.6a8.6,8.6,0,0,1,3.9,6.6,50.9,50.9,0,0,1-1,16.5,1.5,1.5,0,0,1-.6.9Zm-63.5-22.7a43.2,43.2,0,0,1,11.9,1.7c15.7,4.4,44,15.4,50.6,18a52.4,52.4,0,0,0,.7-14.2,6.7,6.7,0,0,0-2.9-4.9c-2.7-2-3.4-3.8-.2-8.9,4.3-6.9,4.3-10,4.3-10V129.3c-2.8-1.7-15.3-8.8-30.6-7.8-18,1.3-43.9-2.9-52.4-8.2l-.3,52.7A43,43,0,0,1,369.5,161.7ZM351,112Z"/><line x1="350.9" y1="167.5" x2="350.6" y2="227.7"/><rect class="cls-7" x="320.6" y="196.3" width="60.2" height="2.54" transform="translate(151.5 547.5) rotate(-89.7)"/><line class="cls-13" x1="350.7" y1="111.6" x2="350.7" y2="106.7"/><polygon class="cls-1" points="368.5 117.8 353.8 116.6 289.6 104.9 289.6 79.7 309.6 84.2 330.9 86.7 347 86.3 367.3 91.5 371.9 95.5 371.9 107.6 368.5 117.8"/><polygon class="cls-5" points="368.7 145.9 349.8 138.1 336.4 134.3 319.5 128.9 304.8 125.8 288.5 130.9 288.6 103.9 300.6 104.1 314.3 106.6 336.8 110.4 352.6 115 366.1 117.2 364.7 122.2 369.7 131.1 368.7 145.9"/><g class="cls-6"><path d="M369.7,128.8h-.2c-.3-.2-33.3-17.2-39.3-19.9l-9.6-4.9-.2.8c.1,0,.1.1.2.2s9.8,12.8,20.1,17.5,29,12.9,29.2,13l.5.2Z"/><path d="M371.6,112c-3.8.2-7.4-3.1-10.7-4.5s-7.5-2.1-11.3-3.5a24.4,24.4,0,0,1-9.9-6.8c-2.7-3.3-6.1-8.5-10.3-9.6-2.5-.7-5.5-.5-8-.8s-6.4-1.1-9.5-1.3c.6,3,5.9,6.5,7.8,8.6,3.6,4,6.9,7.8,11.8,10.3a82.4,82.4,0,0,0,9.7,4c3.4,1.3,6.6,3,10,4.2s9.4,3.6,14.1,4.9c2.2.6,2.6.6,3.8-1.3s2.2-3,2.3-4.8"/><path d="M291,79.5a13.9,13.9,0,0,0,3.6,9.3l3.9,4.1c1.3,1.3,3.3,2.4,4.4,4.1-3.3,1.2-6.5-5.4-10.1-5-1.7,4.7,2.4,9.2,4.4,13,.9,1.7,1.7,3.6,2.7,5.2a7.1,7.1,0,0,1,1.6,2.8c-1.9-.7-8.4-10.8-9.9-5.4-.8,3.1.3,6.9,1.6,9.8s2.5,6.5,4.1,8.9c-.3-.4-7.6,3.4-7.8,2.9l.5-50.4Z"/><path d="M289.3,126.1a28.4,28.4,0,0,1,18.9-4.8c4,.4,7.3,1.8,11,3.1s5.9,1.1,8.7,2.3,4.3,2.3,6.6,2.8,3.8.4,5.6.8,2.9,1.1,4.4,1.5,5.2,1.1,7.8,2,7.2.8,10.7,1.8,6.6,1.7,7.4,4.3-1,5.1-1.8,6.5-49.3-19.9-59.3-19.9l-20.6,5.2Z"/></g><path class="cls-7" d="M368.9,147.6h-.4c-.4-.1-32.8-12.9-49.8-17.7a39.3,39.3,0,0,0-29.3,3.3,1.5,1.5,0,0,1-1.3,0,1.3,1.3,0,0,1-.6-1.1l.3-53.9h0a1.9,1.9,0,0,1,1-1.7,2,2,0,0,1,2,.2c6.7,5.4,34.1,9.2,49.5,8.2A52.9,52.9,0,0,1,371.8,93a1.1,1.1,0,0,1,.6,1v14.1c0,.6-.1,4-4.5,11-2.4,3.9-1.8,4.3-.4,5.3a8.3,8.3,0,0,1,3.7,6.4,56.4,56.4,0,0,1-.9,15.9,1.8,1.8,0,0,1-.7.8ZM308,125.8a43.1,43.1,0,0,1,11.4,1.5c15.1,4.3,42.1,14.8,48.6,17.3a48.3,48.3,0,0,0,.6-13.5,5.9,5.9,0,0,0-2.8-4.7c-2.5-1.9-3.2-3.7-.1-8.6,4.1-6.6,4.1-9.6,4.1-9.6V94.7c-2.6-1.6-14.6-8.4-29.3-7.4-17.2,1.2-41.9-2.8-50.2-7.9l-.3,50.4A42.2,42.2,0,0,1,308,125.8ZM290.3,78.1Z"/><line x1="290.1" y1="131.4" x2="289.9" y2="227.7"/><rect class="cls-7" x="241.8" y="178.3" width="96.4" height="2.54" transform="translate(109.6 469) rotate(-89.8)"/><polygon class="cls-5" points="215.6 109 207.6 109.4 195.5 113 196.1 61.9 215.2 66.7 215.6 109"/><path class="cls-8" d="M276.8,90.5l-15.3-4.4-2.8-1a33.8,33.8,0,0,0-11-1.8h-8.4l-24.1-3.5V65.1L235,68.3l18.5-.4L268,71.2l8.8,4Z"/><path class="cls-1" d="M271.6,107l-56-8.5L215.2,80l38.7,3.9a10.8,10.8,0,0,1,3.1.7l19.8,7.1Z"/><path class="cls-3" d="M275.2,128.3,215.6,109l-.4-15.3,15.4,4.4,2.3.7,18.6,2.6,20.1,5.2,4.4,4Z"/><g class="cls-6"><path d="M275.5,110.9h-.1c-.4-.2-33.2-17.1-39.2-19.9l-9.6-4.8-.2.8.2.2c.9,1.2,9.8,12.7,20,17.5s29,12.8,29.2,12.9l.4.2Z"/><path d="M277.4,93.1c-3.7.2-7.3-3.1-10.6-4.5s-7.5-2.1-11.2-3.5a25.5,25.5,0,0,1-10-6.8c-2.6-3.2-6-8.5-10.3-9.6-2.4-.6-5.4-.5-7.9-.7s-6.4-1.1-9.5-1.3c.6,3,5.9,6.4,7.8,8.5,3.6,4,6.9,7.8,11.8,10.3a82.4,82.4,0,0,0,9.7,4c3.3,1.3,6.5,3,9.9,4.1s9.4,3.7,14.1,4.9c2.2.7,2.6.7,3.8-1.2s2.2-3,2.2-4.8"/><path d="M197.1,61.7a13.5,13.5,0,0,0,3.6,9.2c1.3,1.4,2.5,2.8,3.8,4.1s3.4,2.4,4.4,4.1c-3.3,1.3-6.4-5.3-10.1-5-1.6,4.7,2.5,9.2,4.5,13,.9,1.7,1.6,3.5,2.7,5.2s1.4,1.6,1.6,2.7c-1.9-.6-8.5-10.6-9.9-5.3-.9,3.1.3,6.8,1.5,9.8s2.5,6.5,4.2,8.9c-.3-.4-7.6,3.3-7.8,2.8l.4-50.3Z"/><path d="M195.4,108.1c5.4-3.9,12.3-5.3,18.9-4.7,3.9.4,7.2,1.8,10.9,3s5.9,1.2,8.7,2.3,4.2,2.3,6.6,2.8,3.7.4,5.6.9,2.8,1,4.3,1.4,5.3,1.1,7.8,2,7.2.8,10.7,1.8,6.6,1.7,7.4,4.3-1,5.1-1.8,6.5-49.2-19.8-59.1-19.9l-20.6,5.2Z"/></g><path class="cls-7" d="M274.8,129.6h-.5c-.3-.1-32.6-12.9-49.5-17.7a39.2,39.2,0,0,0-29.3,3.3,1.5,1.5,0,0,1-1.3,0,1.1,1.1,0,0,1-.6-1.1l.3-53.7a1.8,1.8,0,0,1,1-1.7,1.9,1.9,0,0,1,1.9.2c6.8,5.4,34.1,9.2,49.5,8.1,17.4-1.2,30.8,7.8,31.4,8.2a1.6,1.6,0,0,1,.5,1.1v14c0,.6-.1,4-4.5,11-2.4,3.8-1.9,4.2-.5,5.2a8.8,8.8,0,0,1,3.8,6.4,49.7,49.7,0,0,1-1,15.8,1.5,1.5,0,0,1-.6.9Zm-60.7-21.8a39,39,0,0,1,11.3,1.6c15,4.2,42,14.7,48.5,17.2a52.5,52.5,0,0,0,.6-13.5,6,6,0,0,0-2.8-4.6c-2.5-2-3.2-3.7-.1-8.6,4.1-6.6,4-9.6,4-9.6V76.9c-2.7-1.7-14.6-8.5-29.2-7.5-17.2,1.2-41.8-2.7-50.1-7.8l-.3,50.3A41.9,41.9,0,0,1,214.1,107.8Zm-19-47.5Z"/><line x1="196.2" y1="113.4" x2="196" y2="163.1"/><rect class="cls-7" x="171.3" y="137" width="49.7" height="2.54" transform="matrix(0.01, -1, 1, 0.01, 56.81, 333.58)"/><path class="cls-3" d="M373.1,216.5l-21.7-7.6L322,198.3l-13.3-3.4a31.4,31.4,0,0,0-16.1,0l-14.3,3.7-.8-63.6,30.2,8.8,28.7,1.4,17.6.3,21.4,8.2-.6,18.8-6.7,14.4L374,198Z"/><path class="cls-1" d="M314.6,181.6a11.8,11.8,0,1,1,11.4-15h0a15.3,15.3,0,1,0,.1,6h0A11.9,11.9,0,0,1,314.6,181.6Z"/><polygon class="cls-1" points="337.2 165.2 331.8 166.9 328.3 162.2 328.2 168.1 322.7 169.6 328.4 171.6 328.4 177.5 331.6 172.8 337.1 174.5 333.8 169.8 337.2 165.2"/><g class="cls-6"><path d="M373.5,195.4h-.1c-.4-.2-39.7-20.4-46.8-23.7l-11.5-5.8-.2.9.2.3c1.1,1.4,11.7,15.2,23.9,20.8s34.6,15.4,34.8,15.5l.6.2Z"/><path d="M375.8,174.1c-4.5.3-8.7-3.7-12.7-5.3s-9-2.5-13.4-4.2a28.8,28.8,0,0,1-11.9-8.1c-3.1-3.8-7.2-10.1-12.2-11.4-3-.8-6.5-.6-9.5-.9s-7.6-1.3-11.3-1.6c.6,3.6,7,7.8,9.2,10.3,4.3,4.7,8.3,9.2,14.1,12.2a108.6,108.6,0,0,0,11.6,4.8c4,1.5,7.8,3.5,11.9,4.9s11.1,4.3,16.8,5.9c2.6.7,3,.7,4.5-1.5s2.6-3.6,2.7-5.7"/><path d="M279.9,136.7a16,16,0,0,0,4.3,11c1.6,1.6,3,3.3,4.6,4.9s4,2.9,5.2,4.8c-3.9,1.6-7.7-6.3-12-5.8-2,5.6,3,10.9,5.3,15.5,1.1,2,2,4.2,3.2,6.1s1.7,2,1.9,3.3c-2.3-.8-10-12.8-11.8-6.4-1,3.7.4,8.2,1.9,11.7s3,7.8,4.9,10.6c-.3-.5-9.1,4-9.3,3.4l.6-60Z"/><path d="M277.9,192.1c6.5-4.6,14.7-6.3,22.5-5.6,4.7.4,8.7,2.1,13.1,3.6s7,1.3,10.4,2.7,5,2.7,7.8,3.4,4.5.4,6.7,1,3.4,1.2,5.1,1.7c3.2.9,6.3,1.3,9.3,2.4s8.6.9,12.8,2.2c2.7.8,7.9,1.9,8.8,5.1s-1.1,6-2.1,7.7c0,0-58.7-23.6-70.6-23.7l-24.5,6.2Z"/></g><path class="cls-7" d="M372.7,217.5h-.5c-.4-.1-39-15.4-59.2-21.1a47.3,47.3,0,0,0-35.1,3.9,1.2,1.2,0,0,1-1.3,0,1.1,1.1,0,0,1-.6-1.1l.3-64.1h0a2,2,0,0,1,1.1-1.8,2,2,0,0,1,2.1.3c7.6,6,38.6,11.1,59.1,9.7s36.7,9.3,37.4,9.7a1.6,1.6,0,0,1,.5,1.1v16.7c.1.7,0,4.7-5.3,13-2.9,4.8-2.2,5.3-.5,6.6a9.3,9.3,0,0,1,4.4,7.5,60.7,60.7,0,0,1-1.1,18.8,1.3,1.3,0,0,1-.7.8ZM300.2,192a51.8,51.8,0,0,1,13.5,1.8c18.1,5.1,50.9,17.9,58,20.7a55.9,55.9,0,0,0,.8-16.5,7.3,7.3,0,0,0-3.4-5.7c-3-2.2-3.7-4.2-.1-9.9,5-8,4.9-11.5,4.9-11.6V154.7c-3-1.9-17.5-10.2-35.2-9-20.3,1.4-50.6-3.5-60-9.6l-.3,60.9A48.5,48.5,0,0,1,300.2,192Z"/><line x1="278.9" y1="198.4" x2="278.6" y2="227.7"/><rect class="cls-7" x="264.1" y="211.8" width="29.3" height="2.54" transform="translate(62.7 489.5) rotate(-89.4)"/><polygon class="cls-1" points="257.5 200.2 232.1 190.5 196.3 178.2 174.3 175.1 155.7 180 155.6 114.7 183.3 121.2 215 124 237.3 123.5 260.8 133.2 260.3 153.6 252.3 169.2 259 180.2 257.5 200.2"/><path class="cls-5" d="M259.3,155.7l-3.7-1.9a57.3,57.3,0,0,0-13.8-5.1l-7.5-1.6-3.3-.6-14.6-1.8-15.2-2.3-.3-19.7-15.6-1.5v20.4h-9.2l-8.9-1.3L155.6,138v15.7l9.5,2,8.7.5,12.3-.3v20l15,2.1-.4-21,22,3.9,14.8,2.2a23.8,23.8,0,0,1,6.9,2l7.7,3.6Z"/><g class="cls-6"><path d="M257.9,177.7h-.2c-.4-.3-42.5-21.9-50.1-25.4l-12.3-6.2-.2,1,.2.2c1.2,1.6,12.5,16.3,25.6,22.4s37.1,16.4,37.3,16.5l.6.3Z"/><path d="M260.3,155c-4.8.3-9.3-4-13.6-5.7s-9.6-2.7-14.3-4.5-9.8-4.9-12.8-8.7-7.7-10.9-13.1-12.3c-3.1-.8-7-.5-10.2-.9s-8.1-1.4-12.1-1.6c.8,3.8,7.5,8.2,9.9,10.9,4.6,5.1,8.9,9.9,15.1,13.1a112,112,0,0,0,12.4,5.2c4.3,1.6,8.4,3.7,12.8,5.2,5.9,2.1,11.9,4.6,18,6.3,2.8.8,3.2.8,4.8-1.6s2.8-3.8,2.9-6.1"/><path d="M157.6,114.9a17.3,17.3,0,0,0,4.6,11.8c1.7,1.7,3.3,3.5,4.9,5.2s4.3,3.1,5.6,5.2c-4.2,1.6-8.2-6.8-12.9-6.3-2.1,6,3.2,11.7,5.7,16.6,1.2,2.2,2.1,4.5,3.4,6.6s1.9,2.1,2.1,3.5c-2.4-.8-10.8-13.7-12.6-6.8-1.1,4,.3,8.7,2,12.5s3.1,8.3,5.2,11.3c-.3-.4-9.7,4.3-10,3.7l.7-64.3Z"/><path d="M155.4,174.3a35.9,35.9,0,0,1,24.2-6.1c5,.5,9.2,2.2,14,3.9s7.5,1.4,11.1,2.9,5.4,2.9,8.4,3.6,4.8.5,7.2,1.1,3.6,1.3,5.5,1.8,6.7,1.4,9.9,2.6,9.2,1,13.7,2.3c2.9.9,8.5,2.1,9.5,5.5s-1.3,6.4-2.4,8.3c0,0-62.8-25.4-75.6-25.4l-26.2,6.6Z"/></g><path class="cls-14" d="M155.1,113l-.4,68.8a51.2,51.2,0,0,1,38.7-4.4c22,6.2,63.6,22.7,63.6,22.7a66.2,66.2,0,0,0,1.2-19.7c-1.2-9.9-10.7-5.1-4-15.9,5.7-9.2,5.5-13.1,5.5-13.1v-18s-17.1-11.8-39.1-10.2-56.1-4.2-64.3-10.7A.7.7,0,0,0,155.1,113Z"/><line class="cls-15" x1="156.5" y1="181" x2="156.2" y2="227.7"/><polygon class="cls-3" points="99.1 195.6 83.5 195 65.9 198.7 65.4 132.5 81.5 136.6 99.5 139.5 99.1 195.6"/><path class="cls-5" d="M161,216.2l-45.1-16.6a5.2,5.2,0,0,1-3.4-5l.2-47.2a5.2,5.2,0,0,1,5.3-5.3l13,.2,15.9.6,1.4.2,12.2,4a3.1,3.1,0,0,1,1.3.6l6.1,4a5.2,5.2,0,0,1,2.4,4.5l-.3,10.3a50.9,50.9,0,0,1-1.2,6.6l-5.6,12a5.3,5.3,0,0,0,.5,5.3l3.8,5.5a5.8,5.8,0,0,1,1,3.2l-.4,12.3C168,215,167.6,220.6,161,216.2Z"/><polygon class="cls-5" points="106.1 196.6 99.2 195.2 99.3 140.8 106.3 140.8 106.1 196.6"/><polygon class="cls-16" points="112.8 199 105.8 196.6 106 140.8 113 140.7 112.8 199"/><path class="cls-17" d="M89.5,164.4a16.5,16.5,0,0,0,16.3,16.4V147.9A16.3,16.3,0,0,0,89.5,164.4Z"/><path class="cls-1" d="M89.5,168.1a16.4,16.4,0,0,1,16.3-16.5v-4.1a20.6,20.6,0,0,0,.1,41.2v-4.1A16.5,16.5,0,0,1,89.5,168.1Z"/><path class="cls-8" d="M126.5,168.1a20.6,20.6,0,0,0-20.6-20.6h-.2v4.1h.1a16.5,16.5,0,0,1,.1,33h-.2v4.1h.2A20.6,20.6,0,0,0,126.5,168.1Z"/><g class="cls-6"><path d="M168,196.5h-.2c-.4-.2-42.6-21.8-50.2-25.3l-12.3-6.2-.2.9v.3c1.2,1.6,12.6,16.3,25.8,22.4s37.1,16.4,37.4,16.5l.5.2Z"/><path d="M170.4,173.7c-4.8.3-9.4-4-13.6-5.7s-9.7-2.7-14.4-4.5-9.8-4.9-12.8-8.6-7.7-10.9-13.2-12.3c-3.1-.8-6.9-.6-10.2-1s-8.1-1.3-12.1-1.6c.8,3.8,7.5,8.3,10,11,4.6,5,8.9,9.9,15.1,13.1,4,2,8.2,3.5,12.4,5.1s8.5,3.8,12.8,5.3c5.9,2,12,4.6,18,6.2,2.9.8,3.3.8,4.9-1.6s2.8-3.8,2.9-6.1"/><path d="M67.4,133.7a17.4,17.4,0,0,0,4.7,11.8c1.6,1.7,3.2,3.5,4.9,5.2s4.3,3.1,5.6,5.2c-4.2,1.7-8.2-6.8-12.9-6.3-2.1,6,3.2,11.8,5.8,16.6,1.1,2.2,2.1,4.5,3.4,6.6s1.8,2.1,2,3.5c-2.4-.7-10.8-13.6-12.6-6.8-1.1,4,.4,8.8,2,12.5s3.2,8.4,5.3,11.4c-.4-.5-9.8,4.3-10,3.7l.5-64.4Z"/><path d="M65.4,193.2c6.9-5.1,15.8-6.9,24.1-6.2,5.1.5,9.3,2.3,14.1,3.9s7.5,1.4,11.1,2.9,5.4,2.9,8.4,3.6,4.9.5,7.2,1.1,3.7,1.3,5.6,1.8,6.7,1.4,9.9,2.6,9.3.9,13.7,2.3,8.5,2.1,9.5,5.4-1.2,6.5-2.3,8.4c0,0-63-25.3-75.8-25.4l-26.2,6.7Z"/></g><path class="cls-7" d="M167.1,220.2h-.4c-.5-.2-41.9-16.6-63.6-22.6a50.5,50.5,0,0,0-37.8,4.2,1,1,0,0,1-1.2.1,1.2,1.2,0,0,1-.7-1.1l.3-68.9h0a2.1,2.1,0,0,1,1.1-1.8,2,2,0,0,1,2.1.3c8.2,6.5,41.5,11.9,63.6,10.3s39.3,9.9,40,10.4a1.1,1.1,0,0,1,.6,1v18c0,.7,0,4.9-5.6,13.9-3.3,5.2-2.5,5.8-.6,7.2a9.9,9.9,0,0,1,4.7,7.9,65.7,65.7,0,0,1-1.1,20.2,1.8,1.8,0,0,1-.7.8ZM89.4,193a55.3,55.3,0,0,1,14.4,2c19.5,5.5,54.9,19.2,62.4,22.2a61.7,61.7,0,0,0,.8-17.9,7.6,7.6,0,0,0-3.7-6.1c-2.7-2.1-4.2-4-.1-10.6,5.4-8.6,5.3-12.4,5.3-12.5V152.7c-3.1-1.9-18.7-10.9-37.8-9.6-21.9,1.6-54.7-3.7-64.5-10.2l-.3,65.6A52.4,52.4,0,0,1,89.4,193ZM66.2,131.8Z"/><line x1="66.4" y1="199.9" x2="66.2" y2="227.7"/><rect class="cls-7" x="52.4" y="212.5" width="27.8" height="2.54" transform="translate(-148 278.5) rotate(-89.6)"/><rect class="cls-17" x="19.6" y="14.6" width="443.5" height="198.42"/></g></svg>
