<?xml version="1.0" encoding="utf-8"?>
<!-- Generator: Adobe Illustrator 16.0.0, SVG Export Plug-In . SVG Version: 6.00 Build 0)  -->
<!DOCTYPE svg PUBLIC "-//W3C//DTD SVG 1.1//EN" "http://www.w3.org/Graphics/SVG/1.1/DTD/svg11.dtd">
<svg version="1.1" xmlns="http://www.w3.org/2000/svg" xmlns:xlink="http://www.w3.org/1999/xlink" x="0px" y="0px" width="24px"
	 height="24px" viewBox="0 0 24 24" enable-background="new 0 0 24 24" xml:space="preserve">
<g id="Lager_1">
	<g>
		<path fill="#A73A64" d="M12.001,1.016c6.056,0,10.984,4.928,10.984,10.984s-4.928,10.984-10.984,10.984
			C5.944,22.985,1.016,18.057,1.016,12S5.944,1.016,12.001,1.016 M12.001,0C5.373,0,0,5.373,0,12s5.373,12,12.001,12
			c6.627,0,12-5.372,12-12S18.628,0,12.001,0L12.001,0z"/>
	</g>
</g>
<g id="Lager_2">
	<g display="none">
		
			<rect x="-366.607" y="-130.945" display="inline" fill="#006B35" stroke="#006B35" stroke-width="12" stroke-linecap="round" stroke-linejoin="round" stroke-miterlimit="10" width="61.099" height="28.427"/>
		
			<polygon display="inline" fill="#FFFFFF" stroke="#006B35" stroke-width="12" stroke-linecap="round" stroke-linejoin="round" stroke-miterlimit="10" points="
			-366.607,27.657 -366.607,-102.518 -305.508,-102.518 -305.508,27.657 -336.056,77.379 		"/>
		
			<line display="inline" fill="none" stroke="#006B35" stroke-width="12" stroke-linecap="round" stroke-linejoin="round" stroke-miterlimit="10" x1="-336.057" y1="23.771" x2="-336.057" y2="-102.518"/>
		
			<line display="inline" fill="none" stroke="#006B35" stroke-width="12" stroke-linecap="round" stroke-linejoin="round" stroke-miterlimit="10" x1="-366.607" y1="27.657" x2="-305.508" y2="27.657"/>
		<polygon display="inline" fill="#006B35" points="-323.274,55.039 -336.057,75.846 -348.841,55.039 		"/>
	</g>
	<g>
		<circle fill="#A73A64" cx="15.139" cy="5.221" r="2.466"/>
		<path fill="#A73A64" d="M5.142,9.021L7.754,5.75c0,0,0.711-0.655,1.417-0.102l4.515,2.286c0,0,1.389,0.633,0.608,2.132
			l-1.311,2.426c0,0,2.018-0.235,3.871-0.393c0.877-0.087,1.213,0.417,1.385,1.176l0.291,5.774c0,0-0.062,1.178-1.087,1.253
			c0,0-1.008,0-1.087-1.1c-0.109-1.513-0.24-4.06-0.24-4.06l-2.598,0.489l-6.69-2.936l0.91-0.541c0,0,1.271-2.907,2.226-3.627
			L8.6,7.73c0,0-1.945,2.356-1.958,2.369c-0.33,0.398-0.926,0.554-1.27,0.295C4.94,10.071,4.818,9.428,5.142,9.021z"/>
		<g>
			<path fill="#FFFFFF" d="M9.748,20.959c-2.484,0-4.505-2.021-4.505-4.504c0-2.484,2.021-4.505,4.505-4.505
				c2.484,0,4.505,2.021,4.505,4.505C14.253,18.939,12.232,20.959,9.748,20.959z"/>
			<path fill="#A73A64" d="M9.748,12.698c2.072,0,3.757,1.685,3.757,3.757c0,2.071-1.686,3.756-3.757,3.756
				c-2.072,0-3.758-1.685-3.758-3.756C5.99,14.383,7.676,12.698,9.748,12.698 M9.748,11.203c-2.901,0-5.253,2.352-5.253,5.252
				c0,2.901,2.352,5.251,5.253,5.251c2.901,0,5.252-2.35,5.252-5.251C15,13.555,12.649,11.203,9.748,11.203L9.748,11.203z"/>
		</g>
		<circle fill="#A73A64" cx="9.749" cy="16.456" r="2.101"/>
	</g>
</g>
</svg>
