<?xml version="1.0" encoding="utf-8"?>
<!-- Generator: Adobe Illustrator 23.1.0, SVG Export Plug-In . SVG Version: 6.00 Build 0)  -->
<svg version="1.1" xmlns="http://www.w3.org/2000/svg" xmlns:xlink="http://www.w3.org/1999/xlink" x="0px" y="0px"
	 viewBox="0 0 400 100" style="enable-background:new 0 0 400 100;" xml:space="preserve">
<style type="text/css">
	.st0{opacity:0.5;}
	.st1{fill:#A6D0AB;}
	.st2{fill:#D34616;}
	.st3{fill:#5E9E6C;}
	.st4{fill:#FFFFFF;}
	.st5{fill:#B7C2D9;}
	.st6{fill:#444345;}
	.st7{fill:#D34718;}
	.st8{fill:#A6D0AC;}
	.st9{fill:#DADEEB;}
	.st10{fill:#5F9E6C;}
	.st11{fill:#116A3E;}
</style>
<g id="bakgrund">
	<g class="st0">
		<circle class="st1" cx="237.9" cy="50.2" r="49.2"/>
	</g>
	<g class="st0">
		<circle class="st1" cx="347" cy="51" r="42"/>
	</g>
	<g class="st0">
		<circle class="st1" cx="42" cy="56" r="32"/>
	</g>
</g>
<g id="streck_färg">
	<g>
		<g>
			<path class="st2" d="M262.1,46l11.1,14.2l-35.4,30.2c0,0-10.8,8.3-15.2,1.7c-4.4-6.6-1-11.6,3.7-13.3L262.1,46z"/>
		</g>
		<g>
			<path class="st3" d="M293.5,47.2c0,0,2.7-1.3,2.6-1.5s-1.1-5.8-1.1-5.8l-1.9-7.8c0,0,1.1-8.7,2.4-10.4c1.4-1.7,4.7-5.1,7.8-5.4
				l-0.8-1.7c0,0-1.9-2.4-3-1.7s-20.3,16.5-20.3,16.5l2.1,2.4L293.5,47.2z"/>
		</g>
		<g>
			<path class="st4" d="M278.3,33.9c0.3-0.5,3-2.2,3-2.2l10.3,13.8l-18.7,15.1l-1.1-1.6l15.7-13.5L278.3,33.9z"/>
		</g>
		<g>
			<g>
				<path class="st5" d="M337.8,41.6l-4-3.1c-0.1-0.1-0.2-0.1-0.3-0.2l-4.2-1.1c-0.2-0.1-0.4-0.2-0.5-0.3c-0.7-0.8-2.9-3.5-3-4.5
					c-0.1-0.9-1.2-1.6-1.7-1.9c-0.1-0.1-0.3-0.2-0.3-0.3l-2.3-3.9c0,0,0,0,0-0.1l-3.8-5.7c-0.1-0.1-0.1-0.2-0.2-0.2
					c-0.8-0.6-4.6-3.3-6.1-4.1c-1.6-0.9-7.2-0.3-9-0.3s-7.1,2.8-8.4,10c-1.2,6.7-0.1,9.9,0.1,10.3c0,0,0,0.1,0,0.1l1.1,4.5l1.1,3.9
					c0.1,0.4-0.1,0.9-0.5,1.1l-1.8,0.9c-0.3,0.2-0.7,0.1-1-0.1l-0.4-0.3c-0.4-0.3-0.9-0.3-1.2,0l-3.8,3.5c0,0,0,0,0,0l-17.9,14.3
					c-0.5,0.4-0.5,1.2,0,1.5c1.7,1.2,5.2,3.6,7.5,3.8c0.2,0,0.3,0.1,0.5,0.2l0.1,0c0.4,0.3,0.5,0.7,0.3,1.1
					c-0.8,2.1-2.8,8.5,0.7,12.5c4.2,4.8,12.4,6.2,12.4,6.2l10.3,2c0.1,0,0.2,0.1,0.3,0.1l4.6,2.8c0,0,0.1,0,0.1,0
					c0.7,0.3,8.1,2.4,8.5,3.2c4.6,0.1,9.4-0.7,11.4-3.3c1.9-2.4,3.6-4.3,4.1-5c0,0,0-0.1,0.1-0.1l8.1-15.5c0-0.1,0.1-0.1,0.1-0.2
					l3.4-13.8c0-0.1,0-0.2,0-0.3l-0.5-6.9c0-0.1,0-0.2,0-0.2l-3.4-10.4C338.1,41.9,338,41.7,337.8,41.6z"/>
			</g>
			<g>
				<path class="st5" d="M280.1,27.5c-0.4-0.1-9.6-0.1-9.8,9.7c0,0.2,0,0.4,0,0.6l6.6-4.7l1.4,0.7l2.5-2.2l-1.6-2.4l0.3-2"/>
			</g>
			<g>
				<path class="st5" d="M290.5,19.5c0,0-3.4-6.9-1.2-11.3c0.9-1.8,2.9-3,4.9-3.9c3.3-1.4,5.9-2.2,11.8,0.8l15.2,8.6
					c1.9,1,6.2,2.8,7.5,4.5l14.9,22c2.5,3.3,6.3,8.1,5.3,12.1c-2.9,11.4-12.2,32.8-17.8,28.9c-12.1-8.5-23-52.9-27.3-65.6
					c-0.6-1.8-2.2-2.5-2.5-2.9C300,11.2,290.5,19.5,290.5,19.5z"/>
			</g>
		</g>
		<g>
			<g>
				<path class="st6" d="M315.6,98.4c0,0-0.1,0-0.1,0c-0.7-0.1-1.2-0.7-1.1-1.3c0-0.1,0.2-1.8,0.7-4.6c0.4-2.2-0.1-4.1-0.4-5.6
					l-0.1-0.5c-0.2-0.7-0.7-2.3-1.1-3.6c-0.6-1.8-1-3-1.1-3.5c-0.1-0.5-1.3-3.4-2.4-5.8c-0.8-1.1-3.8-5.1-4.3-6.4
					c-0.3-0.7-1.3-2.2-2-3.2c-0.8-1.1-1.1-1.5-1.2-1.9c-0.1-0.2-0.5-1.3-1-2.3c-1.3-3-1.8-4.3-1.9-4.7c-0.2-0.6-2.2-4.9-3.4-6.5
					c-0.7-1-1-2.7-1.4-4.7c-0.3-1.8-0.7-3.8-1.4-5.3c-1.8-3.8-1.6-12.6,1.2-17.5c1.9-3.3,4.7-5,6.8-5.8c1-0.4,1.7-0.5,1.8-0.6
					c0,0,0.1,0,0.1,0c0.6-0.1,6.1-0.5,8.7,0.6c2.6,1.1,6.4,4.5,7.5,5.5c1.1,1.1,3.3,4.7,3.5,5.6c0.1,0.2,0.5,1.1,0.8,1.6
					c0.3,0.6,0.7,1.2,0.8,1.7c0.1,0.1,0.5,0.4,0.7,0.6c0.7,0.5,1.5,1.1,1.8,2c0.5,1.5,1,2.8,1.2,3.1c0.2,0.3,1.3,1.3,2.2,2.1
					c0.1,0.1,0.2,0.3,0.3,0.4c0.2,0.5,0.7,1.8,1,2.3c0.3,0.5,0.9,1.6,1.1,1.9c0.1,0.1,0.1,0.2,0.2,0.4l0.5,2
					c0.3,0.6,1.4,2.3,1.7,3.1c0.2,0.5,1.2,2.2,1.7,3.1c0.4,0.5,2.4,2.9,2.9,3.8c0.4,0.6,1.9,2.6,2.4,3.2c0.4,0.5,0.3,1.3-0.2,1.7
					c-0.5,0.4-1.3,0.3-1.7-0.2c-0.2-0.3-2.1-2.6-2.6-3.5c-0.3-0.6-1.9-2.5-2.8-3.6c0,0-0.1-0.1-0.1-0.1c-0.2-0.3-1.6-2.6-1.9-3.6
					c-0.2-0.5-1.1-2-1.6-2.9c-0.1-0.1-0.1-0.2-0.1-0.4l-0.5-2c-0.2-0.4-0.8-1.4-1.1-2c-0.3-0.6-0.7-1.7-0.9-2.2
					c-0.7-0.7-2-1.9-2.3-2.4c-0.5-0.7-1.3-3-1.5-3.7c-0.1-0.2-0.6-0.6-0.9-0.8c-0.6-0.5-1.3-0.9-1.6-1.7c-0.1-0.3-0.4-0.9-0.7-1.4
					c-0.6-1-0.9-1.6-1-2.1c-0.2-0.6-2-3.6-2.9-4.5c-1-1-4.6-4.1-6.7-5c-1.7-0.7-5.9-0.5-7.4-0.4c-0.2,0-0.6,0.2-1.3,0.4
					c-1.7,0.7-4.1,2-5.6,4.7c-2.5,4.4-2.5,12.4-1.1,15.2c0.8,1.8,1.2,3.9,1.6,5.9c0.3,1.5,0.6,3.1,1,3.8c1.2,1.7,3.5,6.4,3.7,7.3
					c0.1,0.4,1.2,2.9,1.8,4.3c0.6,1.5,0.9,2.2,1,2.4c0.1,0.2,0.5,0.8,0.9,1.3c1.1,1.6,2,2.9,2.3,3.8c0.3,0.8,2.6,4,4,5.9
					c0.1,0.1,0.1,0.2,0.1,0.2c0.6,1.3,2.4,5.5,2.6,6.5c0.1,0.4,0.6,1.9,1,3.2c0.5,1.5,1,3,1.2,3.9l0.1,0.5c0.4,1.6,0.9,3.9,0.4,6.6
					c-0.5,2.6-0.7,4.3-0.7,4.3C316.8,97.9,316.3,98.4,315.6,98.4z M304.8,61.1C304.8,61.1,304.8,61.1,304.8,61.1
					C304.8,61.1,304.8,61.1,304.8,61.1z"/>
			</g>
		</g>
		<g>
			<g>
				<path class="st6" d="M293.5,48.4c-0.4,0-0.7-0.2-1-0.5l-13.8-17.5c-0.6-0.7-0.5-1.9,0.3-2.5l19.3-15.8c0.9-0.7,2.2-0.8,3.2-0.2
					c1.5,1,2.9,2.9,3,3c0.4,0.5,0.3,1.3-0.2,1.7c-0.5,0.4-1.3,0.3-1.7-0.2c0,0-1.2-1.6-2.4-2.4c-0.1-0.1-0.2,0-0.3,0L281,29.4
					l12.8,16.1l1.8-1.1c0.6-0.4,1.3-0.2,1.7,0.4c0.4,0.6,0.2,1.3-0.4,1.7l-2.7,1.7C294,48.3,293.7,48.4,293.5,48.4z M280.6,28.9
					L280.6,28.9C280.6,28.9,280.6,28.9,280.6,28.9z"/>
			</g>
		</g>
		<g>
			<g>
				<path class="st6" d="M227.6,96c-2.2,0-4.3-0.8-5.9-2.7c-0.1-0.1-0.2-0.2-0.3-0.3c-3.2-4-2.6-10,1.3-13.4l57.3-49
					c0.5-0.4,1.3-0.4,1.7,0.1c0.4,0.5,0.4,1.3-0.1,1.7l-57.3,49c-3,2.5-3.4,7-1,10c0.1,0.1,0.2,0.2,0.2,0.3
					c4.2,4.8,11.8-1.1,13.3-2.3c2.9-2.4,54.2-44.6,54.2-44.6l1.5,1.9c0,0-51.3,42.2-54.2,44.6C235.2,94,231.2,96,227.6,96z"/>
			</g>
		</g>
		<g>
			<g>
				<path class="st4" d="M278.5,34.4c1.8,2.2,5.1,6.4,7.8,9.6c0.8,0.9,0.6,2.3-0.3,3l-48.5,40.4c-1.2,1-3,0.9-4-0.3
					c-2.2-2.4-5.7-6.3-7.3-8.8c-0.5-0.7-0.3-1.7,0.3-2.3l49.2-42C276.5,33.4,277.8,33.5,278.5,34.4z"/>
			</g>
			<g>
				<path class="st6" d="M235.5,89.3c-1.1,0-2.2-0.5-3.1-1.3c-2.5-2.7-5.8-6.5-7.4-8.9c-0.8-1.2-0.6-2.9,0.6-3.9l49.2-42
					c0.7-0.6,1.5-0.8,2.4-0.8c0.9,0.1,1.7,0.5,2.2,1.2c0.5,0.7,1.2,1.5,1.9,2.4c1.8,2.2,4,4.9,5.8,7.2c1.2,1.4,1,3.6-0.4,4.7
					l-48.5,40.4C237.4,89,236.5,89.3,235.5,89.3z M276.9,34.9c-0.2,0-0.4,0.1-0.5,0.2l-49.2,42c-0.2,0.2-0.2,0.5-0.1,0.7
					c1.6,2.5,5.2,6.4,7.2,8.6c0.6,0.7,1.7,0.7,2.4,0.2l48.5-40.4c0.4-0.3,0.4-0.9,0.1-1.3c-1.9-2.3-4.1-5-5.9-7.2
					c-0.7-0.9-1.4-1.7-1.9-2.4c0,0,0,0,0,0C277.4,35,277.2,34.9,276.9,34.9C276.9,34.9,276.9,34.9,276.9,34.9z"/>
			</g>
		</g>
		<g>
			<g>
				<path class="st6" d="M338.6,43.8c-0.4,0-0.7-0.2-1-0.5c-0.2-0.3-1.4-1.3-4.2-3.6c-0.3-0.3-0.7-0.4-1.1-0.5l-4.2-1.1
					c-0.7-0.2-1-0.8-0.9-1.5c0.2-0.7,0.8-1,1.5-0.9l4.2,1.1c0.7,0.2,1.4,0.5,2,1c4.2,3.5,4.5,3.9,4.6,4.1c0.4,0.6,0.2,1.3-0.3,1.7
					C339.1,43.7,338.8,43.8,338.6,43.8z"/>
			</g>
		</g>
		<g>
			<g>
				<path class="st6" d="M348.8,48.6c-0.4,0-0.8-0.2-1-0.5l-18.7-27.3c-1.6-2.2-3.7-4-6.1-5.5c-6-3.5-16.9-9.5-22.7-10.8
					c-6.9-1.6-10.1,5.1-10.5,6.1c-0.8,4.4,1.7,8.2,1.7,8.2c0.4,0.6,0.2,1.3-0.3,1.7c-0.6,0.4-1.3,0.2-1.7-0.3
					c-0.1-0.2-3.1-4.7-2-10.2c0-0.1,0-0.1,0.1-0.2c1.4-3.4,5.9-9.3,13.3-7.6c6.1,1.4,17.3,7.5,23.4,11.1c2.7,1.6,5,3.6,6.9,6.1
					l18.7,27.3c0.4,0.6,0.2,1.3-0.3,1.7C349.3,48.5,349,48.6,348.8,48.6z"/>
			</g>
		</g>
		<g>
			<g>
				<path class="st6" d="M270.2,39.3c-0.7,0-1.2-0.5-1.2-1.2c-0.1-3.3,0.9-6,2.9-8c3.6-3.7,9.2-3.8,9.4-3.8c0,0,0,0,0,0
					c0.7,0,1.2,0.5,1.2,1.2c0,0.7-0.5,1.2-1.2,1.2c-0.4,0-10.1,0.3-9.9,9.4C271.5,38.7,270.9,39.2,270.2,39.3
					C270.2,39.3,270.2,39.3,270.2,39.3z"/>
			</g>
		</g>
		<g>
			<g>
				<path class="st6" d="M298.9,52.6c-0.5,0-6.4-0.4-7.5-0.5c0,0-0.1,0-0.1,0l-4.6-0.8c-0.7-0.1-1.1-0.8-1-1.4
					c0.1-0.7,0.8-1.1,1.4-1l4.5,0.8c2.6,0.2,6.9,0.5,7.3,0.5c0.7,0,1.2,0.6,1.2,1.2C300.1,52,299.6,52.6,298.9,52.6z"/>
			</g>
		</g>
		<g>
			<g>
				<path class="st6" d="M312.7,77.6c-0.2,0-0.4,0-0.5-0.1c-0.3-0.1-0.5-0.3-0.8-0.6c-0.9-0.7-2.4-1.9-5.1-2.3
					c-3.8-0.7-10.7-1.5-10.7-1.5l-20.2-2.4c-0.1,0-0.1,0-0.2,0c-1.2-0.3-7.2-2.2-7.6-5.6c-0.1-0.7,0.4-1.3,1.1-1.4
					c0.7-0.1,1.3,0.4,1.4,1.1c0.2,1.2,3.4,2.8,5.8,3.5l20.2,2.4c0.1,0,7,0.9,10.9,1.5c3.3,0.6,5.2,2,6.2,2.8
					c0.2,0.1,0.3,0.3,0.4,0.3c0.6,0.3,0.8,1.1,0.5,1.6C313.6,77.3,313.2,77.6,312.7,77.6z"/>
			</g>
		</g>
		<g>
			<g>
				<path class="st6" d="M316.2,98.6C316.2,98.6,316.1,98.6,316.2,98.6l-3.6-0.3c-0.3,0-0.5-0.1-0.7-0.3c-0.9-0.8-2.1-1.3-3.3-1.6
					l-2.3-0.5c-0.6-0.1-1.1-0.3-1.6-0.6l-3.5-2.1c-0.3-0.2-0.7-0.3-1-0.4l-6.1-1.5c-1-0.1-10.7-1.6-15.6-6.2
					c-4.5-4.2-2.8-11.9-1.8-14.5c0.3-0.7,0.7-1.7,1.6-1.7c0.7,0,1.2,0.5,1.2,1.2c0,0.4-0.2,0.7-0.4,0.9c-0.6,1.2-2.8,8.7,1,12.2
					c4.6,4.2,14.3,5.6,14.4,5.6c0,0,0.1,0,0.1,0l6.2,1.5c0.6,0.2,1.2,0.4,1.7,0.7l3.5,2.1c0.3,0.2,0.5,0.3,0.8,0.3l2.3,0.5
					c1.4,0.3,2.8,1,4,1.9l3.1,0.2c0.7,0.1,1.2,0.6,1.1,1.3C317.4,98.2,316.8,98.6,316.2,98.6z M278.3,71.3L278.3,71.3L278.3,71.3z
					 M278.3,71.3L278.3,71.3L278.3,71.3z M278.3,71.3L278.3,71.3L278.3,71.3z M278.3,71.3C278.3,71.3,278.3,71.3,278.3,71.3
					C278.3,71.3,278.3,71.3,278.3,71.3z M278.3,71.3L278.3,71.3L278.3,71.3z M278.3,71.3L278.3,71.3L278.3,71.3z"/>
			</g>
		</g>
		<g>
			<g>
				<g>
					<path class="st6" d="M242.3,77.4C242.3,77.4,242.2,77.4,242.3,77.4c-0.3,0-0.5-0.1-0.6-0.3l-3.1-4c-0.3-0.4-0.2-0.9,0.1-1.1
						l4-3.1c0.4-0.3,0.9-0.2,1.1,0.1l3.1,4c0.3,0.4,0.2,0.9-0.1,1.1l-4,3.1C242.7,77.4,242.5,77.4,242.3,77.4z M240.3,72.8l2.1,2.7
						l2.7-2.1l-2.1-2.7L240.3,72.8z"/>
				</g>
			</g>
			<g>
				<g>
					<path class="st6" d="M236.6,82C236.6,82,236.5,82,236.6,82c-0.3,0-0.5-0.1-0.6-0.3l-3.1-4c-0.3-0.4-0.2-0.9,0.1-1.1l4-3.1
						c0.4-0.3,0.9-0.2,1.1,0.1l3.1,4c0.3,0.4,0.2,0.9-0.1,1.1l-4,3.1C237,81.9,236.8,82,236.6,82z M234.6,77.3l2.1,2.7l2.7-2.1
						l-2.1-2.7L234.6,77.3z"/>
				</g>
			</g>
			<g>
				<g>
					<path class="st2" d="M240.9,72c0.1-0.1,0.2-0.1,0.3,0l2.1,2.2l-0.6-4.2c0-0.3,0.4-0.4,0.4-0.1l0.7,4.9c0,0.2-0.2,0.4-0.4,0.2
						l-2.4-2.5l-0.6,0.6c-0.3,0.2-0.5-0.1-0.3-0.3L240.9,72z"/>
					<path class="st7" d="M244,75.6l-0.1-0.1c-0.3,0.1-0.5,0-0.8-0.2l-2.1-2.1l-0.2,0.2c-0.3,0.3-0.8,0.3-1,0c-0.3-0.3-0.3-0.7,0-1
						l0.8-0.7c0.1-0.1,0.3-0.2,0.5-0.2c0.2,0,0.4,0.1,0.5,0.2l1.1,1.1l-0.4-2.8c0-0.4,0.2-0.8,0.6-0.8c0.4-0.1,0.7,0.2,0.8,0.6
						l0.7,4.9c0,0.3-0.1,0.6-0.3,0.7L244,75.6z"/>
				</g>
			</g>
		</g>
		<g>
			<g>
				<path class="st8" d="M250.9,60.7l2.5-2.1c0.6-0.6,1.3-0.8,1.9-0.7c0.6,0.1,1.1,0.3,1.6,0.8c0.9,1.1,0.8,2.4-0.4,3.4l-1.4,1.2
					l1.9,2.1l-1.1,0.9L250.9,60.7z M254.3,62.4l1.3-1.1c0.7-0.6,0.7-1.2,0.2-1.8c-0.5-0.6-1.1-0.6-1.7,0l-1.3,1.1L254.3,62.4z"/>
			</g>
			<g>
				<path class="st8" d="M258.8,57.8L258.8,57.8c-0.2-0.8,0-1.4,0.5-1.8c0.1-0.1,0.2-0.2,0.3-0.2l0.8,0.9l0,0
					c-0.1,0.1-0.2,0.1-0.3,0.2c-0.7,0.5-0.8,1.4-0.1,2.2l1.8,2.1l-1,0.8l-3.5-4.1l0.9-0.8L258.8,57.8z"/>
			</g>
			<g>
				<path class="st8" d="M261.8,57.6c-1.1-1.2-1.1-2.9,0.2-4c1.3-1.1,2.9-0.9,3.9,0.4c1,1.2,1.1,2.9-0.2,4
					C264.4,59.1,262.8,58.8,261.8,57.6z M264.9,54.9c-0.7-0.8-1.6-1.1-2.3-0.5c-0.7,0.6-0.6,1.6,0.2,2.4c0.7,0.8,1.6,1.1,2.3,0.5
					C265.8,56.6,265.6,55.7,264.9,54.9z"/>
			</g>
			<g>
				<path class="st8" d="M264.3,51.8l1-0.9l2.2,1.4c0.7,0.4,1.5,1.1,1.5,1.1l0,0c0,0-0.5-1-0.8-1.7l-1-2.4l1-0.9l2.1,5.3l-1.1,0.9
					L264.3,51.8z"/>
			</g>
		</g>
	</g>
	<g>
		<circle class="st9" cx="110.9" cy="87.4" r="0.5"/>
	</g>
	<g>
		<g>
			<path class="st1" d="M146.4,23.2c1.1,1.4,3.2,1.7,4.6,0.6c1.4-1.1,1.7-3.2,0.6-4.6c-1.1-1.4-3.2-1.7-4.6-0.6
				C145.6,19.6,145.3,21.7,146.4,23.2z"/>
		</g>
		<g>
			<g>
				<circle class="st1" cx="114.2" cy="51.8" r="3.3"/>
			</g>
			<g>
				<path class="st1" d="M150,85.6c-1-1.6-3-2-4.5-1.1c-1.6,1-2,3-1.1,4.5c1,1.6,3,2,4.5,1.1C150.5,89.2,150.9,87.1,150,85.6z"/>
			</g>
			<g>
				<path class="st1" d="M176.7,43.4c1.5,1,3.6,0.6,4.6-0.9c1-1.5,0.6-3.6-0.9-4.6c-1.5-1-3.6-0.6-4.6,0.9
					C174.7,40.3,175.1,42.3,176.7,43.4z"/>
			</g>
			<g>
				<g>
					<path class="st1" d="M122.8,30.1c-0.3,1.8,0.9,3.5,2.7,3.8c0.7,0.1,1.4,0,2-0.3c1.5,1,2.2,2.1,2.6,3.1
						c-1.4,1.6-2.6,3.3-3.5,5.1c-0.8,0-1.7-0.3-2.4-0.6c-0.4-0.2-0.6-0.5-0.6-0.9c-0.1-0.5-0.3-1.1-0.9-1.4c-0.6-0.4-1.5-0.4-2.1,0
						c-1,0.7-1.1,2.1-0.2,2.9c0.6,0.6,1.5,0.7,2.2,0.3c0.4-0.2,0.8-0.2,1.2,0.1c0.8,0.5,1.4,1.2,1.9,1.8c-0.8,2.1-1.3,4.3-1.5,6.6
						c-1.7,0.7-3.7,0.4-4.7,0.3c-0.3,0-0.5,0.2-0.5,0.4l-0.1,1.5c0,0.3,0.2,0.5,0.5,0.5c2.2-0.3,3.8,0.2,4.8,0.7
						c0.1,1.9,0.4,3.7,1,5.5c-0.5,0.8-1.5,1.7-2.5,2.1c-0.4,0.2-0.8,0.1-1.1-0.1c-0.4-0.3-1-0.4-1.6-0.2c-0.7,0.2-1.3,0.9-1.3,1.6
						c-0.1,1.2,0.9,2.2,2.1,2c0.8-0.1,1.5-0.7,1.6-1.5c0.1-0.4,0.4-0.7,0.8-0.9c1.1-0.4,2.4-0.3,3-0.3c0.4,0.8,0.7,1.6,1.2,2.3
						c0.8,1.3,1.6,2.5,2.6,3.6c-0.5,1.2-1.2,2.4-2,3.3c-0.5,0.5-1.1,0.8-1.8,0.6c-0.9-0.2-1.9,0.1-2.7,0.8c-1,0.9-1.4,2.3-0.9,3.6
						c0.7,2,3,2.8,4.8,1.8c1.3-0.8,1.9-2.2,1.5-3.6c-0.2-0.7,0.1-1.5,0.6-1.9c1-0.9,2.1-1.5,3.1-2c1.4,1.2,3,2.2,4.6,3
						c0.3,0.9,0.2,2.2-0.1,3.2c-0.1,0.4-0.4,0.7-0.8,0.8c-0.5,0.1-1,0.5-1.2,1.1c-0.3,0.7-0.2,1.5,0.4,2.1c0.9,0.9,2.3,0.7,2.9-0.2
						c0.5-0.7,0.4-1.6-0.1-2.2c-0.3-0.3-0.3-0.8-0.1-1.2c0.5-1,1.2-1.9,1.7-2.3c1.6,0.6,3.3,1,5,1.2c1.8,1.6,1.5,4.8,1.3,6
						c0,0.3,0.2,0.5,0.4,0.5l1.5,0.1c0.3,0,0.5-0.2,0.5-0.5c-0.6-3.6,0.9-5.4,1.6-6.1c1.6-0.2,3.2-0.5,4.8-1c0.4,0.4,0.8,1,1.1,1.5
						c0.2,0.3,0.2,0.8,0,1.1c-0.3,0.5-0.4,1-0.1,1.6c0.3,0.7,1,1.2,1.7,1.2c1.2,0,2.1-1.1,1.9-2.2c-0.1-0.8-0.8-1.5-1.6-1.6
						c-0.4-0.1-0.8-0.3-0.9-0.7c-0.2-0.5-0.3-1-0.4-1.5c1-0.4,2.1-0.9,3-1.5c0.7-0.4,1.4-0.9,2-1.3c2.2-0.2,4,1.7,5,2.9
						c-0.1,0.2-0.3,0.5-0.3,0.8c-0.5,1.8,0.6,3.6,2.4,4c1.8,0.5,3.6-0.6,4-2.4c0.5-1.8-0.6-3.6-2.4-4c-0.7-0.2-1.4-0.1-2,0.1
						c-2.6-2.2-2.7-4.6-2.6-5.4c2-2.4,3.4-5.1,4.4-8c0.8-0.4,2.2-0.4,3.2-0.2c0.4,0.1,0.7,0.3,0.8,0.7c0.2,0.5,0.6,0.9,1.2,1.1
						c0.7,0.2,1.5,0,2-0.6c0.8-0.9,0.5-2.3-0.5-2.9c-0.7-0.4-1.6-0.3-2.2,0.3c-0.3,0.3-0.7,0.4-1.1,0.2c-1.2-0.4-2.2-1.2-2.7-1.6
						c0.7-3.6,0.5-7.4-0.6-11c1.2-1.2,3-1.8,3.9-2c0.3-0.1,0.4-0.4,0.3-0.6l-0.5-1.4c-0.1-0.3-0.4-0.4-0.7-0.2c-1.6,1-2.9,1.4-4,1.4
						c-0.4-0.8-0.8-1.6-1.2-2.4c-1.5-2.5-3.3-4.6-5.4-6.3c-0.1-0.9,0.4-2.2,0.9-3.1c0.2-0.3,0.6-0.5,1-0.5c0.5,0,1.1-0.2,1.5-0.7
						c0.5-0.6,0.6-1.4,0.2-2.1c-0.6-1.1-2-1.3-2.9-0.6c-0.7,0.5-0.8,1.4-0.5,2.2c0.2,0.4,0.1,0.8-0.2,1.2c-0.8,1-1.9,1.6-2.4,1.9
						c-2.8-1.8-6-2.9-9.3-3.3c-0.3-1.1-0.3-2.3-0.2-2.9c0-0.3-0.2-0.5-0.5-0.5l-1.5,0.1c-0.3,0-0.5,0.3-0.4,0.6
						c0.3,1,0.3,1.8,0.3,2.6c-4.4-0.2-8.9,0.9-12.9,3.3c-1.1,0.7-2.1,1.4-3.1,2.2c-1.4-0.4-2.7-1.6-3.5-2.4c0.1-0.3,0.2-0.5,0.3-0.8
						c0.3-1.8-0.9-3.5-2.7-3.8C124.8,27.1,123.1,28.3,122.8,30.1z M159,69.8c0.2,0.4,0.1,0.9-0.2,1.1c-0.4,0.2-0.9,0.1-1.1-0.2
						c-0.2-0.4-0.1-0.9,0.2-1.1C158.3,69.3,158.8,69.4,159,69.8z M141.9,42.8c0.6-0.4,1.3-0.2,1.7,0.4c0.4,0.6,0.2,1.3-0.4,1.7
						c-0.6,0.4-1.3,0.2-1.7-0.4C141.2,43.9,141.3,43.1,141.9,42.8z M137,47.9c-0.2-0.4-0.1-0.9,0.2-1.1c0.4-0.2,0.9-0.1,1.1,0.2
						c0.2,0.4,0.1,0.9-0.2,1.1S137.3,48.3,137,47.9z M127.3,58.8c-0.3-0.4-0.2-1,0.3-1.3c0.4-0.3,1-0.2,1.3,0.3
						c0.3,0.4,0.2,1-0.3,1.3C128.1,59.3,127.6,59.2,127.3,58.8z M130.7,64.5c-0.3-0.5-0.2-1.2,0.3-1.6c0.5-0.3,1.2-0.2,1.6,0.3
						s0.2,1.2-0.3,1.6C131.7,65.1,131,65,130.7,64.5z M146.9,54c0.8,0.2,1.4,1,1.2,1.8c-0.2,0.8-1,1.4-1.8,1.2
						c-0.8-0.2-1.4-1-1.2-1.8C145.3,54.3,146.1,53.8,146.9,54z M136.2,69.6c-0.3-0.5-0.2-1.2,0.3-1.6c0.5-0.3,1.2-0.2,1.6,0.3
						c0.3,0.5,0.2,1.2-0.3,1.6C137.2,70.3,136.5,70.2,136.2,69.6z M149,66.5c0.4-0.2,0.9-0.1,1.1,0.2c0.2,0.4,0.1,0.9-0.2,1.1
						c-0.4,0.2-0.9,0.1-1.1-0.2C148.5,67.3,148.6,66.8,149,66.5z M142.4,72.7c-0.2-0.4-0.1-0.9,0.2-1.1c0.4-0.2,0.9-0.1,1.1,0.2
						c0.2,0.4,0.1,0.9-0.2,1.1C143.2,73.2,142.7,73,142.4,72.7z M148.9,72.4c0.2,0.4,0.1,0.9-0.2,1.1c-0.4,0.2-0.9,0.1-1.1-0.2
						c-0.2-0.4-0.1-0.9,0.2-1.1C148.2,71.9,148.7,72,148.9,72.4z M163.2,60.2c0.8,0.2,1.4,1,1.2,1.8c-0.2,0.8-1,1.4-1.8,1.2
						c-0.8-0.2-1.4-1-1.2-1.8C161.5,60.5,162.4,60,163.2,60.2z M158.7,61.3c0.4,0.6,0.2,1.3-0.4,1.7c-0.6,0.4-1.3,0.2-1.7-0.4
						c-0.4-0.6-0.2-1.3,0.4-1.7C157.6,60.6,158.4,60.7,158.7,61.3z M155.4,62.8c0.4,0.6,0.2,1.3-0.4,1.7c-0.6,0.4-1.3,0.2-1.7-0.4
						c-0.4-0.6-0.2-1.3,0.4-1.7C154.3,62.1,155.1,62.3,155.4,62.8z M151,62.9c-0.6,0.4-1.3,0.2-1.7-0.4c-0.4-0.6-0.2-1.3,0.4-1.7
						c0.6-0.4,1.3-0.2,1.7,0.4C151.7,61.8,151.5,62.5,151,62.9z M154.6,57.1c0.8,0.2,1.4,1,1.2,1.8c-0.2,0.8-1,1.4-1.8,1.2
						s-1.4-1-1.2-1.8C152.9,57.5,153.8,57,154.6,57.1z M133.7,69c-0.5,0.3-1.2,0.2-1.6-0.3s-0.2-1.2,0.3-1.6
						c0.5-0.3,1.2-0.2,1.6,0.3C134.4,68,134.2,68.7,133.7,69z M135.3,64.9c-0.5-0.9-0.2-2.1,0.7-2.6c0.9-0.5,2.1-0.2,2.6,0.7
						c0.5,0.9,0.2,2.1-0.7,2.6C137,66.1,135.8,65.8,135.3,64.9z M143.9,59.1c0.4-0.2,0.9-0.1,1.1,0.2c0.2,0.4,0.1,0.9-0.2,1.1
						c-0.4,0.2-0.9,0.1-1.1-0.2C143.4,59.8,143.5,59.3,143.9,59.1z M157.1,49.9c0.9,1.5,0.4,3.5-1.1,4.4c-1.5,0.9-3.5,0.4-4.4-1.1
						c-0.9-1.5-0.4-3.5,1.1-4.4C154.3,47.9,156.2,48.4,157.1,49.9z M129,62.5c-0.4,0.2-0.9,0.1-1.1-0.2c-0.2-0.4-0.1-0.9,0.2-1.1
						c0.4-0.2,0.9-0.1,1.1,0.2C129.5,61.8,129.4,62.3,129,62.5z M132.7,56.1c-0.9-1.5-0.4-3.5,1.1-4.4c1.5-0.9,3.5-0.4,4.4,1.1
						c0.9,1.5,0.4,3.5-1.1,4.4C135.6,58.1,133.6,57.6,132.7,56.1z M141.7,49.9c0.8,0.2,1.4,1,1.2,1.8c-0.2,0.8-1,1.4-1.8,1.2
						c-0.8-0.2-1.4-1-1.2-1.8C140.1,50.3,140.9,49.8,141.7,49.9z M146.9,51.3c-0.6,0.4-1.3,0.2-1.7-0.4c-0.4-0.6-0.2-1.3,0.4-1.7
						c0.6-0.4,1.3-0.2,1.7,0.4C147.6,50.1,147.5,50.9,146.9,51.3z M150,48.4c-0.8-0.2-1.4-1-1.2-1.8c0.2-0.8,1-1.4,1.8-1.2
						c0.8,0.2,1.4,1,1.2,1.8C151.7,48,150.9,48.6,150,48.4z M162.3,35.5c0.4,0.6,0.2,1.3-0.4,1.7c-0.6,0.4-1.3,0.2-1.7-0.4
						c-0.4-0.6-0.2-1.3,0.4-1.7C161.2,34.8,162,35,162.3,35.5z M157.8,40.2c0.9,1.5,0.4,3.5-1.1,4.4c-1.5,0.9-3.5,0.4-4.4-1.1
						c-0.9-1.5-0.4-3.5,1.1-4.4C155,38.2,156.9,38.7,157.8,40.2z M146.7,43c-0.6,0.4-1.3,0.2-1.7-0.4s-0.2-1.3,0.4-1.7
						c0.6-0.4,1.3-0.2,1.7,0.4C147.4,41.9,147.2,42.6,146.7,43z M154.7,35.5c0.2,0.4,0.1,0.9-0.2,1.1c-0.4,0.2-0.9,0.1-1.1-0.2
						c-0.2-0.4-0.1-0.9,0.2-1.1C153.9,35,154.5,35.1,154.7,35.5z M128.4,44.7c-0.3-0.4-0.2-1,0.3-1.3c0.4-0.3,1-0.2,1.3,0.3
						c0.3,0.4,0.2,1-0.3,1.3C129.2,45.3,128.7,45.1,128.4,44.7z M139.2,36.3c0.6-0.4,1.3-0.2,1.7,0.4c0.4,0.6,0.2,1.3-0.4,1.7
						c-0.6,0.4-1.3,0.2-1.7-0.4C138.5,37.5,138.6,36.7,139.2,36.3z M126.5,49.9c-0.2-0.4-0.1-0.9,0.2-1.1c0.4-0.2,0.9-0.1,1.1,0.2
						c0.2,0.4,0.1,0.9-0.2,1.1C127.3,50.4,126.8,50.3,126.5,49.9z M130.6,48.7c-0.4,0.2-0.9,0.1-1.1-0.2c-0.2-0.4-0.1-0.9,0.2-1.1
						c0.4-0.2,0.9-0.1,1.1,0.2C131,47.9,130.9,48.4,130.6,48.7z M155.5,31.5c0.2,0.4,0.1,0.9-0.2,1.1c-0.4,0.2-0.9,0.1-1.1-0.2
						c-0.2-0.4-0.1-0.9,0.2-1.1C154.7,31,155.2,31.1,155.5,31.5z M136,42.4c0.3,0.4,0.2,1-0.3,1.3c-0.4,0.3-1,0.2-1.3-0.3
						c-0.3-0.4-0.2-1,0.3-1.3C135.1,41.9,135.7,42,136,42.4z M150.1,31.8c0.4,0.6,0.2,1.3-0.4,1.7c-0.6,0.4-1.3,0.2-1.7-0.4
						s-0.2-1.3,0.4-1.7C149,31.1,149.7,31.3,150.1,31.8z M146.3,32.9c0.2,0.4,0.1,0.9-0.2,1.1c-0.4,0.2-0.9,0.1-1.1-0.2
						c-0.2-0.4-0.1-0.9,0.2-1.1C145.5,32.4,146,32.5,146.3,32.9z M133.3,39.1c0.3,0.4,0.2,1-0.3,1.3c-0.4,0.3-1,0.2-1.3-0.3
						c-0.3-0.4-0.2-1,0.3-1.3C132.5,38.6,133,38.7,133.3,39.1z M141.5,31.8c0.2,0.4,0.1,0.9-0.2,1.1c-0.4,0.2-0.9,0.1-1.1-0.2
						c-0.2-0.4-0.1-0.9,0.2-1.1C140.8,31.3,141.3,31.4,141.5,31.8z"/>
				</g>
				<g>
					<g>
						<path class="st10" d="M138.2,52.9c-0.9-1.5-2.9-2-4.4-1.1c-1.5,0.9-2,2.9-1.1,4.4c0.9,1.5,2.9,2,4.4,1.1
							C138.6,56.3,139.1,54.4,138.2,52.9z"/>
					</g>
					<g>
						<path class="st10" d="M138.6,62.9c-0.5-0.9-1.7-1.2-2.6-0.7c-0.9,0.5-1.2,1.7-0.7,2.6c0.5,0.9,1.7,1.2,2.6,0.7
							C138.8,65,139.1,63.8,138.6,62.9z"/>
					</g>
					<g>
						<path class="st10" d="M141.1,52.9c0.8,0.2,1.6-0.3,1.8-1.2c0.2-0.8-0.3-1.6-1.2-1.8c-0.8-0.2-1.6,0.3-1.8,1.2
							C139.7,51.9,140.2,52.8,141.1,52.9z"/>
					</g>
					<g>
						<path class="st10" d="M146.3,57c0.8,0.2,1.6-0.3,1.8-1.2c0.2-0.8-0.3-1.6-1.2-1.8c-0.8-0.2-1.6,0.3-1.8,1.2
							C144.9,56,145.4,56.8,146.3,57z"/>
					</g>
					<g>
						<path class="st10" d="M150.7,45.4c-0.8-0.2-1.6,0.3-1.8,1.2c-0.2,0.8,0.3,1.6,1.2,1.8c0.8,0.2,1.6-0.3,1.8-1.2
							C152,46.4,151.5,45.6,150.7,45.4z"/>
					</g>
					<g>
						<path class="st10" d="M162.5,63.2c0.8,0.2,1.6-0.3,1.8-1.2c0.2-0.8-0.3-1.6-1.2-1.8s-1.6,0.3-1.8,1.2
							C161.2,62.2,161.7,63,162.5,63.2z"/>
					</g>
					<g>
						<path class="st10" d="M153.9,60.1c0.8,0.2,1.6-0.3,1.8-1.2c0.2-0.8-0.3-1.6-1.2-1.8c-0.8-0.2-1.6,0.3-1.8,1.2
							C152.6,59.1,153.1,59.9,153.9,60.1z"/>
					</g>
					<g>
						<path class="st10" d="M140.5,38.4c0.6-0.4,0.7-1.1,0.4-1.7c-0.4-0.6-1.1-0.7-1.7-0.4c-0.6,0.4-0.7,1.1-0.4,1.7
							C139.2,38.6,139.9,38.8,140.5,38.4z"/>
					</g>
					<g>
						<path class="st10" d="M153.4,64.1c0.4,0.6,1.1,0.7,1.7,0.4c0.6-0.4,0.7-1.1,0.4-1.7c-0.4-0.6-1.1-0.7-1.7-0.4
							C153.2,62.8,153,63.6,153.4,64.1z"/>
					</g>
					<g>
						<path class="st10" d="M156.7,62.6c0.4,0.6,1.1,0.7,1.7,0.4c0.6-0.4,0.7-1.1,0.4-1.7c-0.4-0.6-1.1-0.7-1.7-0.4
							C156.5,61.3,156.3,62,156.7,62.6z"/>
					</g>
					<g>
						<path class="st10" d="M160.3,36.8c0.4,0.6,1.1,0.7,1.7,0.4c0.6-0.4,0.7-1.1,0.4-1.7c-0.4-0.6-1.1-0.7-1.7-0.4
							C160.1,35.5,159.9,36.3,160.3,36.8z"/>
					</g>
					<g>
						<path class="st10" d="M148,33.1c0.4,0.6,1.1,0.7,1.7,0.4c0.6-0.4,0.7-1.1,0.4-1.7c-0.4-0.6-1.1-0.7-1.7-0.4
							C147.8,31.8,147.7,32.6,148,33.1z"/>
					</g>
					<g>
						<path class="st10" d="M145.6,49.2c-0.6,0.4-0.7,1.1-0.4,1.7c0.4,0.6,1.1,0.7,1.7,0.4c0.6-0.4,0.7-1.1,0.4-1.7
							C146.9,49,146.2,48.8,145.6,49.2z"/>
					</g>
					<g>
						<path class="st10" d="M149.7,60.9c-0.6,0.4-0.7,1.1-0.4,1.7c0.4,0.6,1.1,0.7,1.7,0.4c0.6-0.4,0.7-1.1,0.4-1.7
							C151,60.7,150.2,60.5,149.7,60.9z"/>
					</g>
					<g>
						<path class="st10" d="M143.8,71.8c-0.2-0.4-0.8-0.5-1.1-0.2c-0.4,0.2-0.5,0.8-0.2,1.1c0.2,0.4,0.8,0.5,1.1,0.2
							C144,72.7,144.1,72.2,143.8,71.8z"/>
					</g>
					<g>
						<path class="st10" d="M138.1,68.4c-0.3-0.5-1-0.7-1.6-0.3c-0.5,0.3-0.7,1-0.3,1.6s1,0.7,1.6,0.3
							C138.3,69.6,138.4,68.9,138.1,68.4z"/>
					</g>
					<g>
						<path class="st10" d="M132.5,67.1c-0.5,0.3-0.7,1-0.3,1.6s1,0.7,1.6,0.3c0.5-0.3,0.7-1,0.3-1.6
							C133.7,66.9,133,66.8,132.5,67.1z"/>
					</g>
					<g>
						<path class="st10" d="M132.6,63.2c-0.3-0.5-1-0.7-1.6-0.3c-0.5,0.3-0.7,1-0.3,1.6c0.3,0.5,1,0.7,1.6,0.3
							C132.8,64.5,132.9,63.8,132.6,63.2z"/>
					</g>
					<g>
						<path class="st10" d="M144.8,60.5c0.4-0.2,0.5-0.8,0.2-1.1c-0.2-0.4-0.8-0.5-1.1-0.2c-0.4,0.2-0.5,0.8-0.2,1.1
							C143.9,60.6,144.4,60.7,144.8,60.5z"/>
					</g>
					<g>
						<path class="st10" d="M149.9,67.9c0.4-0.2,0.5-0.8,0.2-1.1c-0.2-0.4-0.8-0.5-1.1-0.2c-0.4,0.2-0.5,0.8-0.2,1.1
							C149,68.1,149.5,68.2,149.9,67.9z"/>
					</g>
					<g>
						<path class="st10" d="M147.5,73.3c0.2,0.4,0.8,0.5,1.1,0.2c0.4-0.2,0.5-0.8,0.2-1.1c-0.2-0.4-0.8-0.5-1.1-0.2
							C147.4,72.4,147.3,72.9,147.5,73.3z"/>
					</g>
					<g>
						<path class="st10" d="M157.7,70.7c0.2,0.4,0.8,0.5,1.1,0.2c0.4-0.2,0.5-0.8,0.2-1.1s-0.8-0.5-1.1-0.2
							C157.5,69.8,157.4,70.3,157.7,70.7z"/>
					</g>
					<g>
						<path class="st10" d="M138.4,47c-0.2-0.4-0.8-0.5-1.1-0.2c-0.4,0.2-0.5,0.8-0.2,1.1s0.8,0.5,1.1,0.2S138.6,47.4,138.4,47z"/>
					</g>
					<g>
						<path class="st10" d="M129.7,47.3c-0.4,0.2-0.5,0.8-0.2,1.1c0.2,0.4,0.8,0.5,1.1,0.2c0.4-0.2,0.5-0.8,0.2-1.1
							C130.6,47.1,130,47,129.7,47.3z"/>
					</g>
					<g>
						<path class="st10" d="M127.9,49c-0.2-0.4-0.8-0.5-1.1-0.2c-0.4,0.2-0.5,0.8-0.2,1.1c0.2,0.4,0.8,0.5,1.1,0.2
							C128,49.9,128.1,49.4,127.9,49z"/>
					</g>
					<g>
						<path class="st10" d="M128.1,61.2c-0.4,0.2-0.5,0.8-0.2,1.1c0.2,0.4,0.8,0.5,1.1,0.2c0.4-0.2,0.5-0.8,0.2-1.1
							C129,61,128.5,60.9,128.1,61.2z"/>
					</g>
					<g>
						<path class="st10" d="M128.8,57.8c-0.3-0.4-0.8-0.6-1.3-0.3c-0.4,0.3-0.6,0.8-0.3,1.3c0.3,0.4,0.8,0.6,1.3,0.3
							C129,58.8,129.1,58.2,128.8,57.8z"/>
					</g>
					<g>
						<path class="st10" d="M134.4,43.4c0.3,0.4,0.8,0.6,1.3,0.3c0.4-0.3,0.6-0.8,0.3-1.3c-0.3-0.4-0.8-0.6-1.3-0.3
							C134.3,42.4,134.2,43,134.4,43.4z"/>
					</g>
					<g>
						<path class="st10" d="M129.9,43.7c-0.3-0.4-0.8-0.6-1.3-0.3c-0.4,0.3-0.6,0.8-0.3,1.3c0.3,0.4,0.8,0.6,1.3,0.3
							C130.1,44.7,130.2,44.1,129.9,43.7z"/>
					</g>
					<g>
						<path class="st10" d="M131.8,40.1c0.3,0.4,0.8,0.6,1.3,0.3c0.4-0.3,0.6-0.8,0.3-1.3c-0.3-0.4-0.8-0.6-1.3-0.3
							C131.6,39.1,131.5,39.7,131.8,40.1z"/>
					</g>
					<g>
						<path class="st10" d="M140.1,32.7c0.2,0.4,0.8,0.5,1.1,0.2c0.4-0.2,0.5-0.8,0.2-1.1c-0.2-0.4-0.8-0.5-1.1-0.2
							C140,31.8,139.9,32.3,140.1,32.7z"/>
					</g>
					<g>
						<path class="st10" d="M144.9,33.8c0.2,0.4,0.8,0.5,1.1,0.2c0.4-0.2,0.5-0.8,0.2-1.1c-0.2-0.4-0.8-0.5-1.1-0.2
							C144.8,32.9,144.6,33.4,144.9,33.8z"/>
					</g>
					<g>
						<path class="st10" d="M153.3,36.4c0.2,0.4,0.8,0.5,1.1,0.2c0.4-0.2,0.5-0.8,0.2-1.1c-0.2-0.4-0.8-0.5-1.1-0.2
							C153.2,35.5,153.1,36,153.3,36.4z"/>
					</g>
					<g>
						<path class="st10" d="M154.1,32.4c0.2,0.4,0.8,0.5,1.1,0.2c0.4-0.2,0.5-0.8,0.2-1.1c-0.2-0.4-0.8-0.5-1.1-0.2
							C153.9,31.5,153.8,32,154.1,32.4z"/>
					</g>
					<g>
						<path class="st10" d="M143.2,44.8c0.6-0.4,0.7-1.1,0.4-1.7c-0.4-0.6-1.1-0.7-1.7-0.4c-0.6,0.4-0.7,1.1-0.4,1.7
							C141.9,45,142.6,45.2,143.2,44.8z"/>
					</g>
					<g>
						<path class="st10" d="M145.4,40.9c-0.6,0.4-0.7,1.1-0.4,1.7s1.1,0.7,1.7,0.4c0.6-0.4,0.7-1.1,0.4-1.7
							C146.7,40.7,145.9,40.6,145.4,40.9z"/>
					</g>
					<g>
						<path class="st10" d="M152.3,43.5c0.9,1.5,2.9,2,4.4,1.1c1.5-0.9,2-2.9,1.1-4.4c-0.9-1.5-2.9-2-4.4-1.1
							C151.9,40,151.4,42,152.3,43.5z"/>
					</g>
					<g>
						<path class="st10" d="M151.6,53.2c0.9,1.5,2.9,2,4.4,1.1c1.5-0.9,2-2.9,1.1-4.4c-0.9-1.5-2.9-2-4.4-1.1
							C151.3,49.7,150.7,51.7,151.6,53.2z"/>
					</g>
				</g>
			</g>
		</g>
	</g>
	<g>
		<g>
			<g>
				<circle class="st11" cx="82.6" cy="86.3" r="4.4"/>
			</g>
			<g>
				<path class="st11" d="M105.9,25.8c-1.4,1.9-1,4.7,0.9,6.1c1.9,1.4,4.7,1,6.1-0.9c1.4-1.9,1-4.7-0.9-6.1
					C110,23.4,107.3,23.8,105.9,25.8z"/>
			</g>
			<g>
				<path class="st11" d="M41.1,14.3c0.5-2.4-1-4.7-3.4-5.1c-2.4-0.5-4.7,1-5.1,3.4c-0.5,2.4,1,4.7,3.4,5.1
					C38.3,18.2,40.7,16.7,41.1,14.3z"/>
			</g>
			<g>
				<path class="st11" d="M31.6,61.3c1.2-2.1,0.5-4.7-1.6-6c-2.1-1.2-4.7-0.5-6,1.6c-1.2,2.1-0.5,4.7,1.6,6S30.4,63.3,31.6,61.3z"/>
			</g>
			<g>
				<path class="st11" d="M51.8,86.6c2.3-0.5,3.8-2.9,3.3-5.2c-0.2-0.9-0.7-1.7-1.3-2.2c0.5-2.3,1.5-3.8,2.4-4.7
					c2.6,0.9,5.3,1.5,8,1.7c0.3,1,0.5,2.2,0.4,3.2c0,0.5-0.3,1-0.8,1.2c-0.6,0.3-1.1,0.9-1.3,1.7c-0.2,1,0.2,2,1.1,2.6
					c1.4,0.9,3.1,0.3,3.7-1.2c0.4-1,0.1-2.2-0.8-2.9c-0.4-0.3-0.6-0.9-0.5-1.5c0.2-1.2,0.8-2.4,1.3-3.2c3,0,5.9-0.5,8.8-1.4
					c1.6,1.7,2.4,4.3,2.7,5.6c0.1,0.4,0.5,0.6,0.8,0.5l1.8-0.6c0.4-0.1,0.5-0.6,0.3-0.9c-1.5-2.5-1.7-4.7-1.5-6.2
					c2.2-1.1,4.3-2.4,6.2-4c1.2,0.2,2.8,1,3.8,2c0.4,0.4,0.5,0.9,0.4,1.4c-0.1,0.7,0,1.5,0.5,2.1c0.6,0.8,1.7,1.1,2.7,0.8
					c1.5-0.5,2.2-2.2,1.4-3.6c-0.5-1-1.6-1.5-2.7-1.2c-0.5,0.1-1.1-0.1-1.4-0.5c-1-1.2-1.6-2.7-1.8-3.6c0.8-0.8,1.5-1.7,2.2-2.6
					c1.2-1.6,2.2-3.2,3.1-5c1.7,0,3.5,0.3,5.1,0.8c0.9,0.3,1.5,1,1.7,1.9c0.3,1.2,1.1,2.3,2.3,3c1.6,0.8,3.5,0.5,4.8-0.6
					c2.1-1.9,1.9-5.1-0.2-6.7c-1.6-1.2-3.7-1.2-5.2-0.1c-0.8,0.6-1.8,0.6-2.7,0.2c-1.6-0.8-2.9-1.9-4-2.8c0.7-2.3,1.2-4.7,1.4-7.1
					c0.9-0.8,2.6-1.4,4-1.5c0.5,0,1,0.2,1.3,0.6c0.4,0.6,1.1,1,1.9,1c1,0,2-0.5,2.4-1.5c0.7-1.5-0.2-3.1-1.7-3.5
					c-1.1-0.2-2.2,0.3-2.7,1.2c-0.3,0.5-0.8,0.8-1.4,0.7c-1.5,0-2.9-0.6-3.7-0.9c-0.1-2.3-0.5-4.5-1.1-6.7c1.1-2.9,5.1-4.2,6.7-4.6
					c0.4-0.1,0.6-0.5,0.4-0.8l-0.6-1.8c-0.1-0.4-0.6-0.5-0.9-0.3c-4.1,2.5-7,1.6-8.2,1c-1-1.9-2.2-3.7-3.7-5.4
					c0.3-0.7,0.8-1.5,1.2-2c0.3-0.4,0.8-0.6,1.4-0.5c0.7,0.1,1.5-0.1,2.1-0.6c0.7-0.7,1-1.8,0.6-2.7c-0.6-1.5-2.3-2.1-3.7-1.3
					c-1,0.6-1.4,1.7-1.1,2.7c0.1,0.5,0,1.1-0.4,1.5c-0.5,0.5-1.1,0.9-1.7,1.2c-1-1.1-2.2-2-3.4-3c-0.9-0.6-1.7-1.2-2.6-1.8
					c-1.4-2.5,0.1-5.8,1.1-7.6c0.4,0,0.8,0.1,1.2,0c2.4-0.3,4-2.5,3.7-4.9c-0.3-2.4-2.5-4-4.9-3.7c-2.4,0.3-4,2.5-3.7,4.9
					c0.1,0.9,0.5,1.7,1.1,2.4c-1.4,4.3-4.2,5.5-5.3,5.8c-3.9-1.2-7.9-1.7-11.9-1.3c-0.9-0.8-1.6-2.4-1.9-3.8c-0.1-0.5,0.1-1,0.5-1.4
					c0.5-0.5,0.8-1.2,0.8-2c-0.1-1-0.7-1.9-1.7-2.2c-1.5-0.5-3.1,0.5-3.3,2c-0.1,1.1,0.5,2.1,1.4,2.6C60.6,9.5,61,10,61,10.5
					c0.1,1.7-0.4,3.3-0.7,4.1c-4.7,1-9.2,3.1-13.1,6.2c-2-0.9-3.7-2.8-4.4-3.7c-0.2-0.3-0.7-0.3-0.9-0.1l-1.4,1.3
					c-0.3,0.3-0.3,0.7,0.1,1c2.1,1.4,3.1,2.9,3.7,4.2c-0.8,0.9-1.6,1.8-2.3,2.7c-2.3,3-4,6.3-5,9.8c-1.1,0.5-2.9,0.7-4.3,0.4
					c-0.5-0.1-0.9-0.4-1.1-0.9c-0.3-0.7-0.8-1.2-1.6-1.5c-1-0.3-2,0-2.7,0.8c-1,1.3-0.6,3.1,0.8,3.8c1,0.5,2.2,0.3,2.9-0.4
					c0.4-0.4,1-0.5,1.5-0.4c1.6,0.5,2.9,1.5,3.5,2c-0.7,4.3-0.5,8.8,0.5,13c-1.3,0.9-2.7,1.4-3.5,1.7c-0.3,0.1-0.5,0.5-0.4,0.9
					l0.8,1.8c0.2,0.4,0.6,0.5,0.9,0.2c1-0.8,2-1.3,3-1.7c2,5.4,5.5,10.4,10.4,14.1c1.4,1,2.8,1.9,4.2,2.7c0.2,2-0.5,4.1-1.1,5.4
					c-0.4,0-0.8,0-1.2,0.1c-2.3,0.5-3.8,2.9-3.3,5.2C47.1,85.7,49.5,87.1,51.8,86.6z M82.1,22.6c0.3-0.5,1-0.6,1.5-0.3
					c0.5,0.3,0.6,1,0.3,1.5c-0.3,0.5-1,0.6-1.5,0.3C81.9,23.8,81.8,23.1,82.1,22.6z M57.7,57c-0.7-0.5-0.9-1.5-0.4-2.2
					c0.5-0.7,1.5-0.9,2.2-0.4c0.7,0.5,0.9,1.5,0.4,2.2C59.4,57.3,58.4,57.5,57.7,57z M66.5,60.4c-0.3,0.5-1,0.6-1.5,0.3
					c-0.5-0.3-0.6-1-0.3-1.5c0.3-0.5,1-0.6,1.5-0.3C66.7,59.2,66.8,59.9,66.5,60.4z M84.5,66.8c-0.4,0.5-1.1,0.7-1.7,0.3
					c-0.5-0.4-0.7-1.1-0.3-1.7c0.4-0.5,1.1-0.7,1.7-0.3C84.7,65.5,84.9,66.3,84.5,66.8z M89.8,59.9c-0.5,0.7-1.4,0.8-2.1,0.4
					c-0.7-0.5-0.8-1.4-0.4-2.1s1.4-0.8,2.1-0.4C90.1,58.3,90.2,59.2,89.8,59.9z M68.9,45.3c-0.2-1.1,0.5-2.1,1.6-2.3
					c1.1-0.2,2.1,0.5,2.3,1.6c0.2,1.1-0.5,2.1-1.6,2.3C70.2,47.1,69.1,46.4,68.9,45.3z M93.3,50.6c-0.5,0.7-1.4,0.8-2.1,0.4
					c-0.7-0.5-0.8-1.4-0.4-2.1c0.5-0.7,1.4-0.8,2.1-0.4C93.6,49,93.8,49.9,93.3,50.6z M83.2,36.5c-0.5-0.3-0.6-1-0.3-1.5
					c0.3-0.5,1-0.6,1.5-0.3c0.5,0.3,0.6,1,0.3,1.5C84.3,36.7,83.7,36.8,83.2,36.5z M93.9,41.4c-0.3,0.5-1,0.6-1.5,0.3
					c-0.5-0.3-0.6-1-0.3-1.5c0.3-0.5,1-0.6,1.5-0.3C94.1,40.3,94.3,40.9,93.9,41.4z M90.3,33.7c0.3-0.5,1-0.6,1.5-0.3
					c0.5,0.3,0.6,1,0.3,1.5c-0.3,0.5-1,0.6-1.5,0.3C90.1,34.8,90,34.2,90.3,33.7z M68.3,22.4c-0.2-1.1,0.5-2.1,1.6-2.3
					c1.1-0.2,2.1,0.5,2.3,1.6c0.2,1.1-0.5,2.1-1.6,2.3C69.6,24.2,68.5,23.5,68.3,22.4z M71.9,27.2c0.5-0.7,1.5-0.9,2.2-0.4
					c0.7,0.5,0.9,1.5,0.4,2.2C74,29.8,73,30,72.3,29.5C71.6,28.9,71.4,27.9,71.9,27.2z M75.4,30.5c0.5-0.7,1.5-0.9,2.2-0.4
					c0.7,0.5,0.9,1.5,0.4,2.2c-0.5,0.7-1.5,0.9-2.2,0.4C75.1,32.2,74.9,31.2,75.4,30.5z M77.8,35.9c0.7,0.5,0.9,1.5,0.4,2.2
					c-0.5,0.7-1.5,0.9-2.2,0.4C75.2,38,75,37,75.5,36.3C76,35.5,77,35.4,77.8,35.9z M68.9,34.3c-0.2-1.1,0.5-2.1,1.6-2.3
					c1.1-0.2,2.1,0.5,2.3,1.6s-0.5,2.1-1.6,2.3C70.2,36.2,69.1,35.4,68.9,34.3z M93.8,53.9c0.7,0.5,0.8,1.4,0.4,2.1
					c-0.5,0.7-1.4,0.8-2.1,0.4c-0.7-0.5-0.8-1.4-0.4-2.1C92.2,53.6,93.1,53.4,93.8,53.9z M87.9,54c-0.8,1.1-2.4,1.3-3.5,0.5
					c-1.1-0.8-1.3-2.4-0.5-3.5c0.8-1.1,2.4-1.3,3.5-0.5C88.6,51.3,88.8,52.9,87.9,54z M76.6,46.4c-0.5-0.3-0.6-1-0.3-1.5
					c0.3-0.5,1-0.6,1.5-0.3c0.5,0.3,0.6,1,0.3,1.5C77.8,46.7,77.1,46.8,76.6,46.4z M58.9,34.8c1.4-1.8,4-2.2,5.9-0.8
					c1.8,1.4,2.2,4,0.8,5.9c-1.4,1.8-4,2.2-5.9,0.8C57.8,39.3,57.5,36.7,58.9,34.8z M88.3,62.8c0.5,0.3,0.6,1,0.3,1.5
					c-0.3,0.5-1,0.6-1.5,0.3c-0.5-0.3-0.6-1-0.3-1.5C87.1,62.6,87.8,62.5,88.3,62.8z M78.6,61.5c-1.4,1.8-4,2.2-5.9,0.8
					c-1.8-1.4-2.2-4-0.8-5.9c1.4-1.8,4-2.2,5.9-0.8C79.6,57,80,59.6,78.6,61.5z M66.6,53.6c-0.2-1.1,0.5-2.1,1.6-2.3
					c1.1-0.2,2.1,0.5,2.3,1.6c0.2,1.1-0.5,2.1-1.6,2.3C67.8,55.5,66.8,54.7,66.6,53.6z M65.6,46.6c0.7,0.5,0.9,1.5,0.4,2.2
					c-0.5,0.7-1.5,0.9-2.2,0.4c-0.7-0.5-0.9-1.5-0.4-2.2C63.9,46.3,64.9,46.1,65.6,46.6z M60.5,44.3c0.2,1.1-0.5,2.1-1.6,2.3
					c-1.1,0.2-2.1-0.5-2.3-1.6c-0.2-1.1,0.5-2.1,1.6-2.3C59.3,42.4,60.3,43.2,60.5,44.3z M38.7,35.7c0.5-0.7,1.5-0.9,2.2-0.4
					c0.7,0.5,0.9,1.5,0.4,2.2c-0.5,0.7-1.5,0.9-2.2,0.4C38.4,37.4,38.2,36.4,38.7,35.7z M46.7,38.8c1.4-1.8,4-2.2,5.9-0.8
					c1.8,1.4,2.2,4,0.8,5.9c-1.4,1.8-4,2.2-5.9,0.8C45.7,43.3,45.3,40.7,46.7,38.8z M55.6,51.1c0.7,0.5,0.9,1.5,0.4,2.2
					c-0.5,0.7-1.5,0.9-2.2,0.4c-0.7-0.5-0.9-1.5-0.4-2.2C53.9,50.7,54.9,50.5,55.6,51.1z M42.5,45c0.3-0.5,1-0.6,1.5-0.3
					c0.5,0.3,0.6,1,0.3,1.5c-0.3,0.5-1,0.6-1.5,0.3C42.2,46.2,42.1,45.5,42.5,45z M66.8,72.5c-0.4,0.5-1.1,0.7-1.7,0.3
					c-0.5-0.4-0.7-1.1-0.3-1.7c0.4-0.5,1.1-0.7,1.7-0.3C67.1,71.2,67.2,71.9,66.8,72.5z M51.2,63.5c-0.7-0.5-0.9-1.5-0.4-2.2
					c0.5-0.7,1.5-0.9,2.2-0.4c0.7,0.5,0.9,1.5,0.4,2.2C53,63.8,52,64,51.2,63.5z M74.1,72.2c-0.3,0.5-1,0.6-1.5,0.3
					c-0.5-0.3-0.6-1-0.3-1.5c0.3-0.5,1-0.6,1.5-0.3C74.3,71,74.5,71.7,74.1,72.2z M70.6,67.9c0.5,0.3,0.6,1,0.3,1.5
					c-0.3,0.5-1,0.6-1.5,0.3c-0.5-0.3-0.6-1-0.3-1.5C69.4,67.6,70.1,67.5,70.6,67.9z M37.2,46.1c0.3-0.5,1-0.6,1.5-0.3
					c0.5,0.3,0.6,1,0.3,1.5c-0.3,0.5-1,0.6-1.5,0.3C37,47.2,36.8,46.6,37.2,46.1z M60.2,64.4c0.4-0.5,1.1-0.7,1.7-0.3
					c0.5,0.4,0.7,1.1,0.3,1.7c-0.4,0.5-1.1,0.7-1.7,0.3C60,65.7,59.8,64.9,60.2,64.4z M40.3,52.4c0.5-0.7,1.5-0.9,2.2-0.4
					c0.7,0.5,0.9,1.5,0.4,2.2c-0.5,0.7-1.5,0.9-2.2,0.4C40,54.2,39.8,53.2,40.3,52.4z M43.5,56.5c0.3-0.5,1-0.6,1.5-0.3
					c0.5,0.3,0.6,1,0.3,1.5c-0.3,0.5-1,0.6-1.5,0.3C43.3,57.7,43.2,57,43.5,56.5z M57.6,69.3c0.4-0.5,1.1-0.7,1.7-0.3
					c0.5,0.4,0.7,1.1,0.3,1.7c-0.4,0.5-1.1,0.7-1.7,0.3C57.3,70.6,57.2,69.8,57.6,69.3z M44.6,62.9c0.3-0.5,1-0.6,1.5-0.3
					c0.5,0.3,0.6,1,0.3,1.5c-0.3,0.5-1,0.6-1.5,0.3C44.3,64.1,44.2,63.4,44.6,62.9z"/>
			</g>
		</g>
		<g>
			<g>
				<path class="st10" d="M71.9,56.4c-1.4,1.8-1,4.5,0.8,5.9c1.8,1.4,4.5,1,5.9-0.8c1.4-1.8,1-4.5-0.8-5.9
					C75.9,54.2,73.3,54.6,71.9,56.4z"/>
			</g>
			<g>
				<path class="st10" d="M84,51c-0.8,1.1-0.6,2.7,0.5,3.5c1.1,0.8,2.7,0.6,3.5-0.5c0.8-1.1,0.6-2.7-0.5-3.5
					C86.4,49.7,84.8,49.9,84,51z"/>
			</g>
			<g>
				<path class="st10" d="M70.5,52.9c-0.2-1.1-1.2-1.8-2.3-1.6c-1.1,0.2-1.8,1.2-1.6,2.3c0.2,1.1,1.2,1.8,2.3,1.6
					C70,55.1,70.7,54,70.5,52.9z"/>
			</g>
			<g>
				<path class="st10" d="M72.9,44.6c-0.2-1.1-1.2-1.8-2.3-1.6c-1.1,0.2-1.8,1.2-1.6,2.3c0.2,1.1,1.2,1.8,2.3,1.6
					C72.4,46.7,73.1,45.7,72.9,44.6z"/>
			</g>
			<g>
				<path class="st10" d="M56.5,45c0.2,1.1,1.2,1.8,2.3,1.6c1.1-0.2,1.8-1.2,1.6-2.3c-0.2-1.1-1.2-1.8-2.3-1.6
					C57.1,42.8,56.3,43.9,56.5,45z"/>
			</g>
			<g>
				<path class="st10" d="M72.3,21.7c-0.2-1.1-1.2-1.8-2.3-1.6c-1.1,0.2-1.8,1.2-1.6,2.3c0.2,1.1,1.2,1.8,2.3,1.6
					C71.8,23.8,72.5,22.8,72.3,21.7z"/>
			</g>
			<g>
				<path class="st10" d="M72.9,33.6c-0.2-1.1-1.2-1.8-2.3-1.6c-1.1,0.2-1.8,1.2-1.6,2.3c0.2,1.1,1.2,1.8,2.3,1.6
					C72.4,35.8,73.1,34.7,72.9,33.6z"/>
			</g>
			<g>
				<path class="st10" d="M53.1,60.8c-0.7-0.5-1.7-0.3-2.2,0.4c-0.5,0.7-0.3,1.7,0.4,2.2c0.7,0.5,1.7,0.3,2.2-0.4
					C54,62.4,53.8,61.4,53.1,60.8z"/>
			</g>
			<g>
				<path class="st10" d="M78.1,32.3c0.5-0.7,0.3-1.7-0.4-2.2c-0.7-0.5-1.7-0.3-2.2,0.4c-0.5,0.7-0.3,1.7,0.4,2.2
					C76.6,33.2,77.6,33.1,78.1,32.3z"/>
			</g>
			<g>
				<path class="st10" d="M74.6,29.1c0.5-0.7,0.3-1.7-0.4-2.2c-0.7-0.5-1.7-0.3-2.2,0.4c-0.5,0.7-0.3,1.7,0.4,2.2
					C73,30,74,29.8,74.6,29.1z"/>
			</g>
			<g>
				<path class="st10" d="M41.3,37.5c0.5-0.7,0.3-1.7-0.4-2.2c-0.7-0.5-1.7-0.3-2.2,0.4c-0.5,0.7-0.3,1.7,0.4,2.2
					C39.8,38.4,40.8,38.3,41.3,37.5z"/>
			</g>
			<g>
				<path class="st10" d="M42.9,54.3c0.5-0.7,0.3-1.7-0.4-2.2c-0.7-0.5-1.7-0.3-2.2,0.4c-0.5,0.7-0.3,1.7,0.4,2.2
					C41.4,55.2,42.4,55,42.9,54.3z"/>
			</g>
			<g>
				<path class="st10" d="M63.7,49.3c0.7,0.5,1.7,0.3,2.2-0.4c0.5-0.7,0.3-1.7-0.4-2.2c-0.7-0.5-1.7-0.3-2.2,0.4
					C62.8,47.7,63,48.7,63.7,49.3z"/>
			</g>
			<g>
				<path class="st10" d="M75.9,38.5c0.7,0.5,1.7,0.3,2.2-0.4c0.5-0.7,0.3-1.7-0.4-2.2c-0.7-0.5-1.7-0.3-2.2,0.4
					C75,37,75.2,38,75.9,38.5z"/>
			</g>
			<g>
				<path class="st10" d="M92.1,40.2c-0.3,0.5-0.2,1.2,0.3,1.5c0.5,0.3,1.2,0.2,1.5-0.3c0.3-0.5,0.2-1.2-0.3-1.5
					C93.2,39.6,92.5,39.7,92.1,40.2z"/>
			</g>
			<g>
				<path class="st10" d="M90.9,48.9c-0.5,0.7-0.3,1.6,0.4,2.1c0.7,0.5,1.6,0.3,2.1-0.4c0.5-0.7,0.3-1.6-0.4-2.1
					C92.3,48,91.4,48.2,90.9,48.9z"/>
			</g>
			<g>
				<path class="st10" d="M92.1,56.4c0.7,0.5,1.6,0.3,2.1-0.4c0.5-0.7,0.3-1.6-0.4-2.1c-0.7-0.5-1.6-0.3-2.1,0.4
					C91.2,55,91.4,55.9,92.1,56.4z"/>
			</g>
			<g>
				<path class="st10" d="M87.3,58.1c-0.5,0.7-0.3,1.6,0.4,2.1c0.7,0.5,1.6,0.3,2.1-0.4c0.5-0.7,0.3-1.6-0.4-2.1
					C88.7,57.3,87.8,57.5,87.3,58.1z"/>
			</g>
			<g>
				<path class="st10" d="M77.9,44.6c-0.5-0.3-1.2-0.2-1.5,0.3c-0.3,0.5-0.2,1.2,0.3,1.5c0.5,0.3,1.2,0.2,1.5-0.3
					C78.5,45.7,78.4,45,77.9,44.6z"/>
			</g>
			<g>
				<path class="st10" d="M84.4,34.7c-0.5-0.3-1.2-0.2-1.5,0.3c-0.3,0.5-0.2,1.2,0.3,1.5s1.2,0.2,1.5-0.3C85,35.7,84.9,35,84.4,34.7
					z"/>
			</g>
			<g>
				<path class="st10" d="M92.1,34.9c0.3-0.5,0.2-1.2-0.3-1.5c-0.5-0.3-1.2-0.2-1.5,0.3c-0.3,0.5-0.2,1.2,0.3,1.5
					C91.1,35.5,91.8,35.4,92.1,34.9z"/>
			</g>
			<g>
				<path class="st10" d="M83.9,23.9c0.3-0.5,0.2-1.2-0.3-1.5c-0.5-0.3-1.2-0.2-1.5,0.3c-0.3,0.5-0.2,1.2,0.3,1.5
					C82.9,24.5,83.5,24.4,83.9,23.9z"/>
			</g>
			<g>
				<path class="st10" d="M64.7,59.1c-0.3,0.5-0.2,1.2,0.3,1.5c0.5,0.3,1.2,0.2,1.5-0.3c0.3-0.5,0.2-1.2-0.3-1.5
					C65.7,58.5,65,58.6,64.7,59.1z"/>
			</g>
			<g>
				<path class="st10" d="M69.3,69.7c0.5,0.3,1.2,0.2,1.5-0.3c0.3-0.5,0.2-1.2-0.3-1.5c-0.5-0.3-1.2-0.2-1.5,0.3
					C68.7,68.6,68.8,69.3,69.3,69.7z"/>
			</g>
			<g>
				<path class="st10" d="M72.3,70.9c-0.3,0.5-0.2,1.2,0.3,1.5c0.5,0.3,1.2,0.2,1.5-0.3c0.3-0.5,0.2-1.2-0.3-1.5
					C73.4,70.3,72.7,70.4,72.3,70.9z"/>
			</g>
			<g>
				<path class="st10" d="M87,64.6c0.5,0.3,1.2,0.2,1.5-0.3c0.3-0.5,0.2-1.2-0.3-1.5c-0.5-0.3-1.2-0.2-1.5,0.3
					C86.4,63.6,86.5,64.3,87,64.6z"/>
			</g>
			<g>
				<path class="st10" d="M82.5,65.4c-0.4,0.5-0.3,1.3,0.3,1.7c0.5,0.4,1.3,0.3,1.7-0.3s0.3-1.3-0.3-1.7
					C83.7,64.8,82.9,64.9,82.5,65.4z"/>
			</g>
			<g>
				<path class="st10" d="M62.2,65.7c0.4-0.5,0.3-1.3-0.3-1.7c-0.5-0.4-1.3-0.3-1.7,0.3c-0.4,0.5-0.3,1.3,0.3,1.7
					C61.1,66.4,61.8,66.3,62.2,65.7z"/>
			</g>
			<g>
				<path class="st10" d="M64.8,71.1c-0.4,0.5-0.3,1.3,0.3,1.7c0.5,0.4,1.3,0.3,1.7-0.3c0.4-0.5,0.3-1.3-0.3-1.7
					C66,70.4,65.2,70.5,64.8,71.1z"/>
			</g>
			<g>
				<path class="st10" d="M59.6,70.7c0.4-0.5,0.3-1.3-0.3-1.7c-0.5-0.4-1.3-0.3-1.7,0.3c-0.4,0.5-0.3,1.3,0.3,1.7
					C58.4,71.3,59.2,71.2,59.6,70.7z"/>
			</g>
			<g>
				<path class="st10" d="M46.3,64.2c0.3-0.5,0.2-1.2-0.3-1.5c-0.5-0.3-1.2-0.2-1.5,0.3c-0.3,0.5-0.2,1.2,0.3,1.5
					C45.3,64.8,46,64.6,46.3,64.2z"/>
			</g>
			<g>
				<path class="st10" d="M45.3,57.8c0.3-0.5,0.2-1.2-0.3-1.5c-0.5-0.3-1.2-0.2-1.5,0.3c-0.3,0.5-0.2,1.2,0.3,1.5
					C44.3,58.4,45,58.3,45.3,57.8z"/>
			</g>
			<g>
				<path class="st10" d="M44.3,46.2c0.3-0.5,0.2-1.2-0.3-1.5c-0.5-0.3-1.2-0.2-1.5,0.3c-0.3,0.5-0.2,1.2,0.3,1.5
					C43.2,46.9,43.9,46.7,44.3,46.2z"/>
			</g>
			<g>
				<path class="st10" d="M39,47.3c0.3-0.5,0.2-1.2-0.3-1.5c-0.5-0.3-1.2-0.2-1.5,0.3c-0.3,0.5-0.2,1.2,0.3,1.5
					C37.9,47.9,38.6,47.8,39,47.3z"/>
			</g>
			<g>
				<path class="st10" d="M59.5,54.4c-0.7-0.5-1.7-0.3-2.2,0.4c-0.5,0.7-0.3,1.7,0.4,2.2c0.7,0.5,1.7,0.3,2.2-0.4
					C60.4,55.9,60.3,54.9,59.5,54.4z"/>
			</g>
			<g>
				<path class="st10" d="M53.8,53.7c0.7,0.5,1.7,0.3,2.2-0.4c0.5-0.7,0.3-1.7-0.4-2.2c-0.7-0.5-1.7-0.3-2.2,0.4
					C52.9,52.2,53,53.2,53.8,53.7z"/>
			</g>
			<g>
				<path class="st10" d="M53.4,43.9c1.4-1.8,1-4.5-0.8-5.9c-1.8-1.4-4.5-1-5.9,0.8c-1.4,1.8-1,4.5,0.8,5.9
					C49.4,46.1,52,45.8,53.4,43.9z"/>
			</g>
			<g>
				<path class="st10" d="M65.6,39.9c1.4-1.8,1-4.5-0.8-5.9c-1.8-1.4-4.5-1-5.9,0.8c-1.4,1.8-1,4.5,0.8,5.9
					C61.5,42.1,64.2,41.8,65.6,39.9z"/>
			</g>
		</g>
	</g>
</g>
</svg>
