<?xml version="1.0" encoding="utf-8"?>
<!-- Generator: Adobe Illustrator 16.0.0, SVG Export Plug-In . SVG Version: 6.00 Build 0)  -->
<!DOCTYPE svg PUBLIC "-//W3C//DTD SVG 1.1//EN" "http://www.w3.org/Graphics/SVG/1.1/DTD/svg11.dtd" [
	<!ENTITY ns_flows "http://ns.adobe.com/Flows/1.0/">
	<!ENTITY ns_extend "http://ns.adobe.com/Extensibility/1.0/">
	<!ENTITY ns_ai "http://ns.adobe.com/AdobeIllustrator/10.0/">
	<!ENTITY ns_graphs "http://ns.adobe.com/Graphs/1.0/">
]>
<svg version="1.1" id="Lager_1" xmlns:x="&ns_extend;" xmlns:i="&ns_ai;" xmlns:graph="&ns_graphs;"
	 xmlns="http://www.w3.org/2000/svg" xmlns:xlink="http://www.w3.org/1999/xlink" xmlns:a="http://ns.adobe.com/AdobeSVGViewerExtensions/3.0/"
	 x="0px" y="0px" width="301px" height="134px" viewBox="0 0 301 134" enable-background="new 0 0 301 134" xml:space="preserve">
<g>
	<path fill="#125934" d="M1.606,67.194c9.145-2.95,20.06-12.39,20.06-26.844H2.196V2h39.825v34.81
		c0,26.845-20.65,41.004-40.415,44.25V67.194z M60.016,67.194c9.145-2.95,20.06-12.39,20.06-26.844h-19.47V2h39.825v34.81
		c0,26.845-20.65,41.004-40.415,44.25V67.194z"/>
</g>
<g>
	<path fill="#125934" d="M200.176,118.135c9.145-2.95,20.06-12.39,20.06-26.845h-19.47V52.94h39.824v34.811
		c0,26.844-20.65,41.004-40.414,44.249V118.135z M258.585,118.135c9.146-2.95,20.06-12.39,20.06-26.845h-19.47V52.94H299v34.811
		c0,26.844-20.65,41.004-40.415,44.249V118.135z"/>
</g>
</svg>
