<?xml version="1.0" encoding="utf-8"?>
<!-- Generator: Adobe Illustrator 16.0.0, SVG Export Plug-In . SVG Version: 6.00 Build 0)  -->
<!DOCTYPE svg PUBLIC "-//W3C//DTD SVG 1.1//EN" "http://www.w3.org/Graphics/SVG/1.1/DTD/svg11.dtd">
<svg version="1.1" xmlns="http://www.w3.org/2000/svg" xmlns:xlink="http://www.w3.org/1999/xlink" x="0px" y="0px" width="24px"
	 height="24px" viewBox="0 0 24 24" enable-background="new 0 0 24 24" xml:space="preserve" preserveAspectRatio="none">
<g id="Lager_2">
	<g display="none">
		
			<rect x="-366.607" y="-130.945" display="inline" fill="#006B35" stroke="#006B35" stroke-width="12" stroke-linecap="round" stroke-linejoin="round" stroke-miterlimit="10" width="61.099" height="28.427"/>
		
			<polygon display="inline" fill="#FFFFFF" stroke="#006B35" stroke-width="12" stroke-linecap="round" stroke-linejoin="round" stroke-miterlimit="10" points="
			-366.607,27.657 -366.607,-102.518 -305.508,-102.518 -305.508,27.657 -336.056,77.379 		"/>
		
			<line display="inline" fill="none" stroke="#006B35" stroke-width="12" stroke-linecap="round" stroke-linejoin="round" stroke-miterlimit="10" x1="-336.057" y1="23.771" x2="-336.057" y2="-102.518"/>
		
			<line display="inline" fill="none" stroke="#006B35" stroke-width="12" stroke-linecap="round" stroke-linejoin="round" stroke-miterlimit="10" x1="-366.607" y1="27.657" x2="-305.508" y2="27.657"/>
		<polygon display="inline" fill="#006B35" points="-323.274,55.039 -336.057,75.846 -348.841,55.039 		"/>
	</g>
	<g>
		<circle fill="#0C4329" cx="11.999" cy="9.599" r="5.656"/>
		<path fill="#0C4329" d="M18.159,8.708c0-3.169-2.766-5.712-6.165-5.712c-3.395,0-6.159,2.542-6.162,5.666l-0.75-0.001
			c0.002-3.537,3.103-6.415,6.912-6.415c3.812,0,6.915,2.879,6.915,6.419L18.159,8.708z"/>
		<path fill="#0C4329" d="M16.11,15.785l-0.438-0.609c1.529-1.101,2.442-2.784,2.442-4.501l0.75-0.043
			C18.865,12.632,17.835,14.542,16.11,15.785z"/>
		<circle fill="#0C4329" cx="15.892" cy="15.479" r="0.878"/>
		<path fill="#0C4329" d="M11.999,23.499c-4.919,0.13-9.7-3.732-9.371-4.321c0.759-1.358,2.531-2.493,5.391-2.493h7.574
			c3.471,0,4.928,1.157,5.777,2.417C21.604,19.448,16.918,23.367,11.999,23.499z"/>
		<path fill="#0C4329" d="M6.456,10.822c0,0.49-0.447,0.886-0.999,0.886l0,0c-0.552,0-1-0.396-1-0.886V8.375
			c0-0.49,0.448-0.886,1-0.886l0,0c0.551,0,0.999,0.396,0.999,0.886V10.822z"/>
		<path fill="#0C4329" d="M19.533,10.822c0,0.49-0.447,0.886-0.998,0.886l0,0c-0.554,0-1.001-0.396-1.001-0.886V8.375
			c0-0.49,0.447-0.886,1.001-0.886l0,0c0.551,0,0.998,0.396,0.998,0.886V10.822z"/>
	</g>
</g>
<g id="Lager_1">
	<path fill="#0C4329" d="M12,1C18.066,1,23,5.935,23,12C23,18.066,18.066,23,12,23C5.935,23,1,18.066,1,12C1,5.935,5.935,1,12,1
		 M12,0C5.372,0,0,5.373,0,12c0,6.628,5.372,12,12,12C18.628,24,24,18.628,24,12C24,5.373,18.628,0,12,0L12,0z"/>
</g>
</svg>
